<svg width="20" height="20" viewBox="0 0 20 20" fill="none" xmlns="http://www.w3.org/2000/svg">
<path fill-rule="evenodd" clip-rule="evenodd" d="M9.99995 3.75C8.64914 3.75052 7.33486 4.18866 6.25396 4.9988C5.17305 5.80894 4.38371 6.94746 4.00415 8.24385C3.6246 9.54023 3.67526 10.9247 4.14856 12.1899C4.62185 13.455 5.4923 14.5328 6.62953 15.2618C7.76675 15.9908 9.10954 16.3317 10.4568 16.2335C11.804 16.1352 13.0832 15.6032 14.1026 14.717C15.1221 13.8308 15.8271 12.6382 16.1119 11.3177C16.3967 9.9973 16.246 8.62013 15.6824 7.3925C15.6211 7.24324 15.6199 7.07605 15.679 6.9259C15.7381 6.77576 15.853 6.6543 15.9997 6.58696C16.1463 6.51961 16.3133 6.51159 16.4658 6.56458C16.6182 6.61757 16.7442 6.72746 16.8174 6.87125C17.4937 8.34449 17.6744 9.99716 17.3325 11.5817C16.9907 13.1663 16.1446 14.5974 14.9211 15.6608C13.6976 16.7242 12.1625 17.3625 10.5458 17.4802C8.929 17.5979 7.31764 17.1886 5.95303 16.3136C4.58842 15.4387 3.54402 14.1452 2.97627 12.6268C2.40852 11.1085 2.34799 9.44703 2.80374 7.89139C3.25949 6.33575 4.20698 4.96964 5.5043 3.99769C6.80162 3.02574 8.37892 2.50028 9.99995 2.5V3.75Z" fill="#ED0E0E"/>
<path d="M10 5.58285V0.667852C10 0.608472 10.017 0.550328 10.0488 0.500228C10.0807 0.450128 10.1262 0.410146 10.18 0.384963C10.2337 0.359781 10.2936 0.350441 10.3525 0.358036C10.4114 0.365632 10.4669 0.389849 10.5125 0.427852L13.4625 2.88535C13.6125 3.01035 13.6125 3.24035 13.4625 3.36535L10.5125 5.82285C10.4669 5.86086 10.4114 5.88507 10.3525 5.89267C10.2936 5.90026 10.2337 5.89092 10.18 5.86574C10.1262 5.84056 10.0807 5.80058 10.0488 5.75048C10.017 5.70038 10 5.64223 10 5.58285Z" fill="#ED0E0E"/>
</svg>
