<svg width="356" height="45" viewBox="0 0 356 45" fill="none" xmlns="http://www.w3.org/2000/svg">
<g clip-path="url(#clip0_2490_6028)">
<path fill-rule="evenodd" clip-rule="evenodd" d="M22.3943 28.92L22.395 29.6621C22.1476 29.5694 21.5148 28.9078 21.3495 28.6927C21.0457 28.297 20.7905 27.9627 20.5388 27.5007C20.0498 26.6034 19.7395 25.4715 19.7409 24.2051C19.7414 23.8485 19.8227 22.9768 19.9268 22.6998C20.0324 22.4186 20.0295 22.2049 20.2248 21.7343C20.4084 21.2916 20.7039 20.6867 20.9828 20.341C21.1195 20.1717 21.2022 20.0182 21.342 19.8575C22.0829 19.0067 22.7149 18.5531 23.7628 18.0217C23.9618 17.9209 24.7798 17.6102 25.0153 17.5738C25.6418 17.4768 25.9812 17.4158 26.6743 17.4178C28.7393 17.4234 30.4333 18.3364 31.4842 19.4314C31.6292 19.5825 31.7694 19.7083 31.8964 19.862C31.967 19.9475 32.0044 20.0232 32.0788 20.0994C32.1472 20.1696 32.2256 20.2675 32.2717 20.3485L32.602 20.8631C32.8693 21.284 33.2397 22.2296 33.3291 22.7031C33.4408 23.2957 33.5101 23.6354 33.5087 24.3105C33.5057 25.7844 32.9645 27.3559 32.1509 28.3597C32.05 28.484 32.025 28.5406 31.9045 28.6618C31.7155 28.8518 31.7493 28.8423 31.6486 28.9534C31.3123 29.3242 31.1075 29.4506 30.7875 29.7377C30.5974 29.9082 30.5816 29.9053 30.581 29.6146V22.8371C30.581 22.4386 30.6353 22.2881 30.4025 22.0461C30.2443 21.8817 30.0879 21.6971 29.9445 21.5355C29.7907 21.3623 29.6602 21.1595 29.5066 21.0033C29.2198 20.7116 28.853 20.2927 28.603 19.9658C28.4636 19.7832 27.8839 19.1687 27.6841 18.9469C27.5424 18.7896 26.8814 17.9728 26.7881 17.9058C26.5127 17.7083 26.3198 18.0201 26.1911 18.1665L25.7231 18.669C25.5595 18.8398 25.4089 18.9917 25.2439 19.1596L23.6069 20.9156C23.5165 21.0143 23.4373 21.0704 23.3587 21.1523L23.1342 21.4123C22.3401 22.2451 22.3944 21.912 22.3944 23.0894L22.3943 28.9197V28.92ZM16.9625 24.2683C16.9611 23.5396 17.0115 23.2735 17.1193 22.6204C17.1429 22.4773 17.1632 22.2353 17.205 22.108C17.3145 21.7746 17.3402 21.5068 17.4742 21.18C17.5289 21.0464 17.5995 20.8545 17.6393 20.7333C17.6853 20.5931 17.7687 20.4719 17.824 20.333C18.0577 19.7461 18.3374 19.2734 18.6945 18.7971C19.0497 18.3233 19.3381 17.9025 19.7869 17.4856C20.3971 16.9187 20.7619 16.5859 21.4518 16.1373L22.6148 15.5095C23.0602 15.3008 23.8759 15.0255 24.3791 14.8751C24.4889 14.8422 24.7985 14.8238 24.926 14.8003C25.1282 14.7631 25.2137 14.7538 25.4466 14.729C25.5302 14.72 25.6108 14.6903 25.6849 14.6821C25.7757 14.6719 25.8826 14.6803 25.977 14.6727C27.7089 14.5342 29.6558 14.9556 30.993 15.7089C31.1154 15.7779 31.2749 15.8243 31.3906 15.9054C31.6247 16.0691 31.9064 16.1964 32.1289 16.3684L32.8049 16.8939C33.0222 17.0762 33.2111 17.2539 33.4222 17.4571C33.9251 17.941 34.1304 18.257 34.5325 18.7498C34.7553 19.0227 35.2741 19.9855 35.3916 20.2732C35.9017 21.5215 36.2489 22.5212 36.2487 24.2054C36.2486 24.7683 36.2329 25.4998 36.1089 25.9886C36.0749 26.123 36.074 26.2644 36.0406 26.3899L35.8523 27.0838C35.5186 28.0032 35.3628 28.3831 34.8805 29.2514C34.6651 29.639 34.0404 30.4487 33.7271 30.7738C33.4697 31.0408 32.8782 31.6407 32.5596 31.8606C32.4486 31.9373 32.4089 31.9759 32.3096 32.0543C32.1323 32.1941 31.4153 32.632 31.2061 32.726C31.0533 32.7946 30.6946 33.0062 30.5953 33.0053C30.5932 32.2818 30.5777 31.4406 30.5994 30.7488C31.4627 30.2822 32.6368 29.1047 33.1307 28.2237C33.7441 27.1294 34.2372 25.8938 34.2356 24.2895C34.2344 23.1083 33.9625 22.0185 33.5552 21.1579C33.3635 20.7527 33.1625 20.2749 32.8774 19.9363C32.7337 19.7656 32.6073 19.5851 32.4607 19.4036C31.2487 17.904 29.0979 16.6826 26.6109 16.685C26.2435 16.6854 25.2079 16.7775 24.8897 16.8725C24.3563 17.0317 23.9828 17.1403 23.4846 17.3596C23.0184 17.5648 22.6486 17.7656 22.2655 18.0421C21.9131 18.2965 21.5385 18.5619 21.2491 18.9034C20.9161 19.2961 20.742 19.3788 20.3801 19.9325C20.1108 20.3445 20.064 20.3609 19.8363 20.8204C19.3332 21.8348 18.9976 22.9053 18.9955 24.2051C18.9941 25.1491 19.0382 25.3065 19.2262 26.1396L19.5628 27.1253C19.8727 27.8416 20.0474 28.2006 20.5223 28.8222C20.9371 29.3649 20.8841 29.3066 21.46 29.8667C21.6934 30.0938 21.929 30.2742 22.1845 30.4688C22.2878 30.5475 22.514 30.6464 22.6167 30.7156C22.718 30.7839 22.9261 30.9396 23.0428 30.9546L23.0871 30.8698C23.1416 30.7354 23.1269 30.8157 23.1495 30.7282L23.1561 23.3212C23.1561 21.8159 24.8892 21.2181 25.8017 22.2763C26.2825 22.8338 26.1664 23.3903 26.1664 24.3105L26.1662 29.6987C26.1661 29.9607 26.217 30.0329 26.0666 30.1876L25.1836 31.1165C25.1058 31.1849 24.9667 31.3179 24.8817 31.4054C24.7055 31.587 24.4477 31.8795 24.283 32.0105C24.1631 32.106 24.0942 32.2155 23.9796 32.3184C23.9003 32.3897 23.7709 32.5256 23.6897 32.616C23.5552 32.7659 23.1959 33.1555 23.1062 33.2148C22.9684 33.2192 21.9877 32.7321 21.8133 32.6278C21.4348 32.4011 21.0296 32.1188 20.6906 31.8745C20.3866 31.6555 19.7008 31.0289 19.4722 30.7313C19.3905 30.6249 19.341 30.5953 19.2457 30.4948C19.1752 30.4206 19.1151 30.3282 19.0362 30.2417C18.8264 30.0116 18.6051 29.5888 18.4632 29.4005C18.0136 28.8038 17.4978 27.5579 17.2968 26.8245C17.2271 26.5707 17.1855 26.3067 17.1331 26.0535C17.0156 25.4853 16.9634 24.8952 16.9623 24.2684L16.9625 24.2683ZM16.1777 24.2471C16.1805 24.9453 16.2331 25.6328 16.3693 26.2707C16.5054 26.9072 16.8349 28.048 17.1301 28.6034C17.3447 29.0068 17.3746 29.157 17.6571 29.6156C17.8312 29.8984 18.0834 30.3273 18.2883 30.5663C18.599 30.9296 18.8971 31.3228 19.2579 31.6616C19.4224 31.816 19.6205 31.9943 19.7986 32.1542C20.06 32.3889 20.2594 32.5044 20.3773 32.6094C20.7489 32.9403 21.1782 33.1497 21.6244 33.4263C21.7878 33.5275 22.9253 34.0556 23.0851 34.0567L23.5683 33.5904C23.723 33.4304 23.8751 33.2785 24.0413 33.1141C24.3786 32.7806 24.6972 32.5187 25.0232 32.1778C25.3267 31.8606 25.6504 31.5414 25.9821 31.239L26.6882 30.5106C26.8753 30.2894 26.8477 30.52 26.8482 29.9722V23.3C26.8482 22.7154 27.0914 22.2296 27.52 21.9586C27.731 21.8251 27.5979 21.9205 27.7361 21.8575C27.908 21.7793 27.7923 21.7909 28.0247 21.7537C28.4952 21.6784 28.6556 21.6926 29.077 21.8787C29.2256 21.9444 29.4638 22.1449 29.5521 22.2597C29.8868 22.6947 29.9177 22.91 29.9177 23.6156V30.5194C29.9177 31.6561 29.8852 32.8405 29.9192 33.9712C30.0043 34.0401 29.9516 33.9778 30.0382 34.0113C30.1303 34.0471 29.9996 34.0306 30.1367 34.0652C30.7373 33.9732 32.4084 32.9739 32.8614 32.625C33.7815 31.9165 34.7284 30.977 35.3729 29.9519C35.6041 29.5843 35.7501 29.3615 35.9416 28.9849C35.9818 28.9058 35.9932 28.8944 36.0317 28.8221C36.0779 28.7354 36.0586 28.7079 36.1072 28.6213C36.2306 28.4017 36.3289 28.1358 36.4209 27.8838C36.8263 26.7733 37.0751 25.5639 37.0745 24.1838C37.0741 23.4114 36.8709 22.0929 36.6536 21.3901C36.5983 21.2109 36.567 21.0557 36.5023 20.8863C36.2733 20.2877 36.1933 20.0909 35.9123 19.5427C35.6585 19.0475 35.4728 18.7763 35.1755 18.3202C34.9148 17.9207 34.0669 16.911 33.6791 16.5909C33.3516 16.3206 32.9209 15.9233 32.5853 15.7244C32.4515 15.6452 32.3284 15.5514 32.2073 15.4697L31.5694 15.1288C31.5064 15.1016 31.4427 15.0458 31.3637 15.0028L30.4753 14.6036C30.2293 14.5014 29.9972 14.4345 29.7821 14.3325C29.678 14.2831 29.637 14.2951 29.5248 14.2553C28.9519 14.0524 27.2958 13.8408 26.6743 13.8399C25.1723 13.8378 23.4156 14.2396 22.3089 14.7993C21.9853 14.963 21.3127 15.2693 21.0374 15.4706C20.7306 15.6949 20.6658 15.7076 20.2852 16.0038C19.4592 16.6463 19.325 16.773 18.6145 17.5798C18.1306 18.1292 17.3884 19.3085 17.1167 19.986C17.0063 20.2609 16.8448 20.5953 16.734 20.8806L16.4508 21.9084C16.2767 22.5227 16.1748 23.5118 16.1777 24.2469V24.2471Z" fill="#FBFBFB"/>
<path fill-rule="evenodd" clip-rule="evenodd" d="M22.3944 23.0896C22.3944 21.9123 22.3401 22.2454 23.1342 21.4126L23.3587 21.1526C23.4373 21.0707 23.5165 21.0145 23.6069 20.9159L25.2439 19.1599C25.409 18.992 25.5595 18.8401 25.7231 18.6692L26.1911 18.1668C26.3198 18.0203 26.5127 17.7084 26.7881 17.9061C26.8813 17.9731 27.5422 18.7897 27.6841 18.9471C27.884 19.1689 28.4635 19.7835 28.603 19.966C28.853 20.2931 29.2198 20.7118 29.5066 21.0035C29.6602 21.1598 29.7907 21.3627 29.9445 21.5357C30.0879 21.6975 30.2443 21.882 30.4025 22.0463C30.6353 22.2884 30.581 22.4388 30.581 22.8374V29.6148C30.5815 29.9056 30.5974 29.9085 30.7875 29.7379C31.1075 29.4508 31.3122 29.3244 31.6486 28.9536C31.7493 28.8426 31.7156 28.852 31.9045 28.662C32.025 28.5409 32.05 28.4844 32.1509 28.36C32.9643 27.3562 33.5055 25.7845 33.5087 24.3107C33.5101 23.6356 33.4408 23.2959 33.329 22.7033C33.2397 22.2299 32.8693 21.2842 32.602 20.8633L32.2717 20.3488C32.2256 20.2677 32.1472 20.1698 32.0788 20.0997C32.0044 20.0234 31.9671 19.9478 31.8963 19.8622C31.7694 19.7086 31.6292 19.5827 31.4842 19.4316C30.4333 18.3368 28.7393 17.4238 26.6743 17.4181C25.9812 17.4162 25.6418 17.477 25.0153 17.574C24.7798 17.6104 23.9618 17.9212 23.7628 18.022C22.7147 18.5533 22.0828 19.0069 21.342 19.8577C21.2021 20.0184 21.1195 20.1719 20.9828 20.3413C20.7039 20.6869 20.4084 21.2918 20.2248 21.7345C20.0295 22.2053 20.0324 22.4189 19.9268 22.7C19.8227 22.9769 19.7414 23.8486 19.7408 24.2054C19.7394 25.4717 20.0498 26.6035 20.5388 27.501C20.7905 27.963 21.0457 28.2973 21.3495 28.6929C21.5148 28.9081 22.1477 29.5696 22.395 29.6624L22.3943 28.9202L22.3944 23.0899V23.0896ZM16.1778 24.2473C16.1749 23.5121 16.2768 22.5231 16.4509 21.9088L16.7342 20.881C16.8449 20.5957 17.0065 20.2613 17.1168 19.9864C17.3886 19.3089 18.1307 18.1296 18.6146 17.5802C19.3251 16.7734 19.4593 16.6467 20.2853 16.0042C20.666 15.7081 20.7307 15.6953 21.0375 15.471C21.3129 15.2697 21.9854 14.9634 22.309 14.7997C23.4158 14.24 25.1724 13.8382 26.6745 13.8403C27.296 13.8412 28.952 14.0529 29.525 14.2557C29.6371 14.2953 29.6781 14.2834 29.7822 14.3329C29.9973 14.4349 30.2294 14.5019 30.4754 14.604L31.3639 15.0032C31.4428 15.0462 31.5066 15.102 31.5695 15.1292L32.2074 15.4701C32.3285 15.5518 32.4516 15.6456 32.5854 15.7248C32.921 15.9236 33.3517 16.3211 33.6792 16.5913C34.067 16.9114 34.915 17.921 35.1756 18.3206C35.4731 18.7767 35.6587 19.0478 35.9124 19.543C36.1934 20.0911 36.2734 20.2881 36.5025 20.8867C36.5673 21.0562 36.5984 21.2114 36.6538 21.3905C36.871 22.0931 37.0742 23.4117 37.0746 24.1842C37.0751 25.5642 36.8264 26.7736 36.421 27.8842C36.329 28.136 36.2307 28.402 36.1073 28.6217C36.0587 28.7084 36.0779 28.7358 36.0318 28.8225C35.9933 28.8947 35.982 28.9062 35.9418 28.9853C35.7503 29.3619 35.6042 29.5847 35.373 29.9522C34.7285 30.9774 33.7817 31.9169 32.8615 32.6254C32.4085 32.9743 30.7373 33.9736 30.1368 34.0656C29.9997 34.031 30.1305 34.0473 30.0383 34.0117C29.9517 33.9782 30.0045 34.0406 29.9193 33.9716C29.8853 32.8409 29.9179 31.6565 29.9179 30.5198V23.616C29.9179 22.9104 29.8869 22.6951 29.5522 22.2601C29.4639 22.1453 29.2258 21.9448 29.0771 21.8791C28.6557 21.6929 28.4953 21.6788 28.0248 21.7541C27.7925 21.7913 27.9081 21.7797 27.7363 21.8579C27.598 21.9208 27.7311 21.8255 27.5201 21.959C27.0915 22.23 26.8483 22.7158 26.8483 23.3004V29.9726C26.8479 30.5206 26.8755 30.2899 26.6883 30.511L25.9822 31.2394C25.6504 31.5419 25.3268 31.861 25.0234 32.1782C24.6972 32.5191 24.3787 32.7811 24.0414 33.1145C23.8752 33.2789 23.7231 33.4308 23.5684 33.5908L23.0852 34.057C22.9255 34.0559 21.7879 33.5278 21.6246 33.4267C21.1782 33.1501 20.749 32.9407 20.3775 32.6098C20.2595 32.5048 20.0601 32.3893 19.7987 32.1546C19.6206 31.9947 19.4225 31.8165 19.2581 31.662C18.8972 31.3231 18.5992 30.93 18.2884 30.5667C18.0836 30.3277 17.8313 29.8988 17.6572 29.616C17.3749 29.1574 17.3448 29.0072 17.1302 28.6038C16.835 28.0484 16.5055 26.9076 16.3695 26.2711C16.2332 25.6331 16.1806 24.9457 16.1778 24.2475V24.2473ZM16.4588 36.0426C16.5138 36.0878 16.4334 36.0054 16.4882 36.0873C16.4897 36.0894 16.5189 36.1325 16.5189 36.1326C16.5785 36.2309 16.4872 36.0836 16.5192 36.176C17.0572 36.2186 17.5703 36.4289 18.0634 36.5128C18.513 36.5891 19.0814 36.7904 19.531 36.9273L20.2148 37.1727C20.4828 37.2558 21.2033 37.6256 21.5181 37.7459C21.9165 37.8981 22.9321 38.5651 23.2832 38.8067C23.9591 39.2718 24.9192 40.2394 25.3761 40.9299C25.5139 41.1384 25.9066 41.6723 25.8943 41.8481C25.9231 41.9502 26.218 42.2305 26.3098 42.3535C26.382 42.4506 26.4329 42.5046 26.5058 42.6215C26.5801 42.7408 26.6705 42.8403 26.7278 42.6245C26.6872 42.5716 26.743 42.5362 26.7848 42.4582C26.8606 42.3165 26.9676 42.0933 27.0558 41.9715C27.1818 41.7975 27.4669 41.3241 27.5773 41.2061C27.6476 41.1311 27.6188 41.1343 27.6756 41.0534L28.1268 40.4919C28.2069 40.4071 28.2826 40.3011 28.3656 40.2248C28.8107 39.8158 28.9098 39.6587 29.4253 39.2397C29.5864 39.1087 29.8112 38.9086 29.9909 38.7941C30.2193 38.6487 30.3641 38.5044 30.5906 38.3827C31.1208 38.0977 31.3031 37.9584 31.9124 37.6561L32.6053 37.3193L34.0944 36.7629C34.5064 36.634 35.3028 36.3948 35.7106 36.3439C35.861 36.3253 35.9575 36.2614 36.1117 36.2429C36.1424 36.2392 36.5267 36.1601 36.5282 36.1593L36.4727 36.1396C36.4915 35.8643 36.8936 35.2536 37.1814 35.0596C37.5022 34.8433 38.0689 34.5971 38.5988 34.7336C39.0849 34.859 39.7211 34.7892 40.1649 34.6198C40.5048 34.4901 40.9319 34.0697 41.071 33.7594C41.1915 33.4907 41.2332 33.436 41.296 33.0743C41.3653 32.6747 41.3305 32.2333 41.2572 31.8389L41.088 31.123C41.0726 31.0462 41.0839 30.9844 41.0585 30.9123C41.0293 30.8295 41.0253 30.8894 41.0149 30.753C40.9289 29.6213 40.4826 28.5639 41.3752 27.8936C41.6972 27.6518 42.0712 27.3842 42.4259 27.1558C43.1433 26.6941 44.0629 26.0221 43.8458 25.0191C43.8208 24.9035 43.8132 24.7423 43.7679 24.6516C43.6125 24.3402 43.4765 24.1159 43.2426 23.8541C42.706 23.254 41.1345 21.5602 41.022 20.698C40.9567 20.1985 41.1257 19.5813 41.2723 19.2074C41.3221 19.0806 41.3306 18.9921 41.3926 18.8633C41.473 18.6959 41.7321 18.0358 41.7581 17.8952C41.9227 17.0037 41.791 16.4531 41.0883 15.9822C40.8324 15.8108 40.0938 15.5982 39.7643 15.5268C39.6425 15.5005 39.5549 15.4408 39.4417 15.4129C39.3055 15.3794 39.2242 15.3485 39.1078 15.302C38.2735 14.969 38.0195 14.9196 37.2801 14.4329C37.0083 14.2541 36.9685 14.3341 36.8072 14.0185C36.6254 13.6632 36.4858 13.0484 36.4683 12.5659C36.458 12.2857 36.4201 12.0403 36.4057 11.7451C36.3927 11.4771 36.38 11.19 36.3191 10.9493C36.2088 10.5133 35.8433 10.1866 35.4345 10.0454C35.026 9.9041 34.2986 9.85548 33.8016 9.94957C33.5248 10.002 33.2883 9.98951 33.0106 10.0655C32.9137 10.092 32.7353 10.1195 32.6339 10.1381C32.5385 10.1556 32.3947 10.2061 32.2945 10.2347L31.6014 10.4272C31.3776 10.4677 31.0295 10.5405 30.7876 10.4664C30.6407 10.4213 30.5593 10.4361 30.42 10.3721C30.3234 10.3277 30.2028 10.2988 30.1066 10.2388C29.471 9.84103 29.7668 9.65549 28.9179 8.77262L28.486 8.29814C28.1792 7.99276 27.7717 7.71249 27.2876 7.7096C26.9478 7.7075 26.7409 7.69882 26.4781 7.8021C26.0382 7.97489 25.6684 8.19013 25.3596 8.47539C25.2043 8.61875 25.018 8.73241 24.8607 8.8847C24.7843 8.95868 24.7015 8.99823 24.6156 9.08154C24.323 9.36523 23.7554 9.82815 23.4059 10.1058C23.0748 10.3686 22.2346 10.5644 21.7645 10.3718C21.688 10.3403 21.6893 10.323 21.6057 10.3083C21.442 10.2795 21.4149 10.2237 21.2998 10.1614C20.9652 9.98018 20.8164 9.87335 20.4192 9.69268C20.3245 9.64971 20.1942 9.62777 20.0775 9.58717C19.6072 9.4237 19.0611 9.345 18.5764 9.52593C18.0576 9.71949 17.6416 10.6137 17.5123 11.1103C17.4563 11.3257 17.3393 11.5227 17.2892 11.7905C17.2639 11.9253 17.2255 12.0148 17.188 12.1357L17.0725 12.4568C17.0347 12.5828 17.0132 12.7013 16.9775 12.8298C16.8964 13.1208 16.7479 13.5359 16.6075 13.7884C15.9406 14.9873 15.1384 14.8408 14.0924 14.8487C13.5389 14.8529 12.9958 14.9293 12.5591 15.1038C12.3561 15.1849 12.2028 15.3556 12.1079 15.5339C11.9397 15.8499 11.9905 15.8462 11.9277 16.2407C11.8757 16.567 11.9072 17.6307 12.0134 17.8814C12.0665 18.0065 12.1165 18.4498 12.1524 18.6238C12.2008 18.8578 12.263 19.1177 12.3215 19.3341C12.372 19.521 12.3652 19.9811 12.3569 20.2074C12.3459 20.5069 12.2687 20.6824 12.1818 20.9104C11.7192 22.1228 10.1183 22.6366 9.54341 23.6284C9.09093 24.4088 9.67165 25.001 10.0329 25.5154L11.1915 27.035C11.3411 27.2001 11.4613 27.3634 11.5836 27.5265C11.711 27.6963 11.8378 27.8538 11.9622 28.0341C12.2442 28.4427 12.2678 28.9175 12.1062 29.4655C11.9905 29.8583 11.7748 30.4421 11.6139 30.7664C11.468 31.0606 11.435 31.0868 11.3604 31.417C11.3071 31.6531 11.3001 31.9864 11.356 32.2443C11.4113 32.5001 11.526 32.6536 11.6459 32.8349C11.6942 32.9077 11.9882 33.2216 12.0757 33.2866C12.612 33.6856 13.22 33.9634 13.9152 34.1267C14.3043 34.2181 14.903 34.4055 15.2037 34.6323C15.3657 34.7546 15.5797 34.8725 15.7007 35.0177C15.8267 35.1689 15.9941 35.3212 16.1184 35.4863C16.2345 35.6403 16.4429 36.0263 16.4601 36.043L16.4588 36.0426ZM16.9626 24.2684C16.9636 24.8952 17.0158 25.4852 17.1334 26.0535C17.1859 26.3067 17.2275 26.5707 17.2971 26.8245C17.4981 27.5579 18.0138 28.8038 18.4634 29.4005C18.6052 29.5888 18.8267 30.0116 19.0365 30.2417C19.1153 30.3283 19.1754 30.4206 19.2459 30.4948C19.3412 30.5953 19.3908 30.6249 19.4725 30.7313C19.701 31.0289 20.3868 31.6555 20.6909 31.8745C21.0299 32.1189 21.435 32.4011 21.8136 32.6278C21.988 32.7323 22.9687 33.2192 23.1064 33.2148C23.1962 33.1555 23.5555 32.7659 23.6899 32.616C23.771 32.5256 23.9004 32.3897 23.9799 32.3184C24.0944 32.2155 24.1634 32.106 24.2833 32.0105C24.4479 31.8795 24.7057 31.587 24.8819 31.4054C24.9668 31.3179 25.1059 31.1849 25.1839 31.1165L26.0668 30.1876C26.2172 30.0329 26.1664 29.9607 26.1665 29.6986L26.1666 24.3105C26.1666 23.3903 26.2829 22.8338 25.8019 22.2763C24.8895 21.2181 23.1564 21.8159 23.1564 23.3212L23.1498 30.7282C23.1271 30.8157 23.1419 30.7354 23.0873 30.8698L23.043 30.9546C22.9265 30.9396 22.7183 30.7839 22.6169 30.7156C22.5142 30.6464 22.2881 30.5475 22.1847 30.4688C21.9294 30.2743 21.6936 30.0938 21.4602 29.8667C20.8844 29.3066 20.9372 29.3649 20.5226 28.8222C20.0477 28.2006 19.8729 27.8416 19.563 27.1253L19.2264 26.1396C19.0385 25.3065 18.9943 25.1491 18.9958 24.2051C18.9979 22.9052 19.3333 21.8348 19.8365 20.8204C20.0643 20.3609 20.1109 20.3446 20.3804 19.9325C20.7423 19.3788 20.9164 19.2961 21.2493 18.9034C21.5388 18.562 21.9134 18.2965 22.2658 18.0421C22.6488 17.7656 23.0186 17.5648 23.4848 17.3596C23.983 17.1401 24.3566 17.0316 24.89 16.8725C25.208 16.7775 26.2436 16.6854 26.6112 16.685C29.0983 16.6826 31.2489 17.904 32.461 19.4036C32.6076 19.585 32.734 19.7656 32.8776 19.9363C33.1627 20.2751 33.3637 20.7528 33.5555 21.1579C33.9627 22.0185 34.2348 23.1083 34.2358 24.2895C34.2374 25.8938 33.7444 27.1294 33.1309 28.2237C32.6371 29.1047 31.4631 30.2822 30.5997 30.7488C30.5779 31.4405 30.5933 32.2817 30.5956 33.0053C30.6948 33.0062 31.0536 32.7946 31.2064 32.726C31.4155 32.6321 32.1324 32.1941 32.3098 32.0542C32.4091 31.9759 32.4487 31.9373 32.5598 31.8606C32.8784 31.6407 33.4699 31.0408 33.7274 30.7738C34.0406 30.4487 34.6654 29.639 34.8808 29.2514C35.3632 28.3829 35.5188 28.0032 35.8525 27.0838L36.0409 26.3899C36.0742 26.2644 36.0751 26.123 36.1092 25.9886C36.233 25.4996 36.2487 24.7683 36.249 24.2054C36.2491 22.5212 35.902 21.5217 35.3919 20.2732C35.2743 19.9855 34.7555 19.0228 34.5328 18.7498C34.1307 18.2569 33.9253 17.941 33.4225 17.4571C33.2113 17.2538 33.0225 17.0761 32.8051 16.8939L32.1291 16.3684C31.9066 16.1964 31.6248 16.0691 31.3909 15.9054C31.2752 15.8243 31.1157 15.7779 30.9932 15.7089C29.6561 14.9556 27.709 14.5342 25.9772 14.6727C25.8829 14.6803 25.776 14.6719 25.6851 14.6821C25.6111 14.6903 25.5305 14.72 25.4468 14.729C25.214 14.7538 25.1284 14.7631 24.9262 14.8003C24.7988 14.8238 24.4892 14.8422 24.3794 14.8751C23.8762 15.0255 23.0604 15.3008 22.6151 15.5095L21.452 16.1373C20.7622 16.5859 20.3974 16.9187 19.7871 17.4856C19.3383 17.9025 19.0499 18.3233 18.6947 18.7971C18.3378 19.2734 18.058 19.7461 17.8243 20.333C17.7689 20.4719 17.6855 20.5929 17.6395 20.7333C17.5997 20.8545 17.5292 21.0464 17.4745 21.18C17.3405 21.5068 17.3148 21.7746 17.2052 22.108C17.1634 22.2352 17.143 22.4773 17.1196 22.6204C17.0117 23.2735 16.9614 23.5396 16.9627 24.2683L16.9626 24.2684Z" fill="#FD3001"/>
<path fill-rule="evenodd" clip-rule="evenodd" d="M50.2297 24.5841L50.229 25.3207C50.2267 26.0766 50.18 26.7686 50.1132 27.4986C50.095 27.6967 50.0645 28.0087 50.0247 28.1661C49.9752 28.3628 49.9656 28.6112 49.926 28.8254C49.906 28.934 49.8867 29.0189 49.856 29.1261C49.8239 29.2388 49.8422 29.3653 49.8145 29.4751C49.7142 29.8728 49.6453 30.3279 49.5289 30.7015C49.4664 30.9017 49.4051 31.0783 49.3678 31.2956C49.317 31.5919 49.199 31.8808 49.1025 32.1695C49.0729 32.2581 49.0503 32.3812 49.0149 32.4629C48.9498 32.6124 48.8546 32.8616 48.8097 33.0132C48.7303 33.2815 48.2973 34.3112 48.1518 34.6332C48.0679 34.819 47.9616 34.9503 47.8741 35.1306L47.7301 35.1063C47.7634 35.1936 48.7493 36.5465 48.9328 36.8896L49.2764 37.4524C49.4332 37.6946 49.8802 38.6372 49.9834 38.8774C50.38 39.8013 50.7427 40.7412 50.741 41.8435C50.74 42.433 50.7392 42.1861 49.2424 41.5903L48.1321 41.1576C48.0296 41.1183 47.8769 41.0309 47.7754 40.999C47.2482 40.8334 46.7491 40.6287 46.2154 40.4845C45.7388 40.3557 45.0098 40.1009 44.5771 40.0327C44.2903 39.9875 44.0153 39.9127 43.7268 39.847C43.5944 39.8168 43.4322 39.7742 43.3166 39.7535C42.7322 39.6489 41.6072 39.4271 41.0728 39.4063C40.779 39.3949 40.4146 39.3267 40.142 39.3042C38.9391 39.2055 37.7575 39.1862 36.555 39.186C34.0217 39.1854 31.9972 39.5166 30.0176 40.4597C29.812 40.5578 29.6059 40.6212 29.4275 40.7378C29.0776 40.9663 28.6871 41.1731 28.3507 41.4087C27.997 41.6564 27.6916 41.8627 27.371 42.1591L26.4844 43.0294C26.3298 42.9469 26.0212 42.5097 25.8462 42.3544C25.1297 41.719 24.4428 41.1029 23.5574 40.703C23.4333 40.6469 23.3724 40.6409 23.2593 40.5752C23.1909 40.5356 23.0177 40.4659 22.9559 40.439C22.5699 40.2709 22.0806 40.0658 21.6692 39.9692C21.306 39.8838 20.6678 39.6234 20.32 39.5757C20.0993 39.5453 19.8127 39.4329 19.601 39.4109C19.3294 39.3827 19.1023 39.32 18.8396 39.2961C18.6781 39.2814 18.553 39.2532 18.4426 39.2429C18.255 39.2251 18.2208 39.2589 18.0464 39.2019C17.9324 39.1647 17.754 39.1815 17.617 39.1787C17.4115 39.1745 17.3833 39.1542 17.2322 39.1312C16.9238 39.084 14.9923 39.122 14.6613 39.1284C14.1975 39.1373 12.2106 39.2919 11.798 39.3715C11.5373 39.4218 11.1615 39.4406 10.8961 39.5047C10.6209 39.5712 10.2637 39.58 10.0211 39.6614C9.76127 39.7485 9.40435 39.7373 9.15748 39.8332C9.06865 39.8678 9.01883 39.8477 8.93948 39.8734L8.32041 40.0344C8.19124 40.064 8.08922 40.1202 7.94819 40.1541C7.84961 40.1779 7.62725 40.2305 7.53671 40.2774L6.72375 40.4985C6.2109 40.6625 5.67499 40.8346 5.17638 41.0171C4.6414 41.2128 4.19169 41.3928 3.68135 41.5902C3.47534 41.6698 3.14478 41.7981 2.95775 41.9026C2.87959 41.9465 2.30401 42.2171 2.29953 42.212L2.24417 41.781C2.20252 41.1928 2.45387 40.2529 2.60689 39.7765C2.64287 39.6646 2.88763 38.9925 2.93258 38.9271L3.51369 37.7813C3.58144 37.6445 3.65169 37.5383 3.72893 37.408C3.89012 37.1355 4.01916 36.9223 4.17112 36.6678C4.32006 36.4184 4.47915 36.1873 4.63797 35.9538L5.12656 35.2655C5.05789 35.1998 5.03773 35.3006 4.89999 35.1147C4.42168 34.4698 4.25983 33.9274 3.97658 33.1926C3.67001 32.3972 3.43171 31.6195 3.20238 30.7199C3.09364 30.293 2.99386 29.849 2.90318 29.4009L2.61599 27.6797C2.60821 27.3198 2.51727 26.9466 2.50962 26.5632C2.47364 24.7513 2.47311 22.9736 2.74107 21.1805C2.76993 20.9877 2.83544 20.7514 2.84519 20.5423C2.85455 20.3409 3.03275 19.5483 3.09983 19.3266L3.41392 18.168C3.4959 17.743 3.98317 16.464 4.17824 15.9882C4.42392 15.3886 4.80233 14.4956 5.10811 13.9424C5.29448 13.605 5.44394 13.3359 5.62596 12.9853C5.7633 12.7207 6.55939 11.482 6.78649 11.1763C7.17069 10.6589 7.63872 9.95824 8.08329 9.52134L8.4186 9.12228C8.82402 8.57421 10.0996 7.33761 10.6479 6.90136C10.7767 6.79887 10.9057 6.65552 11.0462 6.5613L11.8651 5.90562C12.1397 5.68999 12.4282 5.49749 12.7365 5.27924C13.8541 4.48821 15.1793 3.71834 16.5212 3.13546C16.8206 3.00537 17.3173 2.82272 17.5606 2.69881C17.898 2.52694 18.7768 2.24798 19.1919 2.1154C19.3817 2.05469 19.5932 2.01777 19.765 1.95063C20.1851 1.78651 20.7851 1.68835 21.234 1.5676C21.3453 1.53764 21.4399 1.53606 21.5562 1.50702C21.6356 1.48718 21.7694 1.44763 21.8323 1.4316L22.8125 1.28653C23.8599 1.0914 25.4234 1.02176 26.5056 1.02452C27.3302 1.02662 28.4737 1.06736 29.2877 1.20178C29.467 1.23148 29.7451 1.28193 29.9267 1.29718L31.5016 1.56917C31.7875 1.65064 32.1104 1.6894 32.3993 1.78808C32.5927 1.85405 32.7959 1.88059 32.9899 1.94011C33.3683 2.05614 33.7165 2.20252 34.087 2.30882C34.28 2.36414 34.4876 2.42603 34.6476 2.49265C34.7255 2.5251 34.8403 2.56295 34.9128 2.58936L35.4167 2.81445C35.6834 2.92784 35.9672 3.02363 36.2278 3.14702C36.6966 3.36908 37.7447 3.85815 38.1821 4.14539C38.3431 4.25104 38.492 4.30399 38.6498 4.41437C39.0866 4.72026 39.5662 4.96138 39.9914 5.28883L40.6417 5.73703C40.7817 5.82363 41.4744 6.41164 41.6698 6.56183C42.214 6.98047 42.7005 7.49017 43.2071 7.95519C43.6922 8.40037 44.8906 9.7593 45.2893 10.2973C45.482 10.5572 45.6862 10.8708 45.9116 11.1515C46.3104 11.6482 46.987 12.8134 47.3308 13.419C47.5397 13.7871 47.8706 14.5185 48.0733 14.9132C48.2206 15.1998 48.4156 15.6209 48.5167 15.9498C48.5682 16.1177 48.6677 16.2782 48.731 16.4641C48.7635 16.5598 48.7838 16.6357 48.8181 16.7413C48.8417 16.814 48.9005 16.8999 48.9306 16.9981C49.058 17.4116 49.6392 19.2442 49.6723 19.5545C49.6832 19.6578 49.7083 19.7684 49.7299 19.8873C49.8389 20.4916 49.9936 21.1541 50.0522 21.7851C50.1391 22.7215 50.2294 23.5867 50.2297 24.5845V24.5841ZM27.4218 0H25.3548C25.2265 0.0880377 24.5918 0.0374489 24.4246 0.0624148C24.1685 0.100521 23.9133 0.0813363 23.7441 0.104463C23.6617 0.115632 23.6649 0.147824 23.5509 0.158599C23.3773 0.175156 23.2587 0.207743 23.1286 0.217335C22.6476 0.25255 21.5588 0.475403 21.0396 0.572639C20.9196 0.595108 20.7999 0.648851 20.6581 0.671714C20.2442 0.738465 19.9097 0.866448 19.4846 0.96237C19.3098 1.00179 17.8184 1.47667 17.6412 1.56287C17.5264 1.61858 17.4231 1.658 17.2846 1.69663C17.0343 1.76653 16.1731 2.18044 15.9241 2.29056C15.3403 2.54889 14.8288 2.83113 14.2911 3.10747L13.3661 3.65645C13.2087 3.7667 12.9695 3.90086 12.7935 4.01176C12.0918 4.45339 11.1828 5.12616 10.5406 5.65872C10.3611 5.8076 10.1916 5.97316 10.022 6.1085C9.68258 6.37905 9.32263 6.722 8.99392 7.04223C8.82178 7.21002 8.66586 7.36534 8.50849 7.5267C8.36601 7.67281 8.14168 7.88108 8.03769 8.02549C7.91551 8.19499 7.71345 8.37843 7.57427 8.53138C7.41558 8.70574 7.27864 8.89233 7.12469 9.07274C6.52196 9.77954 6.00964 10.5413 5.45673 11.3234C5.28802 11.5621 4.5063 12.9167 4.38069 13.157L3.5734 14.7906C3.45675 15.1204 3.2634 15.4781 3.14293 15.8126L2.40682 18.0079C2.32681 18.276 2.2675 18.5063 2.21043 18.7874L2.0176 19.5791C1.94841 19.7885 1.89924 20.1555 1.86115 20.3931C1.82056 20.6465 1.74635 20.9486 1.71222 21.234C1.6421 21.821 1.55853 22.3846 1.5269 23.006C1.51188 23.3029 1.47972 23.5932 1.47708 23.9317C1.46983 24.8926 1.49065 25.876 1.52993 26.8159C1.53705 26.985 1.57488 27.0962 1.58279 27.2357C1.60045 27.5444 1.62022 27.829 1.66846 28.1258C1.69179 28.2689 1.68902 28.4623 1.71564 28.5942C1.76401 28.8333 1.81094 29.1582 1.86919 29.4009C1.96027 29.7809 2.02604 30.2383 2.13807 30.6011C2.17352 30.7162 2.19593 30.8721 2.22717 30.9979C2.35146 31.4983 2.52531 32.0267 2.66409 32.4997C2.73672 32.7474 2.82779 32.9978 2.91531 33.2395C3.08771 33.7151 3.28146 34.1656 3.4698 34.6441C3.67014 35.1532 3.82897 35.4821 4.1391 35.9292C3.66685 36.3441 2.94852 37.1641 2.60716 37.6762C2.27383 38.1762 1.96976 38.6991 1.70233 39.2414C1.57343 39.503 1.27661 40.0879 1.18382 40.3574C1.1108 40.5697 1.04872 40.7741 0.96608 40.9662L0.75546 41.581C0.616144 42.0061 0.480124 42.413 0.392607 42.864C0.327101 43.2011 0.198594 43.5231 0.169465 43.8644C0.158262 43.9961 0.11938 44.0585 0.0993461 44.2058C0.0634958 44.4693 -0.00570058 44.6607 9.87395e-05 44.9695C0.094733 44.9569 0.282947 44.8015 0.336723 44.7595C0.447964 44.6728 0.554592 44.6221 0.66702 44.5411C0.861824 44.4007 1.11963 44.2739 1.34567 44.1438C2.28635 43.602 3.28686 43.2018 4.30398 42.8018C4.72865 42.6349 5.46938 42.3695 5.89392 42.2418C6.18046 42.1556 6.43787 42.0794 6.72375 41.9903C6.85318 41.95 6.99407 41.8903 7.11151 41.858C7.24397 41.8217 7.41637 41.748 7.52669 41.7316C7.83695 41.6853 8.08751 41.5623 8.38341 41.5056C8.68128 41.4485 8.95095 41.3479 9.25212 41.2893C9.5123 41.2387 9.85867 41.1481 10.1055 41.0739C10.2366 41.0345 10.4092 41.0181 10.558 40.989C10.6913 40.963 10.8498 40.9074 10.9882 40.8789L13.7316 40.3653C13.8382 40.3567 14.079 40.3149 14.1772 40.2902C14.3201 40.2542 14.5051 40.2604 14.6602 40.2273L15.6539 40.1461C16.7794 40.0971 17.617 40.0843 18.7445 40.1948C19.2877 40.2481 20.1233 40.3245 20.6154 40.4737C20.8866 40.5561 21.2151 40.5971 21.4951 40.6746C21.6068 40.7055 21.7518 40.7675 21.8804 40.8069C22.0073 40.8458 22.1847 40.9022 22.3086 40.9319C22.6311 41.0094 23.5567 41.3865 23.8576 41.5378C24.3369 41.7789 24.8007 42.0189 25.2386 42.306C25.5444 42.5067 25.89 42.7586 26.1737 42.9952C26.2703 43.0758 26.3793 43.1912 26.484 43.2459C26.6089 43.1872 26.9586 42.8642 27.087 42.7607C28.129 41.9209 29.3817 41.3782 30.6375 40.9333C30.8762 40.8488 31.2228 40.7784 31.4595 40.6805C31.6625 40.5965 32.1091 40.5312 32.3504 40.4742C32.5989 40.4155 33.5542 40.293 33.7098 40.2331C33.8578 40.1763 34.0294 40.2025 34.2124 40.1922C34.3894 40.1824 34.4855 40.1502 34.697 40.1468C34.88 40.1439 35.0487 40.1284 35.21 40.1123C35.5286 40.0808 35.9718 40.1012 36.3016 40.103C36.9686 40.1068 37.6727 40.1699 38.3099 40.2414C39.1148 40.3318 39.8841 40.4511 40.6486 40.6018C40.7797 40.6277 40.9478 40.6742 41.0935 40.7022C41.2274 40.7279 41.4063 40.7482 41.5469 40.7833C41.9642 40.8873 42.4702 40.9667 42.8723 41.0818C43.1564 41.1633 43.4503 41.217 43.7463 41.2872C43.8788 41.3186 43.9664 41.3644 44.1506 41.4018C44.4372 41.46 44.7023 41.5661 44.9962 41.6304C45.4243 41.7241 46.2042 41.9836 46.6824 42.1225L47.0833 42.2632C47.3768 42.341 47.6328 42.4469 47.8946 42.5314C48.1455 42.6122 48.4394 42.7457 48.6922 42.8134C49.2837 42.9718 51.195 43.8817 51.6729 44.1581L53.0002 45C52.9853 44.5322 52.5473 42.5922 52.4104 42.2202C52.3338 42.0118 52.274 41.7953 52.2053 41.5861L51.7548 40.3533C51.6819 40.1515 51.5732 39.9491 51.4908 39.7536C51.1485 38.9417 50.7448 38.2775 50.2835 37.5867C50.0887 37.295 49.8052 36.8963 49.5423 36.6427C49.397 36.5025 49.2807 36.3423 49.1382 36.2029C48.5653 35.6422 48.6465 35.9526 48.8658 35.4656C49.0178 35.1282 49.1891 34.8334 49.3301 34.4836C49.4422 34.2058 50.3002 31.9332 50.3456 31.6315C50.368 31.4827 50.3948 31.3546 50.4402 31.231L50.6296 30.4524C50.6429 30.3643 50.6824 30.1039 50.7039 30.0327C50.8562 29.5297 50.9039 28.9523 51.0116 28.4084C51.0651 28.1385 51.0552 27.7827 51.1121 27.5379C51.2111 27.1135 51.2564 25.2434 51.256 24.7737C51.2555 24.1399 51.2487 23.4748 51.1803 22.8916C51.146 22.5994 51.1688 22.2614 51.1064 21.9863C51.0756 21.8502 51.0765 21.7157 51.0428 21.5717L50.8505 20.3099C50.8178 20.0284 50.7147 19.7558 50.6839 19.5115C50.6204 19.009 50.4111 18.4273 50.2891 17.969C50.2513 17.8266 50.2223 17.7099 50.1838 17.5818C50.1436 17.4484 50.0838 17.3472 50.0586 17.2351C49.9324 16.6739 49.3802 15.3247 49.109 14.7671C49.0543 14.6545 49.0178 14.5432 48.9641 14.4261C48.6135 13.6606 48.0592 12.5911 47.6101 11.9015L47.234 11.2849C46.7013 10.4949 46.1679 9.76601 45.5843 9.05763L44.674 8.02904C44.3509 7.69134 44.0754 7.38255 43.7123 7.0304C43.1046 6.44134 42.3329 5.74505 41.6312 5.2318C41.4319 5.08608 41.2614 4.956 41.0821 4.81106C40.9803 4.72894 40.8886 4.68899 40.7932 4.61554C40.7034 4.54642 40.6306 4.45825 40.5239 4.40556C40.335 4.3124 40.1105 4.12555 39.9372 4.01938C37.918 2.78199 36.3862 1.99005 34.0218 1.20388C33.7662 1.11887 33.5209 1.06053 33.2801 0.97551C33.1591 0.932936 33.002 0.922162 32.8796 0.882216C32.7216 0.830576 32.2908 0.691293 32.1226 0.676313C31.9605 0.661728 31.8608 0.631506 31.7131 0.594189C31.3412 0.500107 30.8268 0.461606 30.4958 0.357538C30.3764 0.320089 30.2091 0.327316 30.0777 0.290918C29.9521 0.256098 28.1547 0.0538738 27.8993 0.0507202C27.8113 0.049669 27.7345 0.0436246 27.6607 0.0388943C27.6238 0.0365291 27.5732 0.0382373 27.5405 0.0348209L27.4223 0.000394199L27.4218 0Z" fill="#242321"/>
<path fill-rule="evenodd" clip-rule="evenodd" d="M36.5279 36.1592C36.5264 36.1599 36.1421 36.239 36.1114 36.2427C35.9573 36.2613 35.8607 36.3251 35.7103 36.3438C35.3024 36.3946 34.5062 36.6339 34.0941 36.7628L32.605 37.3192L31.9121 37.6559C31.3028 37.9583 31.1205 38.0974 30.5903 38.3826C30.3639 38.5042 30.219 38.6485 29.9906 38.794C29.8109 38.9084 29.5862 39.1084 29.425 39.2396C28.9095 39.6587 28.8104 39.8157 28.3653 40.2247C28.2823 40.301 28.2066 40.4069 28.1265 40.4918L27.6753 41.0533C27.6185 41.1342 27.6473 41.1309 27.577 41.2059C27.4666 41.3239 27.1815 41.7974 27.0555 41.9714C26.9673 42.0932 26.8603 42.3163 26.7845 42.4581C26.7427 42.536 26.6871 42.5715 26.7276 42.6244C26.7451 42.6159 27.0883 42.2094 27.1707 42.128C27.319 41.9816 27.4662 41.8022 27.6212 41.6513C27.9189 41.3611 28.2849 40.9954 28.6059 40.7782C28.7696 40.6673 28.9338 40.4992 29.1196 40.3679C29.3002 40.2404 29.4712 40.1052 29.6625 39.9828C31.3106 38.9279 32.3114 38.5558 34.2688 38.0712C34.6775 37.97 34.9698 37.9605 35.2408 37.886C35.3082 37.8676 35.3763 37.8789 35.4526 37.8646C35.7928 37.8009 36.3523 37.7407 36.6677 37.6911C37.5069 37.5592 39.3859 37.5621 40.2243 37.6733C40.9505 37.7695 41.5523 37.8049 42.2909 37.9378C42.9264 38.052 44.4314 38.4008 44.913 38.5665C45.0513 38.6142 45.0828 38.6471 45.2498 38.6824C45.6675 38.771 47.1695 39.3727 47.6293 39.5614C47.8521 39.6528 48.7878 40.1404 48.9082 40.1442C48.8866 39.7879 48.6653 38.7747 48.5438 38.3756L48.2948 37.5714C48.1803 37.1997 48.0122 36.7988 47.8517 36.4363L47.3589 35.3434C47.2478 35.1373 47.1172 34.8859 46.9916 34.659C46.2475 33.315 45.8092 32.7388 44.8738 31.5077L43.8917 30.3811C43.7729 30.2751 43.7534 30.2116 43.6452 30.1023C43.4863 29.9419 42.9618 29.3612 42.8391 29.3148C42.8479 29.4586 43.1594 29.9066 43.2349 30.0483C43.4165 30.389 43.8564 31.1599 44.0054 31.5087C44.1144 31.7637 44.254 32.0165 44.3489 32.2597C44.4525 32.5254 44.5528 32.8183 44.6601 33.0679C44.9199 33.6722 45.2901 35.2969 44.9904 35.8338C44.7528 35.8518 44.2333 35.7618 43.9652 35.7404C43.603 35.7113 43.2176 35.7111 42.8466 35.7071C42.0996 35.6991 41.3819 35.7002 40.6298 35.7103C40.2576 35.7153 39.8573 35.715 39.5301 35.7605C39.1919 35.8074 38.8114 35.7915 38.4969 35.8625C38.3446 35.8969 38.1198 35.8811 37.9662 35.9102C37.4593 36.0058 36.9672 36.0613 36.5277 36.1594L36.5279 36.1592Z" fill="#242321"/>
<path fill-rule="evenodd" clip-rule="evenodd" d="M25.8942 41.8478C25.9064 41.672 25.5138 41.1382 25.3759 40.9296C24.9192 40.2391 23.9589 39.2715 23.283 38.8065C22.9319 38.5648 21.9164 37.8978 21.5179 37.7457C21.2032 37.6253 20.4828 37.2556 20.2147 37.1724L19.5309 36.9271C19.0813 36.7901 18.5128 36.589 18.0632 36.5125C17.5702 36.4287 17.0571 36.2183 16.5191 36.1757C16.487 36.0835 16.5784 36.2306 16.5188 36.1324C16.5187 36.1322 16.4894 36.0891 16.4881 36.087C16.4332 36.0052 16.5136 36.0875 16.4587 36.0423L16.4848 36.1647C16.2673 36.1038 15.7475 36.0259 15.5031 36.0025C15.1624 35.9701 14.8028 35.9028 14.4704 35.8872L13.4202 35.7937C13.1217 35.7466 12.6997 35.7545 12.3717 35.7288C11.6835 35.6751 10.8053 35.7106 10.1009 35.7183C9.73293 35.7223 9.33673 35.7121 8.9972 35.7583C8.75429 35.7914 8.19953 35.8471 7.97837 35.8332C7.88004 35.6382 7.89138 35.0549 7.90588 34.77C7.92038 34.4846 8.04058 34.1085 8.07867 33.823C8.11755 33.5326 8.53431 32.4477 8.67495 32.1705L9.41172 30.653C9.54577 30.3847 9.68271 30.152 9.82058 29.9258C9.91666 29.7682 10.1763 29.3603 10.2231 29.2185C9.92852 29.3394 8.08078 31.528 7.69447 32.0347C7.53999 32.2375 7.40542 32.4365 7.25332 32.6479C7.10465 32.8546 6.97258 33.0807 6.82299 33.2933C6.38843 33.9107 5.99896 34.6612 5.69318 35.3691C5.43669 35.9625 5.31095 36.1852 5.06158 36.8583C4.93795 37.1922 4.0898 39.6702 4.08755 40.1357C4.17059 40.1411 5.47372 39.4497 5.91342 39.2858C6.09544 39.218 6.35522 39.0987 6.53091 39.0222L7.1832 38.7697C7.54052 38.6359 8.89123 38.2202 9.22865 38.1608C9.49397 38.114 9.75652 38.0698 9.99482 38.0114C10.6089 37.8607 11.7543 37.8043 12.4068 37.762C13.5018 37.6909 14.6717 37.5827 15.8214 37.6729C16.9718 37.763 18.6569 37.9465 19.7039 38.2676C19.8156 38.3019 19.9439 38.3202 20.0631 38.3573C20.1246 38.3765 20.1896 38.3815 20.2497 38.4045L21.0521 38.6944C21.1238 38.7204 21.3151 38.7787 21.3795 38.8101C21.4862 38.8622 21.5736 38.9059 21.6852 38.9486C22.5046 39.2618 23.288 39.7671 23.9853 40.2106L24.4907 40.5896C24.6455 40.7221 24.803 40.8417 24.978 40.9865C25.1387 41.1192 25.3001 41.2548 25.4499 41.4012C25.5489 41.4981 25.8208 41.8067 25.8942 41.8476V41.8478Z" fill="#242321"/>
<path fill-rule="evenodd" clip-rule="evenodd" d="M46.175 30.2249C46.2354 30.1479 47.1086 29.9089 47.2776 29.8697C47.4613 29.8272 47.6558 29.7507 47.8474 29.7016C47.9546 29.6741 47.9801 29.6075 48.0012 29.4862C48.0117 29.425 48.0547 29.1867 48.0553 29.1725C47.9814 29.1213 47.841 29.0969 47.7527 29.0761C47.6831 29.0597 47.5542 29.0284 47.4695 29.0037C47.118 28.9011 46.654 28.823 46.2875 28.7134C46.1653 28.6769 46.0879 28.6958 45.9692 28.6473C45.8857 28.6132 45.7972 28.5794 45.6697 28.586L45.5834 29.0481L47.223 29.441C47.1549 29.5305 46.4728 29.6979 46.3182 29.7473C46.1418 29.8036 45.5249 29.9859 45.3659 30.0026C45.303 30.1287 45.2101 30.3546 45.2367 30.5405C45.3353 30.588 45.6934 30.6495 45.8367 30.6768C46.1072 30.7287 47.5027 31.1263 47.6068 31.0537C47.6685 30.9978 47.7083 30.7506 47.7084 30.6457C47.593 30.5713 46.2835 30.2938 46.2407 30.275C46.1781 30.2476 46.2007 30.2848 46.1748 30.2247L46.175 30.2249Z" fill="#242321"/>
<path fill-rule="evenodd" clip-rule="evenodd" d="M43.9738 15.4493C44.0642 15.3725 45.2955 14.7366 45.4035 14.7341C45.7426 15.326 45.9249 15.6076 45.194 16.0013C44.9751 16.1193 44.6593 16.2285 44.3744 16.0766C44.2295 15.9993 44.2092 15.9204 44.1416 15.801C44.1076 15.7413 43.9825 15.5121 43.9738 15.4493ZM43.3778 15.1787C43.3815 15.3204 43.9132 16.3046 44.0242 16.4231C44.0657 16.4674 44.2465 16.5852 44.3177 16.6067C45.2114 16.8742 46.373 16.0655 46.1519 15.335C46.0314 14.9374 45.7441 14.383 45.5491 14.0677L43.9131 14.8928C43.7637 14.9815 43.4989 15.0961 43.3779 15.1787H43.3778Z" fill="#242321"/>
<path fill-rule="evenodd" clip-rule="evenodd" d="M46.7659 26.7203C47.1804 26.6172 47.7575 26.8139 47.8812 27.1223C48.0634 27.576 47.808 27.9592 47.3705 28.0228C46.1127 28.2057 45.8129 26.9576 46.7659 26.7203ZM45.8006 27.636C45.8835 28.0406 46.1277 28.187 46.1575 28.225C46.337 28.4549 46.9976 28.6071 47.3402 28.5574C48.6673 28.3652 48.5899 26.7546 47.8375 26.3847C46.6174 25.7848 45.5805 26.5624 45.8007 27.636H45.8006Z" fill="#242321"/>
<path fill-rule="evenodd" clip-rule="evenodd" d="M44.4065 14.0369C44.3504 13.968 44.2286 13.7637 44.1778 13.6791C44.0197 13.4156 43.6817 13.0929 43.8143 12.9847C43.8642 12.9441 44.1362 12.7842 44.1868 12.7683L44.8945 13.8108C44.9872 13.8002 45.1649 13.6907 45.2186 13.618C45.232 13.4619 45.074 13.305 45.0019 13.1955C44.8827 13.0148 44.3137 12.1292 44.2526 12.0967L42.2058 13.4575L43.2204 14.9703C43.3474 14.9733 43.5493 14.8398 43.5966 14.7473L42.8509 13.6308L43.3878 13.2797L44.0565 14.2878L44.4065 14.0366V14.0369Z" fill="#242321"/>
<path fill-rule="evenodd" clip-rule="evenodd" d="M47.2069 17.7304C46.9867 17.7467 46.7749 17.8452 46.6121 17.9195C46.441 17.9975 46.2383 18.0408 46.0681 18.1154C45.6585 18.2953 45.263 18.4685 45.0655 17.9723C44.8686 17.4775 45.4712 17.3307 45.7831 17.2363C45.8936 17.2028 45.9487 17.165 46.0568 17.1307C46.1566 17.099 46.2429 17.0315 46.3037 17.0109C46.5089 16.9413 46.6742 16.8894 46.8688 16.818L46.6925 16.349C46.4853 16.3625 45.4786 16.7835 45.2105 16.8808C44.6663 17.0784 44.4023 17.5149 44.6698 18.1534C44.7848 18.428 44.844 18.592 45.1047 18.7348C45.3572 18.8732 45.6627 18.8424 45.933 18.7365C46.1713 18.6431 46.415 18.5565 46.6487 18.4627C46.8389 18.3865 47.1832 18.2908 47.3788 18.1804L47.2068 17.7301L47.2069 17.7304Z" fill="#242321"/>
<path fill-rule="evenodd" clip-rule="evenodd" d="M46.7152 22.0823L47.6565 22.2438C47.6417 22.3401 47.4447 22.3923 47.3584 22.4312C46.8607 22.6556 46.7713 22.792 46.7564 22.5439C46.7468 22.3831 46.6967 22.2593 46.715 22.0822L46.7152 22.0823ZM46.3638 22.9038L45.8921 23.1135L45.9731 23.644L48.3063 22.4979L48.2271 21.9121C48.0971 21.8502 45.8994 21.3787 45.6746 21.3737L45.7375 21.8786L46.2591 22.0029L46.3638 22.9037V22.9038Z" fill="#242321"/>
<path fill-rule="evenodd" clip-rule="evenodd" d="M46.346 20.6536C46.0993 20.6396 45.9785 20.5941 45.8664 20.4367C45.5226 19.9542 45.9381 19.5416 46.6126 19.4138C47.0656 19.328 47.4309 19.5344 47.4427 19.9526C47.4529 20.3132 47.3191 20.3225 47.2125 20.415C47.1245 20.4914 47.2449 20.8593 47.3013 20.9309C47.5414 20.9061 47.708 20.6649 47.8123 20.4835C47.9376 20.2655 47.9177 19.9241 47.8533 19.6779C47.5168 18.3931 45.487 18.7904 45.3067 19.8763C45.1902 20.5785 45.7467 21.2551 46.4845 21.1436L46.3459 20.6536H46.346Z" fill="#242321"/>
<path fill-rule="evenodd" clip-rule="evenodd" d="M48.4509 25.1824C48.4434 24.8433 48.4107 24.5409 48.4059 24.2052C48.4015 23.8779 48.4013 23.545 48.3737 23.2106L47.984 23.2215C47.9312 23.447 48.0345 23.7343 47.9862 23.9616C47.7696 24.0157 46.0663 23.999 45.9943 24.0554C45.9773 24.0818 45.986 24.0572 45.9766 24.1035C45.9718 24.1266 45.9721 24.1379 45.9713 24.1616L45.9922 24.5209C46.0715 24.5325 46.406 24.528 46.4781 24.5148C46.6723 24.4793 47.9125 24.4459 48.0138 24.4797C48.0643 24.8895 47.9262 25.1598 48.145 25.1795C48.2201 25.1864 48.3158 25.1624 48.4509 25.1823V25.1824Z" fill="#242321"/>
<path fill-rule="evenodd" clip-rule="evenodd" d="M45.9763 25.3668C45.9553 25.4761 45.9578 25.6183 45.9561 25.7443C45.9536 25.9318 45.9988 25.883 46.1824 25.8878L48.4144 25.9462C48.4464 25.877 48.511 25.5147 48.4276 25.4222L45.9763 25.3669V25.3668Z" fill="#242321"/>
<path fill-rule="evenodd" clip-rule="evenodd" d="M5.85726 30.2671L5.37328 30.3871C5.3282 30.3115 5.24754 29.9572 5.22606 29.8474C5.18599 29.6415 5.13393 29.4711 5.38646 29.3962C5.782 29.2787 5.86728 30.1472 5.85713 30.2671H5.85726ZM6.91142 30.0356C6.83787 30.0674 6.63107 30.0993 6.53657 30.1232C6.36285 30.1671 6.28206 30.2373 6.25398 30.0152C6.23263 29.8469 6.06353 29.406 6.16396 29.2447C6.29603 29.0326 6.62778 29.0459 6.74047 29.2813C6.78805 29.3807 6.92183 29.9141 6.91142 30.0356ZM5.79399 29.0635C5.7099 29.053 5.61632 28.9335 5.47806 28.9162C5.0957 28.8683 4.76461 29.1414 4.73021 29.5127C4.71993 29.623 5.01293 30.8707 5.05946 30.9564C5.21037 30.9673 5.7762 30.8132 5.96046 30.7531C6.04402 30.7259 6.16752 30.7242 6.26835 30.6957C6.4654 30.6399 7.35045 30.4667 7.42835 30.401C7.46894 30.3454 7.20323 29.1187 7.02318 28.8736C6.89573 28.7003 6.61697 28.5443 6.30908 28.6065C5.96402 28.676 5.90471 28.7641 5.79413 29.0635H5.79399Z" fill="#242321"/>
<path fill-rule="evenodd" clip-rule="evenodd" d="M5.16888 20.5767C5.17863 20.2526 5.27432 19.5872 5.67724 19.6887C6.0857 19.7916 5.90842 20.2557 5.78427 20.7023C5.58669 20.7022 5.3161 20.6299 5.16888 20.5767ZM7.36946 19.9536C7.31054 19.709 7.42033 19.6885 7.41967 19.5956C7.36458 19.6896 7.17742 19.6222 7.1127 19.5942L6.82867 19.4979C6.71123 19.4823 6.59327 19.4575 6.48625 19.4857C6.33296 19.5262 6.35813 19.6011 6.2374 19.6187C6.16452 19.525 6.18191 19.4364 6.04523 19.3247C5.71573 19.0556 5.2187 19.1413 5.01941 19.4561C4.89697 19.6496 4.61069 20.8646 4.61438 20.9946L7.02413 21.5287L7.10638 21.0449L6.22462 20.8583C6.1748 20.6721 6.35128 20.1396 6.44868 20.0213C6.65192 19.902 7.41559 20.3024 7.36972 19.9534L7.36946 19.9536Z" fill="#242321"/>
<path fill-rule="evenodd" clip-rule="evenodd" d="M9.51847 11.696C9.64223 11.7845 10.2729 12.2584 10.3383 12.3411C10.0061 12.3662 8.69259 12.1193 8.4253 12.1237L8.12228 12.5447C8.15748 12.6339 8.95963 13.1863 9.08616 13.2828C9.24906 13.4068 9.94788 13.9876 10.0798 14.0036C10.1577 13.9595 10.3175 13.7525 10.3384 13.6603C10.3285 13.5799 9.04266 12.7179 8.9931 12.5982C9.08458 12.589 9.74662 12.689 9.99678 12.7026C10.0993 12.7083 10.8951 12.8661 11.0088 12.8025C11.0615 12.7415 11.2493 12.5273 11.2747 12.4263L9.31971 10.9722C9.31958 10.9722 8.96674 11.2656 9.0938 11.3798C9.21308 11.4869 9.39088 11.6049 9.51847 11.6961V11.696Z" fill="#242321"/>
<path fill-rule="evenodd" clip-rule="evenodd" d="M6.49111 26.0813C6.67194 26.0843 6.72321 26.1264 6.72559 25.9551C6.72704 25.859 6.74562 25.68 6.69659 25.6205C6.55793 25.5172 5.26271 25.6811 5.07252 25.5733C5.08912 25.5163 5.08174 25.5264 5.15779 25.4837L5.4699 25.2937C5.58879 25.2163 5.77002 25.1395 5.89536 25.0644L6.71478 24.563L6.70977 24.09L4.26575 24.0917L4.27261 24.5445L5.9548 24.571C5.85701 24.6529 5.65469 24.7288 5.52869 24.8045C5.40242 24.8806 5.25006 24.9698 5.12115 25.0487C4.84226 25.219 4.54372 25.3377 4.26443 25.5313L4.27524 26.075C4.96101 26.1054 5.77674 26.0699 6.49111 26.0813Z" fill="#242321"/>
<path fill-rule="evenodd" clip-rule="evenodd" d="M10.874 11.7869C10.9462 11.9966 11.4158 12.0867 11.6561 11.9665C11.8817 11.8534 12.0753 11.7107 12.2497 11.509C12.6279 11.0715 12.5755 10.376 11.9974 10.1729C11.4654 9.98592 10.8703 10.8513 10.5305 10.7515C10.0962 10.6237 10.58 9.87804 10.981 9.98631C11.1821 10.0406 11.1063 10.1084 11.2889 9.89788C11.3741 9.79959 11.5377 9.72535 11.3657 9.62299C10.6487 9.19647 9.89163 10.0263 9.89295 10.5663C9.89374 10.8701 10.1137 11.1208 10.3015 11.2062C10.8821 11.4697 11.4416 10.7132 11.7735 10.676C11.9447 10.6568 12.0345 10.7881 12.0307 10.9443C12.0263 11.1246 11.9414 11.1952 11.8542 11.3037C11.529 11.708 11.2292 11.4753 11.1521 11.4663L10.8738 11.7871L10.874 11.7869Z" fill="#242321"/>
<path fill-rule="evenodd" clip-rule="evenodd" d="M7.61289 16.9857C7.70647 17.0747 7.89916 17.0866 8.07196 17.0681C8.24593 17.0495 8.3494 16.9715 8.45155 16.8973C8.60958 16.7825 8.80188 16.4394 8.86673 16.2389C9.14905 15.3662 8.40634 14.9885 7.9996 15.1461C7.52432 15.3304 7.21827 16.3256 6.84316 16.0449C6.5839 15.851 6.8114 15.4622 6.96771 15.3142C7.14472 15.1468 7.30645 15.3276 7.39119 15.1858C7.4248 15.1297 7.54554 14.8818 7.55213 14.8179C7.3502 14.6498 6.94293 14.7594 6.76882 14.8862C6.59379 15.0137 6.43879 15.2732 6.37394 15.4866C6.08661 16.4337 6.85502 16.6613 7.13523 16.5938C7.34295 16.5437 7.62422 16.2696 7.69592 16.15C7.76802 16.0295 8.01146 15.6694 8.18148 15.6414C8.57491 15.5765 8.5127 16.0147 8.41464 16.2331C8.20798 16.6939 7.96177 16.5617 7.80624 16.5677L7.61276 16.9859L7.61289 16.9857Z" fill="#242321"/>
<path fill-rule="evenodd" clip-rule="evenodd" d="M6.16226 17.7967L7.04415 17.8054C7.0626 17.9413 6.94253 18.2914 6.8881 18.3694C6.81416 18.3677 6.44102 18.0689 6.33479 17.9834C6.13537 17.8233 6.23343 17.9294 6.16213 17.7967H6.16226ZM6.82866 19.4981L7.11269 19.5944C7.17754 19.6224 7.36456 19.6898 7.41966 19.5957C7.42032 19.6886 7.31066 19.7091 7.36944 19.9538C7.44233 19.8581 7.45511 19.588 7.50718 19.4549C7.5508 19.3433 7.64293 19.114 7.66507 19.0043L7.28298 18.6908C7.27441 18.5595 7.49452 17.9121 7.56029 17.8622C7.67048 17.7995 7.92024 17.8534 8.06971 17.8438C8.12414 17.7528 8.15143 17.6515 8.19189 17.5477C8.31987 17.2184 8.28204 17.3062 7.31395 17.3035C6.79636 17.302 6.17162 17.2686 5.66721 17.3031C5.59261 17.3473 5.46595 17.7647 5.4728 17.87C5.52526 17.9606 6.31621 18.567 6.45275 18.6867C6.64703 18.8569 7.38328 19.4064 7.40582 19.5118C7.27125 19.6295 6.99723 19.5054 6.82852 19.4982L6.82866 19.4981Z" fill="#242321"/>
<path fill-rule="evenodd" clip-rule="evenodd" d="M5.89641 23.0028C5.77291 23.0114 5.53883 22.8836 5.438 22.8335C5.0476 22.64 4.801 22.6083 5.15542 22.5609C5.35022 22.5349 5.77159 22.4192 5.94847 22.42L5.89641 23.0026V23.0028ZM6.98576 21.6697C6.78977 21.6449 4.87534 22.1828 4.44118 22.2317L4.37567 22.8431L6.70186 23.9671C6.76169 23.8746 6.78292 23.572 6.75932 23.4276L6.30381 23.2227L6.41097 22.3154L6.93212 22.192L6.98576 21.6697Z" fill="#242321"/>
<path fill-rule="evenodd" clip-rule="evenodd" d="M5.9577 27.758C5.87295 27.7446 5.77212 27.7371 5.67208 27.7238C5.63267 27.7186 5.3862 27.6308 5.18244 27.6111C5.11232 27.6044 4.96009 27.6008 5.04035 27.5205C5.05248 27.5084 5.78702 27.1637 5.89944 27.1709C5.93437 27.2534 5.97404 27.636 5.9577 27.758ZM6.77026 26.7379C6.77659 26.5965 6.76328 26.2896 6.70173 26.2031C6.64637 26.2089 4.55044 27.2198 4.37317 27.3265L4.43406 27.8803C4.60211 27.9932 5.41678 28.1283 5.6763 28.1949C6.00291 28.2786 6.63925 28.4528 6.98497 28.4695L6.93383 27.9727C6.72413 27.8464 6.39001 28.0117 6.37512 27.7003C6.3622 27.429 6.29801 27.2174 6.31304 26.9413L6.77013 26.7381L6.77026 26.7379Z" fill="#242321"/>
<path fill-rule="evenodd" clip-rule="evenodd" d="M7.86303 12.9677C7.84049 12.9899 7.62882 13.2946 7.62209 13.3155C7.58466 13.4332 7.83812 13.5336 7.91733 13.5852L9.3578 14.5056C9.48275 14.5831 9.63446 14.7376 9.72672 14.613C9.7631 14.564 9.93879 14.3086 9.94248 14.2705C9.92574 14.2318 9.02013 13.6764 8.91231 13.6193C8.70195 13.508 8.05217 12.9949 7.8629 12.9677H7.86303Z" fill="#242321"/>
<path fill-rule="evenodd" clip-rule="evenodd" d="M39.3222 8.5244C39.3448 8.46921 39.502 8.28723 39.5409 8.23953C39.608 8.1574 39.6826 7.98829 39.8096 8.07646C39.9122 8.14781 40.2967 8.47224 40.3441 8.55568C40.4824 8.7989 40.1933 9.14934 39.8848 8.9751C39.7307 8.88812 39.4341 8.64726 39.3224 8.52427L39.3222 8.5244ZM40.0883 9.41779C40.3088 9.40044 40.3698 9.45432 40.5422 9.34302C40.6372 9.28166 40.7439 9.20426 40.798 9.09546C41.1258 8.43505 40.5168 8.13099 40.162 7.83219C39.988 7.68568 39.7986 7.50225 39.6166 7.37347C39.5302 7.43786 39.3002 7.71695 39.2213 7.836C39.0777 8.05215 38.0987 9.10125 38.0617 9.29072L38.4342 9.5735C38.5823 9.42252 38.9123 8.94922 39.0465 8.87537C39.1776 8.92951 39.6478 9.29979 39.6458 9.471C39.6433 9.69478 39.2256 9.96783 39.2146 10.2292C39.305 10.3149 39.5443 10.5306 39.6378 10.5459C39.6834 10.4703 39.6367 10.4686 39.6806 10.3762L39.9466 10.0321C40.1606 9.75982 40.0984 9.79872 40.0885 9.41753L40.0883 9.41779Z" fill="#242321"/>
<path fill-rule="evenodd" clip-rule="evenodd" d="M21.4771 4.60947C21.3187 3.62306 22.7844 3.35001 22.8493 4.75808C22.8839 5.5089 21.9876 5.80113 21.6362 5.14598C21.5233 4.93547 21.5186 4.86872 21.4771 4.6096V4.60947ZM23.3724 4.77779C23.3724 4.37203 23.2377 4.10871 23.1015 3.8082C23.0081 3.6019 22.575 3.37419 22.3034 3.34751C21.5392 3.27274 20.9379 3.79572 20.9381 4.50448C20.9383 4.76873 21.0809 5.32271 21.21 5.46817C21.3455 5.62059 21.3299 5.64451 21.5355 5.77433C21.6252 5.83109 21.8875 5.9278 22.0075 5.937C22.7873 5.99692 23.3724 5.50233 23.3724 4.77779Z" fill="#242321"/>
<path fill-rule="evenodd" clip-rule="evenodd" d="M34.2781 7.07219L34.7139 7.30569L35.2095 6.34345C35.3881 6.35987 35.8734 6.68049 36.0584 6.74566L35.5967 7.7167C35.6687 7.80908 35.9394 7.93233 36.0484 7.9251C36.1157 7.86046 36.5421 6.99677 36.6114 6.85775C36.7082 6.66393 36.7846 6.48405 36.8807 6.30101C36.9411 6.18616 37.1417 5.85017 37.1355 5.75504L36.695 5.55374C36.6532 5.62771 36.6159 5.66924 36.5786 5.7465C36.5266 5.85425 36.3249 6.32623 36.2594 6.34279C36.1637 6.33346 35.479 5.98354 35.4363 5.93545L35.8185 5.11644C35.6995 5.02459 35.6351 5.00225 35.5084 4.93866C35.3372 4.85259 35.3645 4.83524 35.2697 5.0514C35.1707 5.27675 34.2946 6.96392 34.278 7.07219H34.2781Z" fill="#242321"/>
<path fill-rule="evenodd" clip-rule="evenodd" d="M30.0636 5.77147C30.0391 5.69197 30.1289 5.71523 29.9699 5.70209L29.9466 5.68291C30.0182 5.64966 29.9716 5.71484 29.9888 5.60407C29.8044 5.57858 29.9851 5.4682 29.8932 5.28293L28.5924 5.13707L28.6301 4.54985C28.8021 4.44723 29.5611 4.67179 29.8411 4.63013L29.8848 4.22753C29.8541 4.21833 28.8252 4.0734 28.7326 4.07024C28.7246 3.8922 28.7281 3.68064 28.8066 3.57066L30.0748 3.70298C30.1003 3.59773 30.1399 3.37488 30.0966 3.30116L28.3323 3.05426L28.0162 5.49369C28.106 5.53206 28.8603 5.62903 28.9997 5.64809C29.0837 5.65965 29.1842 5.65597 29.2707 5.66294C29.4803 5.68002 29.3502 5.71274 29.8005 5.72285C29.9726 5.72666 29.8869 5.75715 30.0635 5.77134L30.0636 5.77147Z" fill="#242321"/>
<path fill-rule="evenodd" clip-rule="evenodd" d="M41.1254 11.0291C41.0902 10.9613 40.9068 10.7236 40.8202 10.7268C40.7131 10.7306 40.6012 10.9491 40.5715 11.051C40.4748 11.3812 40.6797 11.7204 40.8293 11.9039C41.0006 12.1141 41.2265 12.3061 41.4976 12.3893C41.8132 12.4858 42.137 12.2593 42.2757 12.0814C42.7042 11.5317 41.6678 10.701 41.9248 10.3844C42.1522 10.1044 42.5405 10.4954 42.6027 10.682C42.6865 10.9335 42.5115 11.0492 42.5725 11.1523C42.6181 11.2293 42.8114 11.4107 42.8676 11.4375C43.158 11.2578 43.2154 10.7267 42.8958 10.329C42.6988 10.0837 42.3207 9.68939 41.8463 9.86691C41.4501 10.0151 41.2238 10.4159 41.4547 10.8378C41.5459 11.0044 41.6393 11.172 41.7324 11.3385C42.1112 12.015 41.4787 12.0667 41.1589 11.6401C40.9004 11.2954 41.102 11.1616 41.1253 11.0293L41.1254 11.0291Z" fill="#242321"/>
<path fill-rule="evenodd" clip-rule="evenodd" d="M17.8044 4.68962C17.7977 4.84034 18.126 5.63899 18.1962 5.84765C18.2575 6.02964 18.3447 6.21465 18.4154 6.40058L18.6192 6.97834C18.829 6.99148 19.7006 6.57534 19.9222 6.51371C20.025 6.48507 20.2898 6.38888 20.3643 6.33553L20.2459 5.95145L18.9744 6.41372C18.9214 6.34775 18.7565 5.91177 18.7633 5.80941L19.8401 5.40155C19.8592 5.33388 19.7519 5.06543 19.7201 4.99723C19.6162 4.99447 19.325 5.13021 19.1675 5.18815C19.0259 5.24019 18.7124 5.37724 18.5782 5.37448L18.4189 4.95124C18.5575 4.81564 19.3693 4.60251 19.6042 4.4623L19.4854 4.08032C19.3669 4.07914 17.9528 4.60697 17.8045 4.68976L17.8044 4.68962Z" fill="#242321"/>
<path fill-rule="evenodd" clip-rule="evenodd" d="M37.8641 9.11966C38.2478 8.75936 37.9744 8.70391 37.8107 8.59669C37.7053 8.52757 37.6686 8.49196 37.533 8.4122C37.4131 8.34164 37.0883 8.13442 36.9818 8.04021C36.9855 7.97372 37.2527 7.55745 37.315 7.53261C37.3971 7.54128 38.1686 8.06097 38.3074 8.14283L38.5503 7.79554L37.5778 7.14985C37.5907 7.058 37.7616 6.76695 37.8218 6.73567C37.9896 6.73423 38.738 7.34747 38.9196 7.3752L39.1485 7.07942C39.0847 6.93291 38.8943 6.87798 38.789 6.80256C38.6146 6.67786 37.7374 6.08958 37.6319 6.0838C37.5629 6.16566 37.4056 6.40744 37.3427 6.50783C37.2528 6.65158 37.1367 6.81281 37.0558 6.96063L36.4735 7.85336C36.3195 8.09264 36.222 8.10985 36.5022 8.26096C36.6469 8.33914 36.8147 8.45228 36.9541 8.54781C37.1032 8.64977 37.7368 9.07879 37.8642 9.11952L37.8641 9.11966Z" fill="#242321"/>
<path fill-rule="evenodd" clip-rule="evenodd" d="M14.1123 6.69688C14.0251 6.69845 13.9668 6.76087 13.8924 6.81001C13.8278 6.85259 13.7344 6.89437 13.702 6.9669C13.7244 7.16111 14.3707 8.02769 14.5048 8.25646C15.1163 9.29951 16.1563 8.51361 16.3477 7.99458C16.4649 7.67659 16.2793 7.37989 16.1629 7.17609C16.0747 7.02183 15.4136 5.96958 15.3368 5.89771C15.2247 5.91925 15.1438 6.00874 15.0606 6.06143C14.9341 6.14171 14.8756 6.15393 14.9741 6.29663L15.665 7.37845C15.7691 7.53678 15.9726 7.7758 15.8126 8.01008C15.7292 8.13215 15.4637 8.37196 15.2109 8.24897C14.8815 8.08853 14.3194 6.87269 14.1123 6.69688Z" fill="#242321"/>
<path fill-rule="evenodd" clip-rule="evenodd" d="M30.9641 5.03047C30.9671 4.99276 31.381 4.22657 31.5036 4.2129L31.5496 5.15346C31.4287 5.16016 31.057 5.07002 30.9641 5.03047ZM29.989 5.60416C29.9719 5.71493 30.0184 5.64962 29.9468 5.683L29.9702 5.70218C30.129 5.71532 30.0392 5.69206 30.0639 5.77156L30.4291 5.84869L30.6952 5.42506C30.8453 5.42716 31.0279 5.47775 31.1416 5.52269C31.2571 5.56829 31.4425 5.5922 31.5858 5.62781L31.6333 6.15433C31.6833 6.18494 32.113 6.29545 32.1549 6.26523C32.1657 6.25196 31.9452 3.80031 31.8944 3.70018C31.8175 3.65787 31.4324 3.56497 31.3134 3.57482L29.989 5.60442V5.60416Z" fill="#242321"/>
<path fill-rule="evenodd" clip-rule="evenodd" d="M34.3742 6.1947L33.9377 6.05529C33.8141 6.13163 33.776 6.26355 33.5857 6.3173C33.2763 6.40468 32.919 6.15567 32.8822 5.82862C32.8354 5.41103 33.1328 4.68834 33.5776 4.65207C33.7412 4.63867 33.9393 4.71803 34.0408 4.80134C34.2539 4.9765 34.1346 5.14101 34.2153 5.25795C34.2548 5.30867 34.6058 5.43429 34.6931 5.42746C34.7389 5.02288 34.6551 4.78058 34.4546 4.57717C34.2785 4.3986 34.0247 4.25012 33.7405 4.19808C33.4043 4.13646 33.0749 4.28836 32.9011 4.43999C32.4924 4.79661 32.2249 5.49658 32.4066 6.05318C32.5472 6.48457 32.9219 6.69573 33.3389 6.77903C33.8854 6.88823 34.3783 6.40665 34.3742 6.1947Z" fill="#242321"/>
<path fill-rule="evenodd" clip-rule="evenodd" d="M23.556 3.16132L23.7685 5.58157L24.2764 5.5474C24.2727 5.3687 24.1616 4.6192 24.2074 4.54824C24.3508 4.44141 25.045 4.50777 25.2565 4.41684L25.2502 4.03986C25.0456 3.95221 24.4163 4.07888 24.1718 4.07113C24.1457 3.99492 24.0681 3.61807 24.1288 3.5454L25.307 3.42583C25.3643 2.93019 25.2657 2.99563 25.1349 3.00259C24.9414 3.01271 24.7949 3.03964 24.6112 3.05515C24.4202 3.07131 23.6543 3.10784 23.5563 3.16132H23.556Z" fill="#242321"/>
<path fill-rule="evenodd" clip-rule="evenodd" d="M11.4311 9.30033C11.5662 9.28732 11.8747 8.88997 12.001 8.85173L13.3292 10.3701L13.7047 10.0502C13.6578 9.90779 13.1669 9.41912 13.0491 9.26972C12.9365 9.12702 12.4276 8.57461 12.4097 8.50339L12.9315 8.03285C12.9057 7.94771 12.7814 7.78819 12.7155 7.74456C12.6276 7.68635 12.4927 7.83536 12.4265 7.89606C12.073 8.2201 11.7286 8.48171 11.4085 8.77539C11.235 8.93465 11.1783 8.95081 11.201 9.04147C11.2133 9.09088 11.3737 9.27589 11.4309 9.3002L11.4311 9.30033Z" fill="#242321"/>
<path fill-rule="evenodd" clip-rule="evenodd" d="M15.6615 5.71124L15.8144 6.05314C16.0318 6.06405 16.3485 5.79047 16.519 5.79599C16.5525 5.83291 17.2961 7.43546 17.4269 7.57895L17.8518 7.37476C17.8514 7.24191 17.6938 7.02339 17.6433 6.92419C17.5729 6.78556 17.4853 6.59595 17.4215 6.46955C17.3431 6.31436 17.0029 5.66696 17.0208 5.53556C17.1119 5.48983 17.6051 5.26816 17.632 5.2114L17.4718 4.87817C17.3329 4.85754 17.1025 4.99222 16.9814 5.05096C16.8504 5.11442 16.695 5.19563 16.5482 5.26882L15.6615 5.71124Z" fill="#242321"/>
<path fill-rule="evenodd" clip-rule="evenodd" d="M26.6627 4.67912L26.6822 4.7029L26.6779 5.41574C26.7842 5.44058 27.032 5.44728 27.1278 5.41981C27.1672 5.28395 27.1654 4.65993 27.1705 4.46217C27.2053 3.08498 26.9955 3.48285 27.9302 3.43542L27.9063 3.0608C27.7607 3.01757 26.2082 2.98156 25.9992 3.01047L26.0162 3.37524L26.6747 3.39482C26.758 3.5094 26.6933 4.10109 26.6916 4.35679C26.6912 4.41329 26.692 4.46993 26.6917 4.52603L26.6628 4.67898L26.6627 4.67912Z" fill="#242321"/>
<path fill-rule="evenodd" clip-rule="evenodd" d="M12.898 7.54364L14.3618 9.51292L14.7695 9.22621L14.7797 9.20729L13.3048 7.2677L12.898 7.54364Z" fill="#242321"/>
<path fill-rule="evenodd" clip-rule="evenodd" d="M41.3438 9.45064C41.2577 9.66508 40.855 9.40951 40.8519 9.66114C40.9849 9.77572 41.2642 9.7685 41.4292 9.67678C41.5214 9.62553 41.7503 9.3902 41.7968 9.30334C41.7768 9.20992 41.7267 9.19402 41.6557 9.12188C41.5999 9.06525 41.5407 8.99087 41.4743 8.97327C41.4042 9.02267 41.3337 9.10716 41.2525 9.18902C41.1064 9.33632 41.2941 9.33264 41.3438 9.45064Z" fill="#242321"/>
</g>
<path d="M65.0265 21.5V0.954428H72.8916C74.3763 0.954428 75.6102 1.18851 76.5934 1.65667C77.5832 2.11814 78.3222 2.75016 78.8105 3.55272C79.3054 4.35528 79.5528 5.26485 79.5528 6.28143C79.5528 7.11743 79.3923 7.83305 79.0713 8.42828C78.7503 9.01683 78.3189 9.49502 77.7772 9.86286C77.2354 10.2307 76.6302 10.4949 75.9614 10.6554V10.856C76.6904 10.8962 77.3893 11.1202 78.0581 11.5282C78.7335 11.9295 79.2853 12.4979 79.7133 13.2336C80.1414 13.9693 80.3554 14.8588 80.3554 15.9021C80.3554 16.9655 80.0979 17.9219 79.5829 18.7713C79.0679 19.614 78.2921 20.2794 77.2555 20.7677C76.2189 21.2559 74.9147 21.5 73.343 21.5H65.0265ZM68.7483 18.3901H72.7511C74.1021 18.3901 75.0752 18.1326 75.6704 17.6176C76.2724 17.0959 76.5733 16.4271 76.5733 15.6112C76.5733 15.0026 76.4228 14.4542 76.1219 13.966C75.8209 13.471 75.3929 13.0831 74.8378 12.8022C74.2827 12.5147 73.6206 12.3709 72.8514 12.3709H68.7483V18.3901ZM68.7483 9.69232H72.4301C73.0721 9.69232 73.6507 9.57528 74.1656 9.34119C74.6806 9.10043 75.0852 8.76268 75.3795 8.32796C75.6805 7.88655 75.8309 7.36489 75.8309 6.76297C75.8309 5.96709 75.5501 5.31167 74.9883 4.79669C74.4332 4.28171 73.6072 4.02422 72.5104 4.02422H68.7483V9.69232ZM86.2316 21.5H82.259L89.492 0.954428H94.0867L101.33 21.5H97.3572L91.8696 5.16788H91.7091L86.2316 21.5ZM86.3621 13.4443H97.1966V16.4338H86.3621V13.4443ZM120.92 0.954428V21.5H117.609L107.928 7.50534H107.758V21.5H104.036V0.954428H107.367L117.037 14.9591H117.218V0.954428H120.92ZM127.614 21.5H123.641L130.874 0.954428H135.469L142.712 21.5H138.739L133.252 5.16788H133.091L127.614 21.5ZM127.744 13.4443H138.579V16.4338H127.744V13.4443ZM145.418 21.5V0.954428H153.123C154.701 0.954428 156.025 1.22864 157.095 1.77705C158.172 2.32547 158.985 3.09459 159.533 4.08442C160.088 5.06756 160.366 6.21455 160.366 7.5254C160.366 8.84294 160.085 9.98659 159.523 10.9563C158.968 11.9194 158.149 12.6651 157.065 13.1935C155.982 13.7152 154.651 13.976 153.072 13.976H147.585V10.8861H152.571C153.494 10.8861 154.25 10.7591 154.838 10.5049C155.427 10.2441 155.861 9.8662 156.142 9.37129C156.43 8.86969 156.574 8.25439 156.574 7.5254C156.574 6.79641 156.43 6.17442 156.142 5.65944C155.855 5.13778 155.417 4.74319 154.828 4.47567C154.24 4.20146 153.48 4.06435 152.551 4.06435H149.14V21.5H145.418ZM156.032 12.1903L161.118 21.5H156.965L151.969 12.1903H156.032ZM166.43 21.5H162.457L169.691 0.954428H174.285L181.528 21.5H177.556L172.068 5.16788H171.908L166.43 21.5ZM166.561 13.4443H177.395V16.4338H166.561V13.4443ZM195.069 6.60245C194.975 5.72633 194.581 5.04415 193.885 4.55592C193.196 4.0677 192.3 3.82359 191.197 3.82359C190.421 3.82359 189.755 3.94063 189.2 4.17471C188.645 4.40879 188.22 4.72647 187.926 5.12775C187.632 5.52903 187.481 5.98716 187.475 6.50213C187.475 6.93017 187.572 7.30135 187.766 7.61569C187.966 7.93002 188.237 8.19755 188.578 8.41825C188.919 8.63227 189.297 8.81284 189.712 8.95998C190.127 9.10711 190.545 9.23084 190.966 9.33116L192.892 9.8127C193.668 9.99328 194.414 10.2374 195.129 10.545C195.851 10.8527 196.497 11.2406 197.065 11.7088C197.641 12.1769 198.095 12.742 198.43 13.4042C198.764 14.0663 198.931 14.8421 198.931 15.7316C198.931 16.9354 198.624 17.9955 198.008 18.9117C197.393 19.8213 196.504 20.5336 195.34 21.0486C194.183 21.5568 192.782 21.811 191.136 21.811C189.538 21.811 188.15 21.5635 186.973 21.0686C185.803 20.5737 184.886 19.8514 184.224 18.9017C183.569 17.952 183.214 16.795 183.161 15.4306H186.823C186.876 16.1462 187.097 16.7415 187.485 17.2163C187.873 17.6912 188.378 18.0456 189 18.2797C189.628 18.5138 190.331 18.6308 191.106 18.6308C191.916 18.6308 192.625 18.5105 193.233 18.2697C193.848 18.0222 194.33 17.6811 194.678 17.2464C195.026 16.805 195.203 16.29 195.209 15.7015C195.203 15.1665 195.046 14.725 194.738 14.3773C194.43 14.0228 193.999 13.7285 193.444 13.4945C192.895 13.2537 192.253 13.0397 191.518 12.8524L189.18 12.2505C187.488 11.8158 186.151 11.157 185.167 10.2742C184.191 9.38467 183.703 8.20423 183.703 6.73287C183.703 5.52234 184.03 4.46229 184.686 3.55272C185.348 2.64315 186.248 1.93757 187.384 1.43596C188.521 0.927676 189.809 0.673532 191.247 0.673532C192.705 0.673532 193.982 0.927676 195.079 1.43596C196.183 1.93757 197.049 2.63646 197.677 3.53266C198.306 4.42216 198.63 5.44543 198.65 6.60245H195.069ZM212.979 0.954428V21.5H209.257V0.954428H212.979ZM233.893 0.954428V21.5H230.582L220.901 7.50534H220.731V21.5H217.009V0.954428H220.34L230.011 14.9591H230.191V0.954428H233.893ZM249.114 6.60245C249.02 5.72633 248.626 5.04415 247.93 4.55592C247.241 4.0677 246.345 3.82359 245.242 3.82359C244.466 3.82359 243.8 3.94063 243.245 4.17471C242.69 4.40879 242.265 4.72647 241.971 5.12775C241.677 5.52903 241.526 5.98716 241.52 6.50213C241.52 6.93017 241.617 7.30135 241.811 7.61569C242.011 7.93002 242.282 8.19755 242.623 8.41825C242.964 8.63227 243.342 8.81284 243.757 8.95998C244.172 9.10711 244.59 9.23084 245.011 9.33116L246.937 9.8127C247.713 9.99328 248.459 10.2374 249.174 10.545C249.896 10.8527 250.542 11.2406 251.11 11.7088C251.686 12.1769 252.14 12.742 252.475 13.4042C252.809 14.0663 252.976 14.8421 252.976 15.7316C252.976 16.9354 252.669 17.9955 252.053 18.9117C251.438 19.8213 250.549 20.5336 249.385 21.0486C248.228 21.5568 246.827 21.811 245.181 21.811C243.583 21.811 242.195 21.5635 241.018 21.0686C239.848 20.5737 238.931 19.8514 238.269 18.9017C237.614 17.952 237.259 16.795 237.206 15.4306H240.868C240.921 16.1462 241.142 16.7415 241.53 17.2163C241.918 17.6912 242.423 18.0456 243.045 18.2797C243.673 18.5138 244.376 18.6308 245.151 18.6308C245.961 18.6308 246.67 18.5105 247.278 18.2697C247.893 18.0222 248.375 17.6811 248.723 17.2464C249.071 16.805 249.248 16.29 249.254 15.7015C249.248 15.1665 249.091 14.725 248.783 14.3773C248.475 14.0228 248.044 13.7285 247.489 13.4945C246.94 13.2537 246.298 13.0397 245.563 12.8524L243.225 12.2505C241.533 11.8158 240.196 11.157 239.212 10.2742C238.236 9.38467 237.748 8.20423 237.748 6.73287C237.748 5.52234 238.075 4.46229 238.731 3.55272C239.393 2.64315 240.292 1.93757 241.429 1.43596C242.566 0.927676 243.854 0.673532 245.292 0.673532C246.75 0.673532 248.027 0.927676 249.124 1.43596C250.228 1.93757 251.094 2.63646 251.722 3.53266C252.351 4.42216 252.675 5.44543 252.695 6.60245H249.114ZM255.392 4.07439V0.954428H271.784V4.07439H265.434V21.5H261.742V4.07439H255.392ZM278.666 0.954428V21.5H274.944V0.954428H278.666ZM281.793 4.07439V0.954428H298.186V4.07439H291.835V21.5H288.144V4.07439H281.793ZM314.297 0.954428H318.019V14.3773C318.019 15.8486 317.671 17.1428 316.976 18.2597C316.287 19.3766 315.317 20.2493 314.066 20.878C312.816 21.5 311.354 21.811 309.682 21.811C308.004 21.811 306.539 21.5 305.288 20.878C304.038 20.2493 303.068 19.3766 302.379 18.2597C301.69 17.1428 301.346 15.8486 301.346 14.3773V0.954428H305.068V14.0663C305.068 14.9223 305.255 15.6848 305.629 16.3536C306.011 17.0224 306.546 17.5474 307.234 17.9286C307.923 18.3031 308.739 18.4904 309.682 18.4904C310.625 18.4904 311.441 18.3031 312.13 17.9286C312.826 17.5474 313.361 17.0224 313.735 16.3536C314.11 15.6848 314.297 14.9223 314.297 14.0663V0.954428ZM321.161 4.07439V0.954428H337.554V4.07439H331.203V21.5H327.512V4.07439H321.161ZM340.714 21.5V0.954428H354.076V4.07439H344.436V9.65219H353.384V12.7721H344.436V18.38H354.157V21.5H340.714Z" fill="#242321"/>
<path d="M78.6456 36.3922C78.6456 38.1024 78.3368 39.5804 77.7192 40.8261C77.1016 42.0719 76.2544 43.0326 75.1776 43.7082C74.1008 44.3839 72.8709 44.7217 71.4879 44.7217C70.1049 44.7217 68.875 44.3839 67.7982 43.7082C66.7214 43.0326 65.8742 42.0719 65.2566 40.8261C64.639 39.5804 64.3302 38.1024 64.3302 36.3922C64.3302 34.6819 64.639 33.2039 65.2566 31.9582C65.8742 30.7125 66.7214 29.7518 67.7982 29.0761C68.875 28.4005 70.1049 28.0626 71.4879 28.0626C72.8709 28.0626 74.1008 28.4005 75.1776 29.0761C76.2544 29.7518 77.1016 30.7125 77.7192 31.9582C78.3368 33.2039 78.6456 34.6819 78.6456 36.3922ZM76.7453 36.3922C76.7453 34.9881 76.5104 33.8031 76.0406 32.8371C75.5761 31.8711 74.9453 31.14 74.1483 30.6438C73.3565 30.1477 72.4697 29.8996 71.4879 29.8996C70.5061 29.8996 69.6166 30.1477 68.8196 30.6438C68.0278 31.14 67.397 31.8711 66.9272 32.8371C66.4627 33.8031 66.2305 34.9881 66.2305 36.3922C66.2305 37.7963 66.4627 38.9813 66.9272 39.9473C67.397 40.9132 68.0278 41.6443 68.8196 42.1405C69.6166 42.6367 70.5061 42.8848 71.4879 42.8848C72.4697 42.8848 73.3565 42.6367 74.1483 42.1405C74.9453 41.6443 75.5761 40.9132 76.0406 39.9473C76.5104 38.9813 76.7453 37.7963 76.7453 36.3922ZM81.9473 44.5V28.2843H91.6704V30.0263H83.9109V35.5054H90.9419V37.2473H83.9109V44.5H81.9473ZM100.418 30.0263V28.2843H112.579V30.0263H107.48V44.5H105.517V30.0263H100.418ZM115.61 44.5V28.2843H125.396V30.0263H117.573V35.5054H124.889V37.2473H117.573V42.7581H125.523V44.5H115.61ZM129.601 44.5H127.542L133.496 28.2843H135.523L141.477 44.5H139.419L134.573 30.8497H134.446L129.601 44.5ZM130.361 38.1658H138.659V39.9077H130.361V38.1658ZM156.29 33.3517H154.326C154.21 32.7869 154.007 32.2908 153.716 31.8632C153.431 31.4356 153.083 31.0767 152.671 30.7864C152.265 30.4908 151.813 30.2691 151.317 30.1213C150.821 29.9735 150.304 29.8996 149.765 29.8996C148.783 29.8996 147.894 30.1477 147.097 30.6438C146.305 31.14 145.674 31.8711 145.205 32.8371C144.74 33.8031 144.508 34.9881 144.508 36.3922C144.508 37.7963 144.74 38.9813 145.205 39.9473C145.674 40.9132 146.305 41.6443 147.097 42.1405C147.894 42.6367 148.783 42.8848 149.765 42.8848C150.304 42.8848 150.821 42.8109 151.317 42.6631C151.813 42.5153 152.265 42.2962 152.671 42.0059C153.083 41.7103 153.431 41.3487 153.716 40.9212C154.007 40.4883 154.21 39.9921 154.326 39.4326H156.29C156.142 40.2613 155.873 41.003 155.482 41.6575C155.091 42.312 154.606 42.8689 154.025 43.3282C153.444 43.7821 152.792 44.1279 152.069 44.3654C151.351 44.6029 150.583 44.7217 149.765 44.7217C148.382 44.7217 147.152 44.3839 146.076 43.7082C144.999 43.0326 144.152 42.0719 143.534 40.8261C142.916 39.5804 142.608 38.1024 142.608 36.3922C142.608 34.6819 142.916 33.2039 143.534 31.9582C144.152 30.7125 144.999 29.7518 146.076 29.0761C147.152 28.4005 148.382 28.0626 149.765 28.0626C150.583 28.0626 151.351 28.1814 152.069 28.4189C152.792 28.6565 153.444 29.0049 154.025 29.4641C154.606 29.918 155.091 30.4723 155.482 31.1268C155.873 31.7761 156.142 32.5177 156.29 33.3517ZM159.463 44.5V28.2843H161.426V35.5054H170.072V28.2843H172.036V44.5H170.072V37.2473H161.426V44.5H159.463ZM175.967 44.5V28.2843H185.754V30.0263H177.931V35.5054H185.247V37.2473H177.931V42.7581H185.88V44.5H175.967ZM189.293 44.5V28.2843H194.772C196.039 28.2843 197.079 28.5008 197.892 28.9336C198.705 29.3612 199.306 29.9497 199.697 30.6993C200.087 31.4488 200.283 32.3013 200.283 33.2567C200.283 34.2121 200.087 35.0593 199.697 35.7983C199.306 36.5373 198.707 37.118 197.9 37.5403C197.092 37.9573 196.06 38.1658 194.804 38.1658H190.37V36.3922H194.74C195.606 36.3922 196.303 36.2655 196.831 36.0121C197.364 35.7587 197.749 35.3998 197.987 34.9353C198.229 34.4655 198.351 33.906 198.351 33.2567C198.351 32.6075 198.229 32.04 197.987 31.5544C197.744 31.0688 197.356 30.694 196.823 30.4301C196.29 30.1609 195.585 30.0263 194.709 30.0263H191.256V44.5H189.293ZM196.926 37.2156L200.916 44.5H198.636L194.709 37.2156H196.926ZM204.948 28.2843V29.7095C204.948 30.1424 204.869 30.6043 204.711 31.0952C204.558 31.5808 204.331 32.0532 204.03 32.5124C203.734 32.9664 203.375 33.3623 202.953 33.7001L201.94 32.8767C202.272 32.4016 202.56 31.9081 202.803 31.396C203.051 30.8787 203.175 30.3271 203.175 29.7412V28.2843H204.948ZM216.538 32.3383C216.443 31.5359 216.058 30.9131 215.382 30.4697C214.706 30.0263 213.878 29.8046 212.896 29.8046C212.178 29.8046 211.55 29.9207 211.011 30.1529C210.478 30.3852 210.061 30.7046 209.76 31.111C209.465 31.5174 209.317 31.9793 209.317 32.4966C209.317 32.9295 209.42 33.3016 209.626 33.613C209.837 33.9192 210.106 34.1752 210.433 34.381C210.761 34.5816 211.104 34.7479 211.463 34.8799C211.822 35.0066 212.152 35.1095 212.452 35.1887L214.099 35.6321C214.522 35.7429 214.991 35.896 215.509 36.0913C216.031 36.2866 216.53 36.5532 217.005 36.891C217.486 37.2235 217.881 37.6511 218.193 38.1737C218.504 38.6963 218.66 39.3376 218.66 40.0977C218.66 40.9739 218.43 41.7657 217.971 42.473C217.517 43.1804 216.852 43.7425 215.976 44.1595C215.105 44.5765 214.047 44.785 212.801 44.785C211.64 44.785 210.634 44.5977 209.784 44.2229C208.94 43.8481 208.274 43.3255 207.789 42.6552C207.309 41.9848 207.037 41.2062 206.973 40.3194H209C209.053 40.9317 209.259 41.4385 209.618 41.8396C209.982 42.2355 210.441 42.5311 210.996 42.7264C211.555 42.9164 212.157 43.0115 212.801 43.0115C213.55 43.0115 214.223 42.89 214.82 42.6472C215.416 42.3991 215.889 42.056 216.237 41.6179C216.586 41.1745 216.76 40.6572 216.76 40.066C216.76 39.5276 216.609 39.0895 216.308 38.7517C216.008 38.4139 215.612 38.1394 215.121 37.9282C214.63 37.7171 214.099 37.5323 213.529 37.374L211.534 36.8039C210.267 36.4397 209.264 35.9197 208.525 35.2441C207.786 34.5684 207.417 33.6843 207.417 32.5916C207.417 31.6837 207.662 30.8919 208.153 30.2163C208.649 29.5354 209.314 29.0075 210.148 28.6327C210.988 28.2527 211.925 28.0626 212.959 28.0626C214.004 28.0626 214.933 28.25 215.746 28.6248C216.559 28.9943 217.203 29.501 217.678 30.145C218.159 30.789 218.412 31.5201 218.438 32.3383H216.538ZM228.159 44.5V28.2843H237.946V30.0263H230.123V35.5054H237.439V37.2473H230.123V42.7581H238.072V44.5H228.159ZM246.489 44.5H241.485V28.2843H246.711C248.284 28.2843 249.63 28.609 250.749 29.2582C251.868 29.9022 252.726 30.8286 253.322 32.0374C253.919 33.2409 254.217 34.6819 254.217 36.3605C254.217 38.0496 253.916 39.5039 253.314 40.7232C252.712 41.9373 251.836 42.8716 250.686 43.5261C249.535 44.1754 248.136 44.5 246.489 44.5ZM243.449 42.7581H246.362C247.703 42.7581 248.814 42.4994 249.696 41.9821C250.577 41.4648 251.235 40.7285 251.667 39.7731C252.1 38.8177 252.317 37.6801 252.317 36.3605C252.317 35.0514 252.103 33.9245 251.675 32.9796C251.248 32.0295 250.609 31.301 249.759 30.7943C248.909 30.2823 247.851 30.0263 246.584 30.0263H243.449V42.7581ZM268.152 28.2843H270.116V39.0209C270.116 40.1294 269.855 41.1191 269.332 41.9901C268.815 42.8557 268.084 43.5393 267.139 44.0408C266.194 44.5369 265.085 44.785 263.813 44.785C262.541 44.785 261.433 44.5369 260.488 44.0408C259.543 43.5393 258.809 42.8557 258.287 41.9901C257.769 41.1191 257.511 40.1294 257.511 39.0209V28.2843H259.474V38.8625C259.474 39.6543 259.648 40.359 259.997 40.9766C260.345 41.5889 260.841 42.0719 261.485 42.4255C262.135 42.7739 262.911 42.9481 263.813 42.9481C264.716 42.9481 265.492 42.7739 266.141 42.4255C266.79 42.0719 267.287 41.5889 267.63 40.9766C267.978 40.359 268.152 39.6543 268.152 38.8625V28.2843ZM287.086 33.3517H285.122C285.006 32.7869 284.803 32.2908 284.512 31.8632C284.227 31.4356 283.879 31.0767 283.467 30.7864C283.061 30.4908 282.609 30.2691 282.113 30.1213C281.617 29.9735 281.1 29.8996 280.561 29.8996C279.58 29.8996 278.69 30.1477 277.893 30.6438C277.101 31.14 276.471 31.8711 276.001 32.8371C275.536 33.8031 275.304 34.9881 275.304 36.3922C275.304 37.7963 275.536 38.9813 276.001 39.9473C276.471 40.9132 277.101 41.6443 277.893 42.1405C278.69 42.6367 279.58 42.8848 280.561 42.8848C281.1 42.8848 281.617 42.8109 282.113 42.6631C282.609 42.5153 283.061 42.2962 283.467 42.0059C283.879 41.7103 284.227 41.3487 284.512 40.9212C284.803 40.4883 285.006 39.9921 285.122 39.4326H287.086C286.938 40.2613 286.669 41.003 286.278 41.6575C285.887 42.312 285.402 42.8689 284.821 43.3282C284.241 43.7821 283.589 44.1279 282.865 44.3654C282.148 44.6029 281.38 44.7217 280.561 44.7217C279.178 44.7217 277.948 44.3839 276.872 43.7082C275.795 43.0326 274.948 42.0719 274.33 40.8261C273.712 39.5804 273.404 38.1024 273.404 36.3922C273.404 34.6819 273.712 33.2039 274.33 31.9582C274.948 30.7125 275.795 29.7518 276.872 29.0761C277.948 28.4005 279.178 28.0626 280.561 28.0626C281.38 28.0626 282.148 28.1814 282.865 28.4189C283.589 28.6565 284.241 29.0049 284.821 29.4641C285.402 29.918 285.887 30.4723 286.278 31.1268C286.669 31.7761 286.938 32.5177 287.086 33.3517ZM290.924 44.5H288.865L294.819 28.2843H296.846L302.801 44.5H300.742L295.896 30.8497H295.769L290.924 44.5ZM291.684 38.1658H299.982V39.9077H291.684V38.1658ZM302.545 30.0263V28.2843H314.707V30.0263H309.608V44.5H307.644V30.0263H302.545ZM319.701 28.2843V44.5H317.737V28.2843H319.701ZM337.32 36.3922C337.32 38.1024 337.011 39.5804 336.394 40.8261C335.776 42.0719 334.929 43.0326 333.852 43.7082C332.775 44.3839 331.545 44.7217 330.162 44.7217C328.779 44.7217 327.55 44.3839 326.473 43.7082C325.396 43.0326 324.549 42.0719 323.931 40.8261C323.314 39.5804 323.005 38.1024 323.005 36.3922C323.005 34.6819 323.314 33.2039 323.931 31.9582C324.549 30.7125 325.396 29.7518 326.473 29.0761C327.55 28.4005 328.779 28.0626 330.162 28.0626C331.545 28.0626 332.775 28.4005 333.852 29.0761C334.929 29.7518 335.776 30.7125 336.394 31.9582C337.011 33.2039 337.32 34.6819 337.32 36.3922ZM335.42 36.3922C335.42 34.9881 335.185 33.8031 334.715 32.8371C334.251 31.8711 333.62 31.14 332.823 30.6438C332.031 30.1477 331.144 29.8996 330.162 29.8996C329.181 29.8996 328.291 30.1477 327.494 30.6438C326.702 31.14 326.072 31.8711 325.602 32.8371C325.137 33.8031 324.905 34.9881 324.905 36.3922C324.905 37.7963 325.137 38.9813 325.602 39.9473C326.072 40.9132 326.702 41.6443 327.494 42.1405C328.291 42.6367 329.181 42.8848 330.162 42.8848C331.144 42.8848 332.031 42.6367 332.823 42.1405C333.62 41.6443 334.251 40.9132 334.715 39.9473C335.185 38.9813 335.42 37.7963 335.42 36.3922ZM353.48 28.2843V44.5H351.58L342.744 31.7682H342.585V44.5H340.622V28.2843H342.522L351.39 41.0478H351.548V28.2843H353.48Z" fill="#242321"/>
<defs>
<clipPath id="clip0_2490_6028">
<rect width="53" height="45" fill="white"/>
</clipPath>
</defs>
</svg>
