<svg width="24" height="24" viewBox="0 0 24 24" fill="none" xmlns="http://www.w3.org/2000/svg">
<path d="M6.27783 9.28119C8.1369 9.48534 9.54822 11.0618 9.54822 12.9351C9.54822 13.163 9.52748 13.3859 9.48776 13.6022H12.9421C13.6056 12.096 15.0963 11.118 16.7505 11.118C18.4049 11.118 19.8954 12.096 20.5592 13.6022H21.4509V3.1057H6.27783V9.28119ZM14.6638 15.4653C14.2977 14.8837 15.1831 14.3264 15.5492 14.908L16.0624 15.721L18.0116 13.6244C18.4806 13.1203 19.2468 13.8334 18.7778 14.3375L16.3665 16.9315C16.133 17.1786 15.7252 17.1468 15.5408 16.8536L14.6638 15.4653ZM13.6397 15.2781C13.6397 16.996 15.0326 18.3888 16.7505 18.3888C18.4687 18.3888 19.8613 16.996 19.8613 15.2781C19.8613 13.5867 18.4947 12.1671 16.7505 12.1671C15.0326 12.1671 13.6397 13.5599 13.6397 15.2781ZM12.6375 14.6512H9.12374C8.96563 14.9505 8.7673 15.225 8.53634 15.4681C9.60843 16.2965 10.2439 17.5695 10.2439 18.9284V21.4197C10.2439 21.7093 10.0091 21.9441 9.71948 21.9441H2.02441C1.73476 21.9441 1.5 21.7093 1.5 21.4197V18.9284C1.5 17.5692 2.13546 16.2968 3.2078 15.4681C2.58069 14.8088 2.19567 13.9169 2.19567 12.9351C2.19567 11.1522 3.47746 9.62397 5.22877 9.31484V2.5813C5.22877 2.2914 5.46352 2.05664 5.75317 2.05664H21.9756C22.2652 2.05664 22.5 2.2914 22.5 2.5813V14.1268C22.5 14.4165 22.2652 14.6512 21.9756 14.6512H20.8635C20.8944 14.8556 20.9106 15.0651 20.9106 15.2781C20.9106 17.5753 19.048 19.4379 16.7505 19.4379C14.453 19.4379 12.5907 17.5756 12.5907 15.2781C12.5907 15.0648 12.6066 14.8556 12.6375 14.6512ZM15.4174 6.12009C14.7273 6.12009 14.7273 5.07102 15.4174 5.07102H18.669C19.3589 5.07102 19.3589 6.12009 18.669 6.12009H15.4174ZM15.4174 8.31232C14.7273 8.31232 14.7273 7.26326 15.4174 7.26326H18.669C19.3589 7.26326 19.3589 8.31232 18.669 8.31232H15.4174ZM9.05974 4.50488H13.426C13.7156 4.50488 13.9506 4.73963 13.9506 5.02928V8.35381C13.9506 8.64371 13.7156 8.87847 13.426 8.87847H9.05974C8.77009 8.87847 8.53533 8.64371 8.53533 8.35381V5.02928C8.53533 4.73963 8.77009 4.50488 9.05974 4.50488ZM12.9013 5.55394H9.5844V7.8294H12.9013V5.55394ZM3.24473 12.9351C3.24473 14.3914 4.42635 15.5622 5.87207 15.5622C7.31298 15.5622 8.49916 14.3955 8.49916 12.9351C8.49916 11.4843 7.32285 10.308 5.87207 10.308C4.4218 10.308 3.24473 11.484 3.24473 12.9351ZM7.67346 16.1405C7.14096 16.4402 6.5265 16.6115 5.87207 16.6115C5.21739 16.6115 4.60292 16.4402 4.07042 16.1405C3.12533 16.7549 2.54906 17.7982 2.54906 18.9284V20.895H9.19482V18.9284C9.19482 17.7982 8.61856 16.7549 7.67346 16.1405Z" fill="#7F56DA"/>
</svg>
