<svg width="24" height="24" viewBox="0 0 24 24" fill="none" xmlns="http://www.w3.org/2000/svg">
<path d="M10.9143 7.92482L10.8719 7.75503C10.6596 7.07585 10.0653 6.65137 9.38615 6.65137H4.92899C4.08001 6.65137 3.35837 7.33054 3.35837 8.22196V12.297C3.01878 12.3395 2.67919 12.5092 2.42449 12.7639C2.12735 13.0611 2 13.4856 2 13.9525L2.72164 20.0651C2.76408 20.8716 3.44327 21.5083 4.29225 21.5083H19.7862C20.5927 21.5083 21.2719 20.8716 21.3144 20.1075L21.9935 13.9525C22.036 13.528 21.8662 13.1035 21.5691 12.7639C21.3993 12.5941 21.187 12.4668 20.9748 12.3819V9.70765C20.9748 8.85868 20.2956 8.13706 19.4041 8.13706V9.41051C19.5739 9.41051 19.7013 9.53786 19.7013 9.70765V12.297H4.63185V8.26441C4.63185 8.09461 4.75919 7.96727 4.92899 7.96727H9.38615C9.5135 7.96727 9.5984 8.05216 9.64084 8.17951L9.68329 8.3493C9.89554 9.02848 10.4898 9.45296 11.169 9.45296H13.716V8.17951H11.169C11.0417 8.09461 10.9568 8.05216 10.9143 7.92482ZM20.4229 13.528C20.5503 13.528 20.5927 13.5705 20.6352 13.6129C20.6776 13.6554 20.7201 13.6978 20.7201 13.7827L20.0409 19.9377C20.0409 20.0651 19.9135 20.1924 19.7437 20.1924H4.29225C4.16491 20.1924 4.03756 20.0651 3.99511 19.8953L3.31592 13.8251C3.31592 13.7402 3.35837 13.6554 3.40082 13.6129C3.44327 13.5705 3.48572 13.528 3.61307 13.528H20.4229Z" fill="#7F56DA"/>
<path d="M18.6826 11.4478V6.8634H21.1871L16.6026 2.49121L12.0181 6.8634H14.5226V11.4478H18.6826ZM16.6026 4.27404L18.0034 5.58994H17.4516V10.1744H15.796V5.58994H15.2442L16.6026 4.27404Z" fill="#7F56DA"/>
</svg>
