<svg width="24" height="25" viewBox="0 0 24 25" fill="none" xmlns="http://www.w3.org/2000/svg">
<path d="M10.9143 8.51271L10.8719 8.34292C10.6596 7.66374 10.0653 7.23926 9.38615 7.23926H4.92899C4.08001 7.23926 3.35837 7.91843 3.35837 8.80985V12.8849C3.01878 12.9273 2.67919 13.0971 2.42449 13.3518C2.12735 13.649 2 14.0735 2 14.5404L2.72164 20.653C2.76408 21.4595 3.44327 22.0962 4.29225 22.0962H19.7862C20.5927 22.0962 21.2719 21.4595 21.3144 20.6954L21.9935 14.5404C22.036 14.1159 21.8662 13.6914 21.5691 13.3518C21.3993 13.182 21.187 13.0547 20.9748 12.9698V10.2955C20.9748 9.44657 20.2956 8.72495 19.4041 8.72495V9.9984C19.5739 9.9984 19.7013 10.1257 19.7013 10.2955V12.8849H4.63185V8.8523C4.63185 8.6825 4.75919 8.55516 4.92899 8.55516H9.38615C9.5135 8.55516 9.5984 8.64006 9.64084 8.7674L9.68329 8.93719C9.89554 9.61637 10.4898 10.0409 11.169 10.0409H13.716V8.7674H11.169C11.0417 8.6825 10.9568 8.64005 10.9143 8.51271ZM20.4229 14.1159C20.5503 14.1159 20.5927 14.1583 20.6352 14.2008C20.6776 14.2432 20.7201 14.2857 20.7201 14.3706L20.0409 20.5256C20.0409 20.653 19.9135 20.7803 19.7437 20.7803H4.29225C4.16491 20.7803 4.03756 20.653 3.99511 20.4832L3.31592 14.413C3.31592 14.3281 3.35837 14.2432 3.40082 14.2008C3.44327 14.1583 3.48572 14.1159 3.61307 14.1159H20.4229Z" fill="white"/>
<path d="M18.6826 12.0357V7.45129H21.1871L16.6026 3.0791L12.0181 7.45129H14.5226V12.0357H18.6826ZM16.6026 4.86193L18.0034 6.17783H17.4516V10.7623H15.796V6.17783H15.2442L16.6026 4.86193Z" fill="white"/>
</svg>
