<svg width="24" height="24" viewBox="0 0 24 24" fill="none" xmlns="http://www.w3.org/2000/svg">
<path d="M13.2598 16.5H3C2.60231 16.4996 2.22103 16.3414 1.93982 16.0602C1.65861 15.779 1.50043 15.3977 1.5 15V3C1.50043 2.60231 1.65861 2.22103 1.93982 1.93982C2.22103 1.65861 2.60231 1.50043 3 1.5H20C20.3977 1.50043 20.779 1.65861 21.0602 1.93982C21.3414 2.22103 21.4996 2.60231 21.5 3V14.6799C21.5 14.8125 21.4473 14.9397 21.3536 15.0335C21.2598 15.1273 21.1326 15.1799 21 15.1799C20.8674 15.1799 20.7402 15.1273 20.6464 15.0335C20.5527 14.9397 20.5 14.8125 20.5 14.6799V3C20.4999 2.86743 20.4471 2.74033 20.3534 2.64659C20.2597 2.55285 20.1326 2.50013 20 2.5H3C2.86743 2.50013 2.74033 2.55285 2.64659 2.64659C2.55285 2.74033 2.50013 2.86743 2.5 3V15C2.50013 15.1326 2.55285 15.2597 2.64659 15.3534C2.74033 15.4471 2.86743 15.4999 3 15.5H13.2598C13.3924 15.5 13.5196 15.5527 13.6133 15.6464C13.7071 15.7402 13.7598 15.8674 13.7598 16C13.7598 16.1326 13.7071 16.2598 13.6133 16.3536C13.5196 16.4473 13.3924 16.5 13.2598 16.5Z" fill="#39886F"/>
<path d="M11.5 12.5C10.8078 12.5 10.1311 12.2947 9.55551 11.9101C8.97993 11.5256 8.53133 10.9789 8.26642 10.3394C8.00152 9.69985 7.9322 8.99612 8.06725 8.31719C8.2023 7.63825 8.53564 7.01461 9.02513 6.52513C9.51461 6.03564 10.1383 5.7023 10.8172 5.56725C11.4961 5.4322 12.1999 5.50152 12.8394 5.76642C13.4789 6.03133 14.0256 6.47993 14.4101 7.05551C14.7947 7.63108 15 8.30777 15 9C14.9989 9.92793 14.6298 10.8175 13.9737 11.4737C13.3175 12.1298 12.4279 12.4989 11.5 12.5ZM11.5 6.5C11.0055 6.5 10.5222 6.64662 10.1111 6.92133C9.69995 7.19603 9.37952 7.58648 9.1903 8.04329C9.00108 8.50011 8.95158 9.00278 9.04804 9.48773C9.1445 9.97268 9.3826 10.4181 9.73223 10.7678C10.0819 11.1174 10.5273 11.3555 11.0123 11.452C11.4972 11.5484 11.9999 11.4989 12.4567 11.3097C12.9135 11.1205 13.304 10.8001 13.5787 10.3889C13.8534 9.9778 14 9.49446 14 9C13.9992 8.3372 13.7356 7.70177 13.2669 7.23309C12.7982 6.76442 12.1628 6.50078 11.5 6.5Z" fill="#39886F"/>
<path d="M6 9.75C6.41421 9.75 6.75 9.41421 6.75 9C6.75 8.58579 6.41421 8.25 6 8.25C5.58579 8.25 5.25 8.58579 5.25 9C5.25 9.41421 5.58579 9.75 6 9.75Z" fill="#39886F"/>
<path d="M17 9.75C17.4142 9.75 17.75 9.41421 17.75 9C17.75 8.58579 17.4142 8.25 17 8.25C16.5858 8.25 16.25 8.58579 16.25 9C16.25 9.41421 16.5858 9.75 17 9.75Z" fill="#39886F"/>
<path d="M2 6.5C1.93433 6.50002 1.86931 6.4871 1.80864 6.46198C1.74797 6.43685 1.69284 6.40002 1.64641 6.35359C1.59998 6.30716 1.56315 6.25203 1.53803 6.19136C1.5129 6.13069 1.49998 6.06567 1.5 6V3C1.50043 2.60231 1.65861 2.22103 1.93982 1.93982C2.22103 1.65861 2.60231 1.50043 3 1.5H6C6.06567 1.49998 6.13069 1.5129 6.19136 1.53803C6.25203 1.56315 6.30716 1.59998 6.35359 1.64641C6.40002 1.69284 6.43685 1.74797 6.46198 1.80864C6.4871 1.86931 6.50002 1.93433 6.5 2C6.49866 3.19306 6.02412 4.33687 5.1805 5.1805C4.33687 6.02412 3.19306 6.49866 2 6.5ZM3 2.5C2.86743 2.50013 2.74033 2.55285 2.64659 2.64659C2.55285 2.74033 2.50013 2.86743 2.5 3V5.46436C3.2474 5.35526 3.93963 5.00782 4.47373 4.47373C5.00782 3.93963 5.35526 3.2474 5.46436 2.5H3Z" fill="#39886F"/>
<path d="M21 6.375C20.9578 6.37502 20.9158 6.36969 20.875 6.35913C19.9087 6.10966 19.0527 5.54604 18.4418 4.75692C17.8308 3.96781 17.4995 2.99798 17.5 2C17.5 1.93433 17.5129 1.86931 17.538 1.80864C17.5631 1.74797 17.6 1.69284 17.6464 1.64641C17.6928 1.59998 17.748 1.56315 17.8086 1.53803C17.8693 1.5129 17.9343 1.49998 18 1.5H20C20.3977 1.50043 20.779 1.65861 21.0602 1.93982C21.3414 2.22103 21.4996 2.60231 21.5 3V5.875C21.5 6.0076 21.4473 6.13476 21.3535 6.22853C21.2598 6.32229 21.1326 6.37497 21 6.375ZM18.5356 2.5C18.618 3.07171 18.8404 3.61419 19.1831 4.07912C19.5259 4.54406 19.9782 4.91702 20.5 5.16479V3C20.4999 2.86743 20.4471 2.74033 20.3534 2.64659C20.2597 2.55285 20.1326 2.50013 20 2.5H18.5356Z" fill="#39886F"/>
<path d="M5.8745 16.5002C5.76366 16.5 5.65602 16.4631 5.56845 16.3951C5.48089 16.3272 5.41834 16.2321 5.39061 16.1247C5.19661 15.3732 4.75821 14.7074 4.1444 14.2322C3.5306 13.7571 2.77623 13.4995 2 13.5C1.86739 13.5 1.74021 13.4473 1.64645 13.3536C1.55268 13.2598 1.5 13.1326 1.5 13C1.5 12.8674 1.55268 12.7402 1.64645 12.6464C1.74021 12.5527 1.86739 12.5 2 12.5C2.99805 12.4995 3.96793 12.8309 4.75709 13.4419C5.54624 14.0529 6.10989 14.9089 6.35938 15.8752C6.39239 16.0036 6.37308 16.1399 6.3057 16.2541C6.23831 16.3682 6.12836 16.451 6 16.4841C5.95901 16.4947 5.91684 16.5002 5.8745 16.5002Z" fill="#39886F"/>
<path d="M19.8202 14.1449C19.7124 14.145 19.6075 14.1103 19.521 14.046C19.4346 13.9816 19.3712 13.8911 19.3404 13.7878C19.3096 13.6845 19.313 13.574 19.3501 13.4728C19.3872 13.3716 19.456 13.2851 19.5463 13.2262C19.9543 12.9604 20.4029 12.7627 20.8744 12.641C21.0027 12.6077 21.139 12.6268 21.2533 12.694C21.3676 12.7612 21.4505 12.8711 21.4838 12.9994C21.5171 13.1277 21.498 13.264 21.4308 13.3783C21.3636 13.4926 21.2537 13.5755 21.1254 13.6088C20.7589 13.7033 20.4102 13.8569 20.0932 14.0636C20.0121 14.1167 19.9172 14.145 19.8202 14.1449Z" fill="#39886F"/>
<path d="M17.5 22.5C16.5111 22.5 15.5444 22.2068 14.7222 21.6574C13.8999 21.1079 13.259 20.3271 12.8806 19.4134C12.5022 18.4998 12.4031 17.4945 12.5961 16.5246C12.789 15.5546 13.2652 14.6637 13.9645 13.9645C14.6637 13.2652 15.5546 12.789 16.5246 12.5961C17.4945 12.4031 18.4998 12.5022 19.4134 12.8806C20.3271 13.259 21.1079 13.8999 21.6574 14.7222C22.2068 15.5444 22.5 16.5111 22.5 17.5C22.4985 18.8256 21.9712 20.0965 21.0339 21.0339C20.0965 21.9712 18.8256 22.4985 17.5 22.5ZM17.5 13.5C16.7089 13.5 15.9355 13.7346 15.2777 14.1741C14.6199 14.6137 14.1072 15.2384 13.8045 15.9693C13.5017 16.7002 13.4225 17.5044 13.5769 18.2804C13.7312 19.0563 14.1122 19.769 14.6716 20.3284C15.231 20.8878 15.9437 21.2688 16.7196 21.4231C17.4956 21.5775 18.2998 21.4983 19.0307 21.1955C19.7616 20.8928 20.3864 20.3801 20.8259 19.7223C21.2654 19.0645 21.5 18.2911 21.5 17.5C21.4988 16.4395 21.077 15.4228 20.3271 14.6729C19.5772 13.923 18.5605 13.5012 17.5 13.5Z" fill="#39886F"/>
<path d="M17 19.5009C16.9343 19.5009 16.8693 19.488 16.8086 19.4628C16.748 19.4377 16.6929 19.4009 16.6465 19.3544L15.3965 18.1044C15.3494 18.0581 15.3119 18.003 15.2862 17.9421C15.2605 17.8813 15.2471 17.816 15.2468 17.75C15.2465 17.6839 15.2593 17.6185 15.2844 17.5574C15.3096 17.4964 15.3466 17.4409 15.3933 17.3942C15.44 17.3475 15.4954 17.3105 15.5565 17.2854C15.6176 17.2602 15.683 17.2475 15.749 17.2478C15.8151 17.2481 15.8804 17.2614 15.9412 17.2871C16.0021 17.3128 16.0572 17.3503 16.1035 17.3974L16.9585 18.2524L18.6094 16.1887C18.6923 16.0855 18.8128 16.0194 18.9444 16.005C19.076 15.9905 19.2079 16.0288 19.3113 16.1114C19.4147 16.1941 19.4812 16.3144 19.496 16.4459C19.5109 16.5775 19.473 16.7095 19.3906 16.8132L17.3906 19.3132C17.3467 19.3681 17.2916 19.4131 17.2291 19.4453C17.1666 19.4775 17.098 19.4962 17.0278 19.5002C17.0185 19.5007 17.0092 19.5009 17 19.5009Z" fill="#39886F"/>
</svg>
