<svg width="24" height="25" viewBox="0 0 24 25" fill="none" xmlns="http://www.w3.org/2000/svg">
<path d="M16.4904 5.43262H6.73213C6.35938 5.43262 6.05713 5.73487 6.05713 6.10762C6.05713 6.48037 6.35938 6.78262 6.73213 6.78262H16.4911C16.8639 6.78262 17.1661 6.48037 17.1661 6.10762C17.1661 5.73487 16.8631 5.43262 16.4904 5.43262Z" fill="#222F3E"/>
<path d="M17.1654 9.91328C17.1654 9.54053 16.8631 9.23828 16.4904 9.23828H6.73213C6.35938 9.23828 6.05713 9.54053 6.05713 9.91328C6.05713 10.286 6.35938 10.5883 6.73213 10.5883H16.4911C16.8631 10.5883 17.1654 10.286 17.1654 9.91328Z" fill="#222F3E"/>
<path d="M6.73213 13.0449C6.35938 13.0449 6.05713 13.3472 6.05713 13.7199C6.05713 14.0927 6.35938 14.3949 6.73213 14.3949H11.6476C12.0204 14.3949 12.3226 14.0927 12.3226 13.7199C12.3226 13.3472 12.0204 13.0449 11.6476 13.0449H6.73213Z" fill="#222F3E"/>
<path d="M8.48481 22.3252H4.30806C3.73206 22.3252 3.26406 21.8564 3.26406 21.2812V3.7192C3.26406 3.1432 3.73281 2.6752 4.30806 2.6752H18.9151C19.4903 2.6752 19.9591 3.14395 19.9591 3.7192V10.1279C19.9591 10.5007 20.2613 10.8029 20.6341 10.8029C21.0068 10.8029 21.3091 10.5007 21.3091 10.1279V3.7192C21.3091 2.3992 20.2351 1.3252 18.9158 1.3252H4.30806C2.98806 1.3252 1.91406 2.3992 1.91406 3.7192V21.2812C1.91406 22.6012 2.98806 23.6752 4.30806 23.6752H8.48481C8.85756 23.6752 9.15981 23.3729 9.15981 23.0002C9.15981 22.6274 8.85756 22.3252 8.48481 22.3252Z" fill="#222F3E"/>
<path d="M21.3503 13.1854C20.3708 12.2051 18.7755 12.2051 17.7968 13.1854L11.5905 19.3916C11.394 19.5881 11.265 19.8371 11.2185 20.1109L10.8795 22.1231C10.8075 22.5469 10.9463 22.9811 11.25 23.2849C11.5005 23.5361 11.8418 23.6749 12.1913 23.6749C12.2648 23.6749 12.3383 23.6689 12.4118 23.6561L14.4225 23.3164C14.697 23.2706 14.9468 23.1424 15.1433 22.9451L21.3495 16.7389C22.3298 15.7594 22.3298 14.1649 21.3503 13.1854ZM14.1998 21.9851L12.2108 22.3474L12.5445 20.3456L17.0108 15.8794L18.6563 17.5249L14.1998 21.9851ZM20.3955 15.7841L19.6103 16.5701L17.9648 14.9246L18.7508 14.1386C18.9773 13.9121 19.2758 13.7989 19.5735 13.7989C19.8713 13.7989 20.169 13.9121 20.3963 14.1386C20.8493 14.5931 20.8493 15.3304 20.3955 15.7841Z" fill="#222F3E"/>
</svg>
