<svg width="22" height="25" viewBox="0 0 22 25" fill="none" xmlns="http://www.w3.org/2000/svg">
<path d="M7.32495 18.8004C9.2286 16.7487 12.7503 16.6521 14.675 18.8004M13.037 12.5004C13.037 13.6606 12.1224 14.6004 10.9926 14.6004C9.86385 14.6004 8.94825 13.6606 8.94825 12.5004C8.94825 11.3401 9.86385 10.4004 10.9926 10.4004C12.1214 10.4004 13.038 11.3401 13.038 12.5004" stroke="#222F3E" stroke-width="1.5" stroke-linecap="round" stroke-linejoin="round"/>
<path d="M8.37495 4.10254C5.59875 4.11304 4.113 4.20964 3.1512 5.12104C2.07495 6.14059 2.07495 7.78174 2.07495 11.064V16.0379C2.07495 19.3202 2.07495 20.9624 3.1512 21.9809C4.22745 23.0015 5.95995 23.0015 9.42495 23.0015H12.575C16.04 23.0015 17.7725 23.0015 18.8487 21.9819C19.925 20.9613 19.925 19.3202 19.925 16.0389V11.064C19.925 7.78174 19.925 6.14059 18.8487 5.12104C17.8869 4.20964 16.4022 4.11304 13.625 4.10254" stroke="#222F3E" stroke-width="1.5" stroke-linecap="round" stroke-linejoin="round"/>
<path d="M8.66057 3.7136C8.76137 3.27785 8.81177 3.05945 8.90837 2.882C9.02847 2.67086 9.19187 2.48751 9.38786 2.34401C9.58384 2.2005 9.80797 2.10008 10.0455 2.04935C10.2587 2 10.5065 2 11 2C11.4935 2 11.7413 2 11.9544 2.04935C12.192 2.10008 12.4161 2.2005 12.6121 2.34401C12.8081 2.48751 12.9715 2.67086 13.0916 2.882C13.1882 3.0605 13.2386 3.27785 13.3394 3.7136L13.4265 4.0916C13.605 4.86335 13.6943 5.24975 13.5599 5.5469C13.4683 5.74412 13.3193 5.90915 13.1325 6.02045C12.8375 6.2 12.3986 6.2 11.5229 6.2H10.4771C9.60137 6.2 9.16247 6.2 8.86742 6.0215C8.68044 5.90993 8.5315 5.74451 8.44007 5.5469C8.30567 5.24975 8.39492 4.8644 8.57342 4.0916L8.66057 3.7136Z" stroke="#222F3E" stroke-width="1.5" stroke-linecap="round" stroke-linejoin="round"/>
</svg>
