<svg width="8" height="8" viewBox="0 0 8 8" fill="none" xmlns="http://www.w3.org/2000/svg">
<path d="M4.99228 1.72104C4.7524 1.26892 4.45624 0.971781 4.1443 0.883924V2.30348C4.5135 2.29854 4.87579 2.27582 5.21538 2.2393C5.15121 2.05371 5.07718 1.88096 4.99327 1.72104H4.99228ZM4.17787 5.80198C4.16602 5.80198 4.15515 5.80198 4.14331 5.80198V7.03989C4.45624 6.95302 4.75141 6.63121 4.99129 6.17909C5.04756 6.07247 5.09989 5.95995 5.14628 5.84149C4.83533 5.81582 4.50955 5.80198 4.17688 5.80198H4.17787ZM4.14331 4.16723V5.39034C4.15417 5.39034 4.16602 5.39034 4.17787 5.39034C4.55793 5.39034 4.9291 5.40811 5.28349 5.44069C5.39405 5.05076 5.46019 4.61837 5.47598 4.16723H4.1443H4.14331ZM5.88666 4.16723C5.87086 4.6312 5.80569 5.0784 5.69612 5.48708C6.16995 5.55125 6.59741 5.64405 6.94687 5.7635C7.23611 5.28275 7.40491 4.73782 7.43749 4.16723H5.88666ZM2.7445 5.88393C2.78695 5.98659 2.83334 6.08531 2.8827 6.17909C3.12258 6.63121 3.41874 6.95302 3.73068 7.03989V5.8089C3.37925 5.82075 3.04855 5.84543 2.7445 5.88393ZM5.56978 5.8859C5.5066 6.05866 5.43452 6.22055 5.35357 6.37257C5.03274 6.97671 4.60826 7.37948 4.14232 7.4624C5.00115 7.41304 5.80273 7.05469 6.41576 6.44167C6.51941 6.33801 6.6142 6.23041 6.70304 6.11688C6.38024 6.01718 5.99426 5.93921 5.56978 5.8859ZM6.41576 1.48314C5.80273 0.87011 5.00115 0.511761 4.14232 0.462402C4.60826 0.546311 5.03274 0.925387 5.35357 1.52855C5.46019 1.72894 5.552 1.94909 5.62801 2.18502C5.97944 2.13073 6.29731 2.05865 6.5668 1.97079C6.59642 1.95993 6.64281 1.93823 6.76522 1.88887C6.66058 1.74672 6.5441 1.61048 6.41675 1.48314H6.41576ZM2.51943 6.37257C2.44835 6.2393 2.38518 6.09715 2.32693 5.94808C2.04757 5.99843 1.7988 6.06162 1.58952 6.13665C1.47107 6.1791 1.37334 6.22251 1.29338 6.26595C1.3457 6.32616 1.40097 6.38441 1.45724 6.44167C2.07125 7.05469 2.87185 7.41304 3.73068 7.4624C3.26474 7.37849 2.84026 6.97573 2.51943 6.37257ZM1.45724 1.48314C1.33483 1.60555 1.2223 1.73585 1.12062 1.87306C1.1838 1.89774 1.24994 1.92242 1.31904 1.94611L1.32102 1.9471C1.58558 2.03891 1.90048 2.11492 2.24993 2.17218C2.32496 1.94118 2.41578 1.72499 2.52041 1.52855C2.84124 0.9244 3.26573 0.545324 3.73266 0.462402C2.87284 0.511761 2.07224 0.87011 1.45822 1.48314H1.45724ZM1.18577 2.33606C1.14529 2.32224 1.02881 2.28176 0.890605 2.22351C0.623083 2.68945 0.468113 3.21167 0.436523 3.75757H1.98637C1.99821 3.34395 2.05054 2.94316 2.13741 2.571C1.78104 2.50979 1.45822 2.43083 1.18478 2.33606H1.18577ZM1.98736 4.16822H0.436523C0.473049 4.80889 0.681326 5.41602 1.03868 5.93823C1.15714 5.86814 1.29534 5.80494 1.45131 5.74867C1.66651 5.67266 1.91725 5.60652 2.19662 5.55421C2.0752 5.12775 2.00414 4.65786 1.98736 4.16822ZM6.99228 2.2393C6.77806 2.32419 6.69217 2.35875 6.66453 2.3706C6.67539 2.36665 6.68626 2.3637 6.6981 2.35975C6.70501 2.35778 6.62504 2.38738 6.66453 2.3706C6.39405 2.45648 6.08014 2.52856 5.73759 2.58384C5.82348 2.95205 5.87382 3.3479 5.88666 3.75757H7.4365C7.4059 3.21858 7.25289 2.70129 6.99228 2.24029V2.2393ZM2.399 4.16822C2.41578 4.63811 2.48587 5.08729 2.60532 5.48906C2.95083 5.44168 3.3289 5.41205 3.73068 5.39823V4.16822H2.399ZM2.8827 1.72203C2.79879 1.87898 2.72574 2.04978 2.66355 2.23142C3.00017 2.2709 3.36049 2.29558 3.73167 2.30249V0.883924C3.41972 0.970794 3.12357 1.26892 2.88368 1.72104L2.8827 1.72203ZM2.54608 2.63122C2.4602 2.98266 2.40985 3.3627 2.39702 3.75757H3.72969V2.71512C3.31804 2.70722 2.91824 2.67861 2.54509 2.63122H2.54608ZM5.32889 2.64108C4.95278 2.68452 4.55199 2.71018 4.14232 2.71611V3.75757H5.47499C5.46216 3.36665 5.4128 2.98856 5.32889 2.64108Z" fill="#E31F25"/>
</svg>
