<svg width="22" height="23" viewBox="0 0 22 23" fill="none" xmlns="http://www.w3.org/2000/svg">
<g clip-path="url(#clip0_146_2607)">
<path d="M2.63583 3.26082H19.365V10.3879L21.5008 8.63707L20.0525 7.44999V2.91707C20.0525 2.72915 19.8967 2.57332 19.7087 2.57332H14.1446L11.7108 0.57957C11.2983 0.240404 10.7025 0.240404 10.2854 0.57957L7.85167 2.57332H2.29208C2.10417 2.57332 1.94833 2.72915 1.94833 2.91707V7.44999L0.5 8.63707L2.63583 10.3879V3.26082Z" fill="#3A4EFF"/>
<path d="M11.8714 17.4229C11.6193 17.6291 11.3077 17.7346 11.0006 17.7346C10.6935 17.7346 10.3818 17.6291 10.1297 17.4229L7.39807 15.1816L0.816406 21.7587C0.949323 21.8229 1.10057 21.8641 1.25641 21.8641H20.7356C20.896 21.8641 21.0427 21.8275 21.1756 21.7633L14.6031 15.1816L11.8714 17.4229Z" fill="#3A4EFF"/>
<path d="M15.1348 14.7468L21.666 21.278C21.7302 21.1451 21.7714 20.9938 21.7714 20.838V9.30176L15.1348 14.7468Z" fill="#3A4EFF"/>
<path d="M0.229492 9.30176V20.8334C0.229492 20.9938 0.266159 21.1405 0.330326 21.2734L6.86158 14.7422L0.229492 9.30176Z" fill="#3A4EFF"/>
<path d="M8.12195 12.18C8.50695 12.5283 8.9882 12.7987 9.55195 12.9821C10.1203 13.17 10.7574 13.2617 11.4632 13.2617C11.9353 13.2617 12.3707 13.2204 12.7695 13.1333C13.1682 13.0462 13.5303 12.9225 13.8511 12.7575L13.4203 12.0746C13.049 12.2533 12.5999 12.3725 12.0682 12.4367C11.399 12.5054 10.794 12.4825 10.2624 12.3633C9.7307 12.2487 9.27695 12.0517 8.90112 11.7721C8.52529 11.4925 8.24112 11.1487 8.04404 10.7408C7.84695 10.3329 7.74612 9.87915 7.74612 9.38415C7.74612 9.0129 7.79195 8.65082 7.88362 8.29332C7.97529 7.93582 8.1082 7.6104 8.28695 7.31707C8.48404 6.98249 8.73154 6.69832 9.02945 6.46915C9.32737 6.23999 9.67112 6.06582 10.0607 5.94207C10.4503 5.81832 10.8811 5.75874 11.3532 5.75874C11.8115 5.75874 12.224 5.8229 12.5907 5.94665C12.9528 6.07499 13.2599 6.24915 13.5074 6.47374C13.7549 6.69832 13.9428 6.96415 14.0757 7.26665C14.2086 7.57374 14.2728 7.89915 14.2728 8.2429C14.2728 8.6554 14.1811 9.0404 13.9978 9.38874C13.8145 9.73707 13.599 10.0167 13.3561 10.2183C13.1086 10.42 12.9115 10.5208 12.7557 10.5208C12.7099 10.5208 12.6686 10.5025 12.6365 10.4658C12.6045 10.4292 12.5861 10.3787 12.5861 10.31C12.5861 10.2458 12.6045 10.1175 12.6457 9.9204L13.0674 7.9404C13.1911 7.36749 12.7511 6.82665 12.1645 6.82665L12.0545 7.3079C11.7932 6.88624 11.3624 6.69374 10.7711 6.7304C10.3861 6.75332 10.0103 6.89999 9.70779 7.13832C9.3457 7.4179 9.06612 7.77999 8.86904 8.21999C8.67654 8.6554 8.5757 9.09999 8.5757 9.55374C8.5757 9.98915 8.67195 10.3558 8.85987 10.6492C9.04779 10.9471 9.29529 11.1579 9.60237 11.2817C9.90945 11.4054 10.2211 11.4375 10.5465 11.3733C10.872 11.3092 11.1607 11.1533 11.4082 10.9058C11.4495 11.08 11.5365 11.2037 11.6695 11.2817C11.7978 11.3596 11.9811 11.4008 12.2149 11.4008C12.6182 11.4008 12.994 11.3137 13.3424 11.1442C13.6907 10.9746 13.9932 10.7408 14.2499 10.4429C14.5065 10.1496 14.7036 9.81499 14.8457 9.44374C14.9832 9.07249 15.052 8.69665 15.052 8.31165C15.052 7.81665 14.9649 7.3629 14.7953 6.95499C14.6257 6.54707 14.3736 6.18957 14.0482 5.89165C13.7228 5.59374 13.3332 5.36457 12.8749 5.20415C12.4165 5.04374 11.917 4.96582 11.3715 4.96582C10.7024 4.96582 10.0928 5.07582 9.5382 5.3004C8.98362 5.5204 8.51612 5.82749 8.13112 6.22165C7.74612 6.61582 7.45279 7.07874 7.24654 7.6104C7.04029 8.14207 6.93945 8.71499 6.93945 9.32915C6.93945 9.91582 7.04029 10.4521 7.23737 10.9379C7.44362 11.4146 7.73695 11.8317 8.12195 12.18ZM11.6603 9.47124C11.5549 9.80124 11.399 10.0717 11.1928 10.2917C10.9865 10.5071 10.7482 10.6171 10.4778 10.6171C10.244 10.6171 10.0561 10.5254 9.91404 10.3421C9.77195 10.1587 9.69862 9.8929 9.69862 9.54915C9.69862 9.21457 9.75362 8.88457 9.86362 8.5729C9.97362 8.25665 10.1295 7.99999 10.3311 7.8029C10.5328 7.60582 10.762 7.50499 11.014 7.50499C11.1424 7.50499 11.2524 7.5279 11.3532 7.57832C11.454 7.62415 11.5365 7.69749 11.6099 7.78915C11.6786 7.88082 11.7336 7.98624 11.7703 8.10999C11.807 8.23374 11.8253 8.37124 11.8253 8.52249C11.8207 8.8204 11.7657 9.14124 11.6603 9.47124Z" fill="#3A4EFF"/>
</g>
<defs>
<clipPath id="clip0_146_2607">
<rect width="22" height="22" fill="white" transform="translate(0 0.09375)"/>
</clipPath>
</defs>
</svg>
