<svg width="24" height="25" viewBox="0 0 24 25" fill="none" xmlns="http://www.w3.org/2000/svg">
<path d="M19.9769 1.80762H4.02371C3.18452 1.80898 2.38008 2.14289 1.78661 2.7362C1.19314 3.32951 0.859008 4.13386 0.857422 4.97305V21.5219C0.85753 21.6847 0.904023 21.8442 0.991459 21.9816C1.0789 22.1189 1.20366 22.2286 1.35114 22.2976C1.46474 22.3514 1.58888 22.3792 1.71456 22.379C1.91494 22.3792 2.10904 22.3091 2.26314 22.181L7.16771 18.0933H19.9769C20.816 18.092 21.6205 17.7581 22.2139 17.1648C22.8074 16.5714 23.1416 15.7671 23.1431 14.9279V4.97305C23.1416 4.13386 22.8074 3.32951 22.2139 2.7362C21.6205 2.14289 20.816 1.80898 19.9769 1.80762ZM12.0003 12.9505H6.85742C6.63009 12.9505 6.41208 12.8602 6.25133 12.6994C6.09059 12.5387 6.00028 12.3207 6.00028 12.0933C6.00028 11.866 6.09059 11.648 6.25133 11.4872C6.41208 11.3265 6.63009 11.2362 6.85742 11.2362H12.0003C12.2276 11.2362 12.4456 11.3265 12.6064 11.4872C12.7671 11.648 12.8574 11.866 12.8574 12.0933C12.8574 12.3207 12.7671 12.5387 12.6064 12.6994C12.4456 12.8602 12.2276 12.9505 12.0003 12.9505ZM17.1431 8.66476H6.85742C6.63009 8.66476 6.41208 8.57445 6.25133 8.41371C6.09059 8.25296 6.00028 8.03495 6.00028 7.80762C6.00028 7.58029 6.09059 7.36227 6.25133 7.20153C6.41208 7.04078 6.63009 6.95047 6.85742 6.95047H17.1431C17.3705 6.95047 17.5885 7.04078 17.7492 7.20153C17.91 7.36227 18.0003 7.58029 18.0003 7.80762C18.0003 8.03495 17.91 8.25296 17.7492 8.41371C17.5885 8.57445 17.3705 8.66476 17.1431 8.66476Z" fill="#878787"/>
</svg>
