<svg width="25" height="24" viewBox="0 0 25 24" fill="none" xmlns="http://www.w3.org/2000/svg">
  <g clip-path="url(#clip0_175_21567)">
    <path d="M12.3908 1.5C13.0565 1.5 13.6705 1.85156 14.008 2.42812L24.133 19.6781C24.4752 20.2594 24.4752 20.9766 24.1424 21.5578C23.8096 22.1391 23.1862 22.5 22.5158 22.5H2.26585C1.59554 22.5 0.972098 22.1391 0.639285 21.5578C0.306473 20.9766 0.31116 20.2547 0.64866 19.6781L10.7737 2.42812C11.1112 1.85156 11.7252 1.5 12.3908 1.5ZM12.3908 7.5C11.7674 7.5 11.2658 8.00156 11.2658 8.625V13.875C11.2658 14.4984 11.7674 15 12.3908 15C13.0143 15 13.5158 14.4984 13.5158 13.875V8.625C13.5158 8.00156 13.0143 7.5 12.3908 7.5ZM13.8908 18C13.8908 17.6022 13.7328 17.2206 13.4515 16.9393C13.1702 16.658 12.7887 16.5 12.3908 16.5C11.993 16.5 11.6115 16.658 11.3302 16.9393C11.0489 17.2206 10.8908 17.6022 10.8908 18C10.8908 18.3978 11.0489 18.7794 11.3302 19.0607C11.6115 19.342 11.993 19.5 12.3908 19.5C12.7887 19.5 13.1702 19.342 13.4515 19.0607C13.7328 18.7794 13.8908 18.3978 13.8908 18Z" fill="#EF4444"></path>
  </g>
  <defs>
    <clipPath id="clip0_175_21567">
      <path d="M0.390625 0H24.3906V24H0.390625V0Z" fill="white"></path>
    </clipPath>
  </defs>
</svg>
