<svg width="24" height="24" viewBox="0 0 24 24" fill="none" xmlns="http://www.w3.org/2000/svg">
<path d="M22 18.6047C22 18.8036 21.921 18.9944 21.7803 19.135C21.6397 19.2757 21.4489 19.3547 21.25 19.3547H16.15C15.983 19.9776 15.6151 20.5279 15.1034 20.9205C14.5918 21.313 13.9649 21.5257 13.32 21.5257C12.6751 21.5257 12.0482 21.313 11.5366 20.9205C11.0249 20.5279 10.657 19.9776 10.49 19.3547H2.75C2.55109 19.3547 2.36032 19.2757 2.21967 19.135C2.07902 18.9944 2 18.8036 2 18.6047C2 18.4058 2.07902 18.215 2.21967 18.0744C2.36032 17.9337 2.55109 17.8547 2.75 17.8547H10.49C10.657 17.2318 11.0249 16.6814 11.5366 16.2889C12.0482 15.8964 12.6751 15.6836 13.32 15.6836C13.9649 15.6836 14.5918 15.8964 15.1034 16.2889C15.6151 16.6814 15.983 17.2318 16.15 17.8547H21.25C21.4489 17.8547 21.6397 17.9337 21.7803 18.0744C21.921 18.215 22 18.4058 22 18.6047ZM22 5.39469C22 5.5936 21.921 5.78436 21.7803 5.92502C21.6397 6.06567 21.4489 6.14469 21.25 6.14469H18.8C18.633 6.76756 18.2651 7.31793 17.7534 7.71046C17.2418 8.10298 16.6149 8.31574 15.97 8.31574C15.3251 8.31574 14.6982 8.10298 14.1866 7.71046C13.6749 7.31793 13.307 6.76756 13.14 6.14469H2.75C2.65151 6.14469 2.55398 6.12529 2.46299 6.0876C2.37199 6.0499 2.28931 5.99466 2.21967 5.92502C2.15003 5.85537 2.09478 5.77269 2.05709 5.6817C2.0194 5.5907 2 5.49318 2 5.39469C2 5.29619 2.0194 5.19867 2.05709 5.10767C2.09478 5.01668 2.15003 4.934 2.21967 4.86436C2.28931 4.79471 2.37199 4.73947 2.46299 4.70178C2.55398 4.66409 2.65151 4.64469 2.75 4.64469H13.14C13.307 4.02181 13.6749 3.47144 14.1866 3.07892C14.6982 2.68639 15.3251 2.47363 15.97 2.47363C16.6149 2.47363 17.2418 2.68639 17.7534 3.07892C18.2651 3.47144 18.633 4.02181 18.8 4.64469H21.25C21.3489 4.64334 21.447 4.66182 21.5386 4.69904C21.6302 4.73625 21.7134 4.79145 21.7833 4.86136C21.8532 4.93127 21.9084 5.01449 21.9457 5.10609C21.9829 5.19769 22.0013 5.29582 22 5.39469ZM22 11.9947C22.0013 12.0935 21.9829 12.1917 21.9457 12.2833C21.9084 12.3749 21.8532 12.4581 21.7833 12.528C21.7134 12.5979 21.6302 12.6531 21.5386 12.6903C21.447 12.7276 21.3489 12.746 21.25 12.7447H9.55C9.38296 13.3676 9.01509 13.9179 8.50342 14.3105C7.99176 14.703 7.36489 14.9157 6.72 14.9157C6.07511 14.9157 5.44824 14.703 4.93658 14.3105C4.42491 13.9179 4.05704 13.3676 3.89 12.7447H2.75C2.55109 12.7447 2.36032 12.6657 2.21967 12.525C2.07902 12.3844 2 12.1936 2 11.9947C2 11.7958 2.07902 11.605 2.21967 11.4644C2.36032 11.3237 2.55109 11.2447 2.75 11.2447H3.89C4.05704 10.6218 4.42491 10.0714 4.93658 9.67892C5.44824 9.28639 6.07511 9.07363 6.72 9.07363C7.36489 9.07363 7.99176 9.28639 8.50342 9.67892C9.01509 10.0714 9.38296 10.6218 9.55 11.2447H21.25C21.4489 11.2447 21.6397 11.3237 21.7803 11.4644C21.921 11.605 22 11.7958 22 11.9947Z" fill="white"/>
</svg>
