<svg width="24" height="24" viewBox="0 0 24 24" fill="none" xmlns="http://www.w3.org/2000/svg">
<path fill-rule="evenodd" clip-rule="evenodd" d="M12 10.8231C12.6282 10.8231 13.2306 10.5752 13.6747 10.1339C14.1189 9.69265 14.3684 9.09417 14.3684 8.47013C14.3684 7.84609 14.1189 7.24761 13.6747 6.80635C13.2306 6.36509 12.6282 6.11719 12 6.11719C11.3719 6.11719 10.7695 6.36509 10.3253 6.80635C9.88112 7.24761 9.63159 7.84609 9.63159 8.47013C9.63159 9.09417 9.88112 9.69265 10.3253 10.1339C10.7695 10.5752 11.3719 10.8231 12 10.8231ZM12 7.29366C12.3141 7.29366 12.6153 7.41761 12.8374 7.63824C13.0595 7.85887 13.1842 8.15811 13.1842 8.47013C13.1842 8.78215 13.0595 9.08139 12.8374 9.30202C12.6153 9.52265 12.3141 9.6466 12 9.6466C11.6859 9.6466 11.3847 9.52265 11.1626 9.30202C10.9406 9.08139 10.8158 8.78215 10.8158 8.47013C10.8158 8.15811 10.9406 7.85887 11.1626 7.63824C11.3847 7.41761 11.6859 7.29366 12 7.29366Z" fill="#7F56DA"/>
<path fill-rule="evenodd" clip-rule="evenodd" d="M6.67114 8.21848C6.67114 11.3632 9.81285 16.7055 12.0001 16.7055C14.1885 16.7055 17.329 11.3632 17.329 8.21848C17.329 5.1173 14.9523 2.58789 12.0001 2.58789C9.04785 2.58789 6.67114 5.1173 6.67114 8.21848ZM16.1448 8.21848C16.1448 10.7985 13.3643 15.5291 12.0001 15.5291C10.6371 15.5291 7.85535 10.7997 7.85535 8.21848C7.85535 5.74907 9.72048 3.76436 12.0001 3.76436C14.2797 3.76436 16.1448 5.74907 16.1448 8.21848Z" fill="#7F56DA"/>
<path d="M16.0679 11.5761C15.9263 11.5155 15.814 11.4025 15.755 11.2611C15.6959 11.1196 15.6947 10.9609 15.7516 10.8186C15.8085 10.6763 15.919 10.5616 16.0597 10.499C16.2004 10.4363 16.36 10.4306 16.5049 10.4831C16.9864 10.6729 17.4204 10.9649 17.7763 11.3389C18.1322 11.7128 18.4016 12.1596 18.5654 12.6478L20.1451 17.3537C20.3233 17.8845 20.3719 18.4497 20.2869 19.0027C20.2019 19.5558 19.9858 20.0809 19.6564 20.5347C19.3269 20.9885 18.8937 21.3579 18.3922 21.6126C17.8908 21.8673 17.3356 22 16.7725 21.9996H7.22775C6.66479 21.9996 6.10988 21.8667 5.60877 21.6118C5.10766 21.357 4.67469 20.9875 4.34554 20.5337C4.01639 20.08 3.80049 19.5551 3.71564 19.0022C3.63078 18.4493 3.6794 17.8843 3.85748 17.3537L5.43604 12.6478C5.60272 12.1508 5.87867 11.6969 6.24388 11.319C6.60909 10.9411 7.0544 10.6488 7.54748 10.4631C7.62019 10.4357 7.69761 10.4228 7.77534 10.4251C7.85308 10.4274 7.92959 10.4449 8.00052 10.4765C8.07144 10.5082 8.13539 10.5535 8.18872 10.6097C8.24204 10.6659 8.2837 10.7321 8.3113 10.8043C8.3389 10.8765 8.35192 10.9534 8.3496 11.0307C8.34728 11.1079 8.32967 11.1839 8.29778 11.2544C8.26589 11.3248 8.22034 11.3884 8.16374 11.4413C8.10713 11.4943 8.04058 11.5357 7.96788 11.5631C7.63874 11.6868 7.34148 11.8818 7.09771 12.134C6.85395 12.3861 6.6698 12.689 6.55867 13.0208L4.98012 17.7266C4.86153 18.0804 4.82924 18.457 4.88593 18.8256C4.94261 19.1941 5.08664 19.544 5.30615 19.8464C5.52565 20.1488 5.81435 20.3951 6.14844 20.5649C6.48254 20.7347 6.85247 20.8232 7.22775 20.8231H16.7749C17.1502 20.8231 17.5201 20.7344 17.8542 20.5645C18.1882 20.3945 18.4769 20.1481 18.6963 19.8456C18.9157 19.5431 19.0595 19.1931 19.1161 18.8245C19.1726 18.4558 19.1401 18.0792 19.0213 17.7255L17.4439 13.0196C17.3346 12.6942 17.155 12.3965 16.9177 12.1474C16.6805 11.8982 16.3912 11.7036 16.0702 11.5772" fill="#7F56DA"/>
</svg>
