<svg width="293" height="45" viewBox="0 0 293 45" fill="none" xmlns="http://www.w3.org/2000/svg">
<path d="M2.02647 21V0.454428H9.89157C11.3763 0.454428 12.6102 0.688509 13.5934 1.15667C14.5832 1.61814 15.3222 2.25016 15.8105 3.05272C16.3054 3.85528 16.5528 4.76485 16.5528 5.78143C16.5528 6.61743 16.3923 7.33305 16.0713 7.92828C15.7503 8.51683 15.3189 8.99502 14.7772 9.36286C14.2354 9.7307 13.6302 9.99488 12.9614 10.1554V10.356C13.6904 10.3962 14.3893 10.6202 15.0581 11.0282C15.7335 11.4295 16.2853 11.9979 16.7133 12.7336C17.1414 13.4693 17.3554 14.3588 17.3554 15.4021C17.3554 16.4655 17.0979 17.4219 16.5829 18.2713C16.0679 19.114 15.2921 19.7794 14.2555 20.2677C13.2189 20.7559 11.9147 21 10.343 21H2.02647ZM5.74835 17.8901H9.75112C11.1021 17.8901 12.0752 17.6326 12.6704 17.1176C13.2724 16.5959 13.5733 15.9271 13.5733 15.1112C13.5733 14.5026 13.4228 13.9542 13.1219 13.466C12.8209 12.971 12.3929 12.5831 11.8378 12.3022C11.2827 12.0147 10.6206 11.8709 9.85144 11.8709H5.74835V17.8901ZM5.74835 9.19232H9.4301C10.0721 9.19232 10.6507 9.07528 11.1656 8.84119C11.6806 8.60043 12.0852 8.26268 12.3795 7.82796C12.6805 7.38655 12.8309 6.86489 12.8309 6.26297C12.8309 5.46709 12.5501 4.81167 11.9883 4.29669C11.4332 3.78171 10.6072 3.52422 9.51035 3.52422H5.74835V9.19232ZM23.2316 21H19.259L26.492 0.454428H31.0867L38.3298 21H34.3572L28.8696 4.66788H28.7091L23.2316 21ZM23.3621 12.9443H34.1966V15.9338H23.3621V12.9443ZM57.9199 0.454428V21H54.6093L44.9284 7.00534H44.7578V21H41.036V0.454428H44.3666L54.0375 14.4591H54.218V0.454428H57.9199ZM64.6137 21H60.641L67.8741 0.454428H72.4688L79.7119 21H75.7392L70.2517 4.66788H70.0912L64.6137 21ZM64.7441 12.9443H75.5787V15.9338H64.7441V12.9443ZM82.418 21V0.454428H90.1226C91.701 0.454428 93.0252 0.728637 94.0953 1.27705C95.1721 1.82547 95.9847 2.59459 96.5331 3.58442C97.0882 4.56756 97.3657 5.71455 97.3657 7.0254C97.3657 8.34294 97.0848 9.48659 96.5231 10.4563C95.968 11.4194 95.1487 12.1651 94.0652 12.6935C92.9818 13.2152 91.6508 13.476 90.0725 13.476H84.585V10.3861H89.5709C90.4938 10.3861 91.2496 10.2591 91.8381 10.0049C92.4266 9.74408 92.8614 9.3662 93.1423 8.87129C93.4298 8.36969 93.5736 7.75439 93.5736 7.0254C93.5736 6.29641 93.4298 5.67442 93.1423 5.15944C92.8547 4.63778 92.4166 4.24319 91.8281 3.97567C91.2395 3.70146 90.4804 3.56435 89.5508 3.56435H86.1399V21H82.418ZM93.0319 11.6903L98.1181 21H93.9649L88.9689 11.6903H93.0319ZM103.43 21H99.4574L106.691 0.454428H111.285L118.528 21H114.556L109.068 4.66788H108.908L103.43 21ZM103.561 12.9443H114.395V15.9338H103.561V12.9443ZM132.069 6.10245C131.975 5.22633 131.581 4.54415 130.885 4.05592C130.196 3.5677 129.3 3.32359 128.197 3.32359C127.421 3.32359 126.755 3.44063 126.2 3.67471C125.645 3.90879 125.22 4.22647 124.926 4.62775C124.632 5.02903 124.481 5.48716 124.475 6.00213C124.475 6.43017 124.572 6.80135 124.766 7.11569C124.966 7.43002 125.237 7.69755 125.578 7.91825C125.919 8.13227 126.297 8.31284 126.712 8.45998C127.127 8.60711 127.545 8.73084 127.966 8.83116L129.892 9.3127C130.668 9.49328 131.414 9.73739 132.129 10.045C132.851 10.3527 133.497 10.7406 134.065 11.2088C134.641 11.6769 135.095 12.242 135.43 12.9042C135.764 13.5663 135.931 14.3421 135.931 15.2316C135.931 16.4354 135.624 17.4955 135.008 18.4117C134.393 19.3213 133.504 20.0336 132.34 20.5486C131.183 21.0568 129.782 21.311 128.136 21.311C126.538 21.311 125.15 21.0635 123.973 20.5686C122.803 20.0737 121.886 19.3514 121.224 18.4017C120.569 17.452 120.214 16.295 120.161 14.9306H123.823C123.876 15.6462 124.097 16.2415 124.485 16.7163C124.873 17.1912 125.378 17.5456 126 17.7797C126.628 18.0138 127.331 18.1308 128.106 18.1308C128.916 18.1308 129.625 18.0105 130.233 17.7697C130.848 17.5222 131.33 17.1811 131.678 16.7464C132.026 16.305 132.203 15.79 132.209 15.2015C132.203 14.6665 132.046 14.225 131.738 13.8773C131.43 13.5228 130.999 13.2285 130.444 12.9945C129.895 12.7537 129.253 12.5397 128.518 12.3524L126.18 11.7505C124.488 11.3158 123.151 10.657 122.167 9.77417C121.191 8.88467 120.703 7.70423 120.703 6.23287C120.703 5.02234 121.03 3.96229 121.686 3.05272C122.348 2.14315 123.248 1.43757 124.384 0.935965C125.521 0.427676 126.809 0.173532 128.247 0.173532C129.705 0.173532 130.982 0.427676 132.079 0.935965C133.183 1.43757 134.049 2.13646 134.677 3.03266C135.306 3.92216 135.63 4.94543 135.65 6.10245H132.069ZM149.979 0.454428V21H146.257V0.454428H149.979ZM170.893 0.454428V21H167.582L157.901 7.00534H157.731V21H154.009V0.454428H157.34L167.011 14.4591H167.191V0.454428H170.893ZM186.114 6.10245C186.02 5.22633 185.626 4.54415 184.93 4.05592C184.241 3.5677 183.345 3.32359 182.242 3.32359C181.466 3.32359 180.8 3.44063 180.245 3.67471C179.69 3.90879 179.265 4.22647 178.971 4.62775C178.677 5.02903 178.526 5.48716 178.52 6.00213C178.52 6.43017 178.617 6.80135 178.811 7.11569C179.011 7.43002 179.282 7.69755 179.623 7.91825C179.964 8.13227 180.342 8.31284 180.757 8.45998C181.172 8.60711 181.59 8.73084 182.011 8.83116L183.937 9.3127C184.713 9.49328 185.459 9.73739 186.174 10.045C186.896 10.3527 187.542 10.7406 188.11 11.2088C188.686 11.6769 189.14 12.242 189.475 12.9042C189.809 13.5663 189.976 14.3421 189.976 15.2316C189.976 16.4354 189.669 17.4955 189.053 18.4117C188.438 19.3213 187.549 20.0336 186.385 20.5486C185.228 21.0568 183.827 21.311 182.181 21.311C180.583 21.311 179.195 21.0635 178.018 20.5686C176.848 20.0737 175.931 19.3514 175.269 18.4017C174.614 17.452 174.259 16.295 174.206 14.9306H177.868C177.921 15.6462 178.142 16.2415 178.53 16.7163C178.918 17.1912 179.423 17.5456 180.045 17.7797C180.673 18.0138 181.376 18.1308 182.151 18.1308C182.961 18.1308 183.67 18.0105 184.278 17.7697C184.893 17.5222 185.375 17.1811 185.723 16.7464C186.071 16.305 186.248 15.79 186.254 15.2015C186.248 14.6665 186.091 14.225 185.783 13.8773C185.475 13.5228 185.044 13.2285 184.489 12.9945C183.94 12.7537 183.298 12.5397 182.563 12.3524L180.225 11.7505C178.533 11.3158 177.196 10.657 176.212 9.77417C175.236 8.88467 174.748 7.70423 174.748 6.23287C174.748 5.02234 175.075 3.96229 175.731 3.05272C176.393 2.14315 177.292 1.43757 178.429 0.935965C179.566 0.427676 180.854 0.173532 182.292 0.173532C183.75 0.173532 185.027 0.427676 186.124 0.935965C187.228 1.43757 188.094 2.13646 188.722 3.03266C189.351 3.92216 189.675 4.94543 189.695 6.10245H186.114ZM192.392 3.57439V0.454428H208.784V3.57439H202.434V21H198.742V3.57439H192.392ZM215.666 0.454428V21H211.944V0.454428H215.666ZM218.793 3.57439V0.454428H235.186V3.57439H228.835V21H225.144V3.57439H218.793ZM251.297 0.454428H255.019V13.8773C255.019 15.3486 254.671 16.6428 253.976 17.7597C253.287 18.8766 252.317 19.7493 251.066 20.378C249.816 21 248.354 21.311 246.682 21.311C245.004 21.311 243.539 21 242.288 20.378C241.038 19.7493 240.068 18.8766 239.379 17.7597C238.69 16.6428 238.346 15.3486 238.346 13.8773V0.454428H242.068V13.5663C242.068 14.4223 242.255 15.1848 242.629 15.8536C243.011 16.5224 243.546 17.0474 244.234 17.4286C244.923 17.8031 245.739 17.9904 246.682 17.9904C247.625 17.9904 248.441 17.8031 249.13 17.4286C249.826 17.0474 250.361 16.5224 250.735 15.8536C251.11 15.1848 251.297 14.4223 251.297 13.5663V0.454428ZM258.161 3.57439V0.454428H274.554V3.57439H268.203V21H264.512V3.57439H258.161ZM277.714 21V0.454428H291.076V3.57439H281.436V9.15219H290.384V12.2721H281.436V17.88H291.157V21H277.714Z" fill="#242321"/>
<path d="M15.6456 35.8922C15.6456 37.6024 15.3368 39.0804 14.7192 40.3261C14.1016 41.5719 13.2544 42.5326 12.1776 43.2082C11.1008 43.8839 9.87086 44.2217 8.48788 44.2217C7.10491 44.2217 5.87501 43.8839 4.79819 43.2082C3.72137 42.5326 2.87416 41.5719 2.25657 40.3261C1.63898 39.0804 1.33019 37.6024 1.33019 35.8922C1.33019 34.1819 1.63898 32.7039 2.25657 31.4582C2.87416 30.2125 3.72137 29.2518 4.79819 28.5761C5.87501 27.9005 7.10491 27.5626 8.48788 27.5626C9.87086 27.5626 11.1008 27.9005 12.1776 28.5761C13.2544 29.2518 14.1016 30.2125 14.7192 31.4582C15.3368 32.7039 15.6456 34.1819 15.6456 35.8922ZM13.7453 35.8922C13.7453 34.4881 13.5104 33.3031 13.0406 32.3371C12.5761 31.3711 11.9453 30.64 11.1483 30.1438C10.3565 29.6477 9.46969 29.3996 8.48788 29.3996C7.50608 29.3996 6.61664 29.6477 5.81958 30.1438C5.0278 30.64 4.39702 31.3711 3.92723 32.3371C3.46272 33.3031 3.23046 34.4881 3.23046 35.8922C3.23046 37.2963 3.46272 38.4813 3.92723 39.4473C4.39702 40.4132 5.0278 41.1443 5.81958 41.6405C6.61664 42.1367 7.50608 42.3848 8.48788 42.3848C9.46969 42.3848 10.3565 42.1367 11.1483 41.6405C11.9453 41.1443 12.5761 40.4132 13.0406 39.4473C13.5104 38.4813 13.7453 37.2963 13.7453 35.8922ZM18.9473 44V27.7843H28.6704V29.5263H20.9109V35.0054H27.9419V36.7473H20.9109V44H18.9473ZM37.4175 29.5263V27.7843H49.5793V29.5263H44.4802V44H42.5166V29.5263H37.4175ZM52.6098 44V27.7843H62.3962V29.5263H54.5734V35.0054H61.8895V36.7473H54.5734V42.2581H62.5229V44H52.6098ZM66.6006 44H64.542L70.4961 27.7843H72.5231L78.4773 44H76.4187L71.573 30.3497H71.4463L66.6006 44ZM67.3607 37.6658H75.6585V39.4077H67.3607V37.6658ZM93.2895 32.8517H91.3259C91.2098 32.2869 91.0065 31.7908 90.7162 31.3632C90.4312 30.9356 90.0828 30.5767 89.6711 30.2864C89.2646 29.9908 88.8133 29.7691 88.3171 29.6213C87.8209 29.4735 87.3037 29.3996 86.7652 29.3996C85.7834 29.3996 84.894 29.6477 84.0969 30.1438C83.3052 30.64 82.6744 31.3711 82.2046 32.3371C81.7401 33.3031 81.5078 34.4881 81.5078 35.8922C81.5078 37.2963 81.7401 38.4813 82.2046 39.4473C82.6744 40.4132 83.3052 41.1443 84.0969 41.6405C84.894 42.1367 85.7834 42.3848 86.7652 42.3848C87.3037 42.3848 87.8209 42.3109 88.3171 42.1631C88.8133 42.0153 89.2646 41.7962 89.6711 41.5059C90.0828 41.2103 90.4312 40.8487 90.7162 40.4212C91.0065 39.9883 91.2098 39.4921 91.3259 38.9326H93.2895C93.1417 39.7613 92.8725 40.503 92.4819 41.1575C92.0913 41.812 91.6057 42.3689 91.025 42.8282C90.4444 43.2821 89.7925 43.6279 89.0693 43.8654C88.3514 44.1029 87.5834 44.2217 86.7652 44.2217C85.3823 44.2217 84.1524 43.8839 83.0755 43.2082C81.9987 42.5326 81.1515 41.5719 80.5339 40.3261C79.9163 39.0804 79.6075 37.6024 79.6075 35.8922C79.6075 34.1819 79.9163 32.7039 80.5339 31.4582C81.1515 30.2125 81.9987 29.2518 83.0755 28.5761C84.1524 27.9005 85.3823 27.5626 86.7652 27.5626C87.5834 27.5626 88.3514 27.6814 89.0693 27.9189C89.7925 28.1565 90.4444 28.5049 91.025 28.9641C91.6057 29.418 92.0913 29.9723 92.4819 30.6268C92.8725 31.2761 93.1417 32.0177 93.2895 32.8517ZM96.4626 44V27.7843H98.4262V35.0054H107.072V27.7843H109.036V44H107.072V36.7473H98.4262V44H96.4626ZM112.967 44V27.7843H122.754V29.5263H114.931V35.0054H122.247V36.7473H114.931V42.2581H122.88V44H112.967ZM126.293 44V27.7843H131.772C133.039 27.7843 134.079 28.0008 134.892 28.4336C135.705 28.8612 136.306 29.4497 136.697 30.1993C137.087 30.9488 137.283 31.8013 137.283 32.7567C137.283 33.7121 137.087 34.5593 136.697 35.2983C136.306 36.0373 135.707 36.618 134.9 37.0403C134.092 37.4573 133.06 37.6658 131.804 37.6658H127.37V35.8922H131.74C132.606 35.8922 133.303 35.7655 133.831 35.5121C134.364 35.2587 134.749 34.8998 134.987 34.4353C135.229 33.9655 135.351 33.406 135.351 32.7567C135.351 32.1075 135.229 31.54 134.987 31.0544C134.744 30.5688 134.356 30.194 133.823 29.9301C133.29 29.6609 132.585 29.5263 131.709 29.5263H128.256V44H126.293ZM133.926 36.7156L137.916 44H135.636L131.709 36.7156H133.926ZM141.948 27.7843V29.2095C141.948 29.6424 141.869 30.1043 141.711 30.5952C141.558 31.0808 141.331 31.5532 141.03 32.0124C140.734 32.4664 140.375 32.8623 139.953 33.2001L138.94 32.3767C139.272 31.9016 139.56 31.4081 139.803 30.896C140.051 30.3787 140.175 29.8271 140.175 29.2412V27.7843H141.948ZM153.538 31.8383C153.443 31.0359 153.058 30.4131 152.382 29.9697C151.706 29.5263 150.878 29.3046 149.896 29.3046C149.178 29.3046 148.55 29.4207 148.011 29.6529C147.478 29.8852 147.061 30.2046 146.76 30.611C146.465 31.0174 146.317 31.4793 146.317 31.9966C146.317 32.4295 146.42 32.8016 146.626 33.113C146.837 33.4192 147.106 33.6752 147.433 33.881C147.761 34.0816 148.104 34.2479 148.463 34.3799C148.822 34.5066 149.152 34.6095 149.452 34.6887L151.099 35.1321C151.522 35.2429 151.991 35.396 152.509 35.5913C153.031 35.7866 153.53 36.0532 154.005 36.391C154.486 36.7235 154.881 37.1511 155.193 37.6737C155.504 38.1963 155.66 38.8376 155.66 39.5977C155.66 40.4739 155.43 41.2657 154.971 41.973C154.517 42.6804 153.852 43.2425 152.976 43.6595C152.105 44.0765 151.047 44.285 149.801 44.285C148.64 44.285 147.634 44.0977 146.784 43.7229C145.94 43.3481 145.274 42.8255 144.789 42.1552C144.309 41.4848 144.037 40.7062 143.973 39.8194H146C146.053 40.4317 146.259 40.9385 146.618 41.3396C146.982 41.7355 147.441 42.0311 147.996 42.2264C148.555 42.4164 149.157 42.5115 149.801 42.5115C150.55 42.5115 151.223 42.39 151.82 42.1472C152.416 41.8991 152.889 41.556 153.237 41.1179C153.586 40.6745 153.76 40.1572 153.76 39.566C153.76 39.0276 153.609 38.5895 153.308 38.2517C153.008 37.9139 152.612 37.6394 152.121 37.4282C151.63 37.2171 151.099 37.0323 150.529 36.874L148.534 36.3039C147.267 35.9397 146.264 35.4197 145.525 34.7441C144.786 34.0684 144.417 33.1843 144.417 32.0916C144.417 31.1837 144.662 30.3919 145.153 29.7163C145.649 29.0354 146.314 28.5075 147.148 28.1327C147.988 27.7527 148.925 27.5626 149.959 27.5626C151.004 27.5626 151.933 27.75 152.746 28.1248C153.559 28.4943 154.203 29.001 154.678 29.645C155.159 30.289 155.412 31.0201 155.438 31.8383H153.538ZM165.159 44V27.7843H174.946V29.5263H167.123V35.0054H174.439V36.7473H167.123V42.2581H175.072V44H165.159ZM183.489 44H178.485V27.7843H183.711C185.284 27.7843 186.63 28.109 187.749 28.7582C188.868 29.4022 189.726 30.3286 190.322 31.5374C190.919 32.7409 191.217 34.1819 191.217 35.8605C191.217 37.5496 190.916 39.0039 190.314 40.2232C189.712 41.4373 188.836 42.3716 187.686 43.0261C186.535 43.6754 185.136 44 183.489 44ZM180.449 42.2581H183.362C184.703 42.2581 185.814 41.9994 186.696 41.4821C187.577 40.9648 188.235 40.2285 188.667 39.2731C189.1 38.3177 189.317 37.1801 189.317 35.8605C189.317 34.5514 189.103 33.4245 188.675 32.4796C188.248 31.5295 187.609 30.801 186.759 30.2943C185.909 29.7823 184.851 29.5263 183.584 29.5263H180.449V42.2581ZM205.152 27.7843H207.116V38.5209C207.116 39.6294 206.855 40.6191 206.332 41.4901C205.815 42.3557 205.084 43.0393 204.139 43.5408C203.194 44.0369 202.085 44.285 200.813 44.285C199.541 44.285 198.433 44.0369 197.488 43.5408C196.543 43.0393 195.809 42.3557 195.287 41.4901C194.769 40.6191 194.511 39.6294 194.511 38.5209V27.7843H196.474V38.3625C196.474 39.1543 196.648 39.859 196.997 40.4766C197.345 41.0889 197.841 41.5719 198.485 41.9255C199.135 42.2739 199.911 42.4481 200.813 42.4481C201.716 42.4481 202.492 42.2739 203.141 41.9255C203.79 41.5719 204.287 41.0889 204.63 40.4766C204.978 39.859 205.152 39.1543 205.152 38.3625V27.7843ZM224.086 32.8517H222.122C222.006 32.2869 221.803 31.7908 221.512 31.3632C221.227 30.9356 220.879 30.5767 220.467 30.2864C220.061 29.9908 219.609 29.7691 219.113 29.6213C218.617 29.4735 218.1 29.3996 217.561 29.3996C216.58 29.3996 215.69 29.6477 214.893 30.1438C214.101 30.64 213.471 31.3711 213.001 32.3371C212.536 33.3031 212.304 34.4881 212.304 35.8922C212.304 37.2963 212.536 38.4813 213.001 39.4473C213.471 40.4132 214.101 41.1443 214.893 41.6405C215.69 42.1367 216.58 42.3848 217.561 42.3848C218.1 42.3848 218.617 42.3109 219.113 42.1631C219.609 42.0153 220.061 41.7962 220.467 41.5059C220.879 41.2103 221.227 40.8487 221.512 40.4212C221.803 39.9883 222.006 39.4921 222.122 38.9326H224.086C223.938 39.7613 223.669 40.503 223.278 41.1575C222.887 41.812 222.402 42.3689 221.821 42.8282C221.241 43.2821 220.589 43.6279 219.865 43.8654C219.148 44.1029 218.38 44.2217 217.561 44.2217C216.178 44.2217 214.948 43.8839 213.872 43.2082C212.795 42.5326 211.948 41.5719 211.33 40.3261C210.712 39.0804 210.404 37.6024 210.404 35.8922C210.404 34.1819 210.712 32.7039 211.33 31.4582C211.948 30.2125 212.795 29.2518 213.872 28.5761C214.948 27.9005 216.178 27.5626 217.561 27.5626C218.38 27.5626 219.148 27.6814 219.865 27.9189C220.589 28.1565 221.241 28.5049 221.821 28.9641C222.402 29.418 222.887 29.9723 223.278 30.6268C223.669 31.2761 223.938 32.0177 224.086 32.8517ZM227.924 44H225.865L231.819 27.7843H233.846L239.801 44H237.742L232.896 30.3497H232.769L227.924 44ZM228.684 37.6658H236.982V39.4077H228.684V37.6658ZM239.545 29.5263V27.7843H251.707V29.5263H246.608V44H244.644V29.5263H239.545ZM256.701 27.7843V44H254.737V27.7843H256.701ZM274.32 35.8922C274.32 37.6024 274.011 39.0804 273.394 40.3261C272.776 41.5719 271.929 42.5326 270.852 43.2082C269.775 43.8839 268.545 44.2217 267.162 44.2217C265.779 44.2217 264.55 43.8839 263.473 43.2082C262.396 42.5326 261.549 41.5719 260.931 40.3261C260.314 39.0804 260.005 37.6024 260.005 35.8922C260.005 34.1819 260.314 32.7039 260.931 31.4582C261.549 30.2125 262.396 29.2518 263.473 28.5761C264.55 27.9005 265.779 27.5626 267.162 27.5626C268.545 27.5626 269.775 27.9005 270.852 28.5761C271.929 29.2518 272.776 30.2125 273.394 31.4582C274.011 32.7039 274.32 34.1819 274.32 35.8922ZM272.42 35.8922C272.42 34.4881 272.185 33.3031 271.715 32.3371C271.251 31.3711 270.62 30.64 269.823 30.1438C269.031 29.6477 268.144 29.3996 267.162 29.3996C266.181 29.3996 265.291 29.6477 264.494 30.1438C263.702 30.64 263.072 31.3711 262.602 32.3371C262.137 33.3031 261.905 34.4881 261.905 35.8922C261.905 37.2963 262.137 38.4813 262.602 39.4473C263.072 40.4132 263.702 41.1443 264.494 41.6405C265.291 42.1367 266.181 42.3848 267.162 42.3848C268.144 42.3848 269.031 42.1367 269.823 41.6405C270.62 41.1443 271.251 40.4132 271.715 39.4473C272.185 38.4813 272.42 37.2963 272.42 35.8922ZM290.48 27.7843V44H288.58L279.744 31.2682H279.585V44H277.622V27.7843H279.522L288.39 40.5478H288.548V27.7843H290.48Z" fill="#242321"/>
</svg>
