<svg width="19" height="24" viewBox="0 0 19 24" fill="none" xmlns="http://www.w3.org/2000/svg">
<g clip-path="url(#clip0_175_21556)">
<g clip-path="url(#clip1_175_21556)">
<path d="M3.1875 0C1.53281 0 0.1875 1.34531 0.1875 3V21C0.1875 22.6547 1.53281 24 3.1875 24H15.1875C16.8422 24 18.1875 22.6547 18.1875 21V7.5H12.1875C11.3578 7.5 10.6875 6.82969 10.6875 6V0H3.1875ZM12.1875 0V6H18.1875L12.1875 0ZM3.1875 3.75C3.1875 3.3375 3.525 3 3.9375 3H6.9375C7.35 3 7.6875 3.3375 7.6875 3.75C7.6875 4.1625 7.35 4.5 6.9375 4.5H3.9375C3.525 4.5 3.1875 4.1625 3.1875 3.75ZM3.1875 6.75C3.1875 6.3375 3.525 6 3.9375 6H6.9375C7.35 6 7.6875 6.3375 7.6875 6.75C7.6875 7.1625 7.35 7.5 6.9375 7.5H3.9375C3.525 7.5 3.1875 7.1625 3.1875 6.75ZM9.1875 10.125C9.6 10.125 9.9375 10.4625 9.9375 10.875V11.6859C10.3359 11.7422 10.7203 11.8312 11.0672 11.925C11.4656 12.0328 11.7047 12.4406 11.5969 12.8438C11.4891 13.2469 11.0813 13.4812 10.6781 13.3734C10.1578 13.2328 9.64687 13.1297 9.17344 13.125C8.77969 13.1203 8.35781 13.2094 8.06719 13.3828C7.8 13.5422 7.6875 13.725 7.6875 13.9828C7.6875 14.1562 7.74844 14.2875 8.02969 14.4562C8.35313 14.6484 8.80781 14.7891 9.39844 14.9672L9.42188 14.9719C9.95156 15.1312 10.6078 15.3281 11.1234 15.6562C11.6906 16.0125 12.1734 16.5797 12.1875 17.4469C12.2016 18.3516 11.7375 19.0078 11.1141 19.3969C10.7531 19.6219 10.3453 19.7531 9.9375 19.8234V20.625C9.9375 21.0375 9.6 21.375 9.1875 21.375C8.775 21.375 8.4375 21.0375 8.4375 20.625V19.7906C7.9125 19.6922 7.42031 19.5234 6.98906 19.3734C6.89063 19.3406 6.79219 19.3078 6.69844 19.275C6.30469 19.1438 6.09375 18.7172 6.225 18.3281C6.35625 17.9391 6.78281 17.7234 7.17188 17.8547C7.28906 17.8922 7.39688 17.9297 7.50469 17.9672C8.14219 18.1828 8.65781 18.3609 9.20625 18.375C9.63281 18.3891 10.0453 18.2953 10.3172 18.1266C10.5563 17.9766 10.6875 17.7844 10.6828 17.4703C10.6781 17.2547 10.5984 17.1047 10.3219 16.9266C10.0031 16.725 9.54844 16.5797 8.9625 16.4016L8.8875 16.3781C8.37188 16.2234 7.74844 16.0359 7.25625 15.7359C6.69375 15.3984 6.19688 14.85 6.19219 13.9875C6.1875 13.0781 6.69844 12.45 7.30781 12.0891C7.65937 11.8828 8.04844 11.7516 8.4375 11.6812V10.875C8.4375 10.4625 8.775 10.125 9.1875 10.125Z" fill="#9333EA"></path>
</g>
</g>
<defs>
<clipPath id="clip0_175_21556">
<rect width="18" height="24" fill="white" transform="translate(0.1875)"></rect>
</clipPath>
<clipPath id="clip1_175_21556">
<path d="M0.1875 0H18.1875V24H0.1875V0Z" fill="white"></path>
</clipPath>
</defs>
</svg>
