<svg width="21" height="20" viewBox="0 0 21 20" fill="none" xmlns="http://www.w3.org/2000/svg">
<path d="M19.4226 2.42549C19.5393 2.54265 19.6049 2.70132 19.6049 2.86674C19.6049 3.03216 19.5393 3.19084 19.4226 3.30799L18.1188 4.61299L15.6188 2.11299L16.9226 0.807992C17.0398 0.690822 17.1987 0.625 17.3644 0.625C17.5302 0.625 17.6891 0.690822 17.8063 0.807992L19.4226 2.42424V2.42549ZM17.2351 5.49549L14.7351 2.99549L6.21881 11.513C6.15001 11.5818 6.09822 11.6657 6.06755 11.758L5.0613 14.7755C5.04306 14.8305 5.04046 14.8895 5.05382 14.9459C5.06718 15.0023 5.09596 15.0539 5.13694 15.0949C5.17792 15.1358 5.2295 15.1646 5.28589 15.178C5.34229 15.1913 5.40129 15.1887 5.4563 15.1705L8.47381 14.1642C8.56601 14.1339 8.64989 14.0826 8.71881 14.0142L17.2351 5.49674V5.49549Z" fill="#546788"/>
<path fill-rule="evenodd" clip-rule="evenodd" d="M1.29541 16.875C1.29541 17.3723 1.49295 17.8492 1.84459 18.2008C2.19622 18.5525 2.67313 18.75 3.17041 18.75H16.9204C17.4177 18.75 17.8946 18.5525 18.2462 18.2008C18.5979 17.8492 18.7954 17.3723 18.7954 16.875V9.375C18.7954 9.20924 18.7296 9.05027 18.6124 8.93306C18.4951 8.81585 18.3362 8.75 18.1704 8.75C18.0047 8.75 17.8457 8.81585 17.7285 8.93306C17.6113 9.05027 17.5454 9.20924 17.5454 9.375V16.875C17.5454 17.0408 17.4796 17.1997 17.3624 17.3169C17.2451 17.4342 17.0862 17.5 16.9204 17.5H3.17041C3.00465 17.5 2.84568 17.4342 2.72847 17.3169C2.61126 17.1997 2.54541 17.0408 2.54541 16.875V3.125C2.54541 2.95924 2.61126 2.80027 2.72847 2.68306C2.84568 2.56585 3.00465 2.5 3.17041 2.5H11.2954C11.4612 2.5 11.6201 2.43415 11.7374 2.31694C11.8546 2.19973 11.9204 2.04076 11.9204 1.875C11.9204 1.70924 11.8546 1.55027 11.7374 1.43306C11.6201 1.31585 11.4612 1.25 11.2954 1.25H3.17041C2.67313 1.25 2.19622 1.44754 1.84459 1.79917C1.49295 2.15081 1.29541 2.62772 1.29541 3.125V16.875Z" fill="#546788"/>
</svg>
