<svg width="25" height="24" viewBox="0 0 25 24" fill="none" xmlns="http://www.w3.org/2000/svg">
<path d="M16.5 8V5H8.5V8H6.5V3H18.5V8H16.5ZM18.5 12.5C18.7833 12.5 19.021 12.404 19.213 12.212C19.405 12.02 19.5007 11.7827 19.5 11.5C19.4993 11.2173 19.4033 10.98 19.212 10.788C19.0207 10.596 18.7833 10.5 18.5 10.5C18.2167 10.5 17.9793 10.596 17.788 10.788C17.5967 10.98 17.5007 11.2173 17.5 11.5C17.4993 11.7827 17.5953 12.0203 17.788 12.213C17.9807 12.4057 18.218 12.5013 18.5 12.5ZM16.5 19V15H8.5V19H16.5ZM18.5 21H6.5V17H2.5V11C2.5 10.15 2.79167 9.43767 3.375 8.863C3.95833 8.28833 4.66667 8.00067 5.5 8H19.5C20.35 8 21.0627 8.28767 21.638 8.863C22.2133 9.43833 22.5007 10.1507 22.5 11V17H18.5V21ZM20.5 15V11C20.5 10.7167 20.404 10.4793 20.212 10.288C20.02 10.0967 19.7827 10.0007 19.5 10H5.5C5.21667 10 4.97933 10.096 4.788 10.288C4.59667 10.48 4.50067 10.7173 4.5 11V15H6.5V13H18.5V15H20.5Z" fill="white"/>
</svg>
