<svg width="14" height="14" viewBox="0 0 14 14" fill="none" xmlns="http://www.w3.org/2000/svg">
<rect x="0.5" y="0.5" width="13" height="13" rx="6.5" stroke="#F93737"/>
<path d="M7.0001 9.93307C7.10618 9.93307 7.20793 9.89093 7.28294 9.81592C7.35795 9.7409 7.4001 9.63916 7.4001 9.53307C7.4001 9.42699 7.35795 9.32524 7.28294 9.25023C7.20793 9.17522 7.10618 9.13307 7.0001 9.13307C6.89401 9.13307 6.79227 9.17522 6.71726 9.25023C6.64224 9.32524 6.6001 9.42699 6.6001 9.53307C6.6001 9.63916 6.64224 9.7409 6.71726 9.81592C6.79227 9.89093 6.89401 9.93307 7.0001 9.93307Z" fill="#F93737"/>
<path fill-rule="evenodd" clip-rule="evenodd" d="M6.6001 8.06641V4.06641H7.4001V8.06641H6.6001Z" fill="#F93737"/>
</svg>
