<svg width="28" height="24" viewBox="0 0 28 24" fill="none" xmlns="http://www.w3.org/2000/svg">
  <g clip-path="url(#clip0_175_21587)">
    <path d="M0.796875 5.2735V19.7954C0.796875 20.6391 1.27031 21.436 2.0625 21.7313C6.14062 23.2547 10.2188 22.2141 14.2969 21.1735C18.0375 20.2219 21.7781 19.2657 25.5141 20.2876C26.5922 20.5829 27.7969 19.8422 27.7969 18.7219V4.20475C27.7969 3.361 27.3234 2.56412 26.5312 2.26881C22.4531 0.745371 18.375 1.786 14.2969 2.82662C10.5562 3.77818 6.81562 4.72975 3.07969 3.70787C1.99688 3.41256 0.796875 4.15318 0.796875 5.2735ZM14.2969 16.5001C12.225 16.5001 10.5469 14.4844 10.5469 12.0001C10.5469 9.51568 12.225 7.50006 14.2969 7.50006C16.3687 7.50006 18.0469 9.51568 18.0469 12.0001C18.0469 14.4844 16.3687 16.5001 14.2969 16.5001ZM3.79688 16.5001C5.45156 16.5001 6.79688 17.8454 6.79688 19.5001H3.79688V16.5001ZM6.79688 6.75006C6.79688 8.40475 5.45156 9.75006 3.79688 9.75006V6.75006H6.79688ZM24.7969 14.2501V17.2501H21.7969C21.7969 15.5954 23.1422 14.2501 24.7969 14.2501ZM21.7969 4.50006H24.7969V7.50006C23.1422 7.50006 21.7969 6.15475 21.7969 4.50006Z" fill="#CA8A04"></path>
  </g>
  <defs>
    <clipPath id="clip0_175_21587">
      <path d="M0.796875 0H27.7969V24H0.796875V0Z" fill="white"></path>
    </clipPath>
  </defs>
</svg>
