<svg width="26" height="25" viewBox="0 0 26 25" fill="none" xmlns="http://www.w3.org/2000/svg">
<path d="M24.5815 4.60557L24.5813 4.6055L13.2871 0.840761C13.2871 0.840751 13.287 0.840741 13.287 0.840732C13.1009 0.77861 12.8996 0.77861 12.7134 0.840732C12.7134 0.840741 12.7134 0.840751 12.7133 0.840761L1.41912 4.6055L1.41903 4.60553C1.23878 4.66571 1.08202 4.78104 0.970926 4.93522C0.859834 5.08939 0.800039 5.2746 0.8 5.46462V5.46466V14.8766C0.8 15.1169 0.895442 15.3473 1.06533 15.5172C1.23522 15.6871 1.46564 15.7825 1.70589 15.7825C1.94615 15.7825 2.17657 15.6871 2.34646 15.5172C2.51635 15.3473 2.61179 15.1169 2.61179 14.8766V6.72104L6.65357 8.06899C6.14221 8.88486 5.79242 9.79236 5.62422 10.7421C5.44076 11.778 5.47746 12.841 5.73196 13.8618C5.98645 14.8827 6.45303 15.8385 7.10133 16.6671C7.65923 17.3801 8.34095 17.9852 9.11267 18.454C6.97674 19.278 5.12283 20.7859 3.77368 22.8558L3.76841 22.8639L3.76394 22.8724C3.65979 23.0719 3.63361 23.303 3.6905 23.5207C3.74738 23.7384 3.88326 23.9272 4.07167 24.0502C4.26008 24.1732 4.48754 24.2217 4.70974 24.1863C4.93195 24.1508 5.13301 24.0339 5.27376 23.8583L5.27985 23.8507L5.28518 23.8426C7.07024 21.109 9.88062 19.5473 13.0002 19.5473C16.1198 19.5473 18.9302 21.109 20.7153 23.8426L20.7199 23.8496L20.725 23.8563C20.8649 24.0355 21.0671 24.1557 21.2915 24.1928C21.5159 24.2298 21.746 24.1812 21.9361 24.0564C22.1263 23.9317 22.2626 23.74 22.3179 23.5194C22.3732 23.2989 22.3436 23.0655 22.2349 22.8658L22.231 22.8588L22.2267 22.8521C20.8773 20.7853 19.025 19.2775 16.887 18.4506C17.6585 17.9813 18.34 17.3758 18.8975 16.6623C19.5452 15.8335 20.0112 14.8776 20.2651 13.8568C20.519 12.836 20.5552 11.7732 20.3713 10.7375C20.2027 9.78817 19.8527 8.88109 19.3412 8.06566L24.5812 6.32388L24.5815 6.32376C24.7617 6.26349 24.9183 6.14811 25.0293 5.99394C25.1403 5.83978 25.2 5.65463 25.2 5.46466C25.2 5.2747 25.1403 5.08955 25.0293 4.93539C24.9183 4.78122 24.7617 4.66584 24.5815 4.60557ZM18.6827 12.0528V12.0531C18.6831 12.9586 18.4671 13.851 18.0527 14.6561C17.6383 15.4612 17.0375 16.1556 16.3004 16.6815C15.5633 17.2074 14.7112 17.5495 13.8151 17.6793C12.919 17.8092 12.0048 17.723 11.1487 17.428C10.2926 17.133 9.51948 16.6376 8.89363 15.9833C8.26778 15.3289 7.80736 14.5344 7.55074 13.6661C7.29412 12.7977 7.24873 11.8806 7.41834 10.9912C7.57919 10.1477 7.92895 9.35233 8.44066 8.66434L12.7133 10.0886C12.7134 10.0886 12.7134 10.0886 12.7134 10.0886C12.8996 10.1507 13.1009 10.1507 13.287 10.0886C13.287 10.0886 13.2871 10.0886 13.2871 10.0886L17.56 8.66427C18.2894 9.64196 18.684 10.8305 18.6827 12.0528ZM13.0002 8.27507L4.57339 5.46466L13.0002 2.65426L21.427 5.46466L13.0002 8.27507Z" fill="#7F56DA" stroke="#7F56DA" stroke-width="0.4"/>
</svg>
