<svg width="28" height="24" viewBox="0 0 28 24" fill="none" xmlns="http://www.w3.org/2000/svg">
  <g clip-path="url(#clip0_175_21576)">
    <g clip-path="url(#clip1_175_21576)">
      <path d="M12.2188 0H10.3438C9.10156 0 8.09375 1.00781 8.09375 2.25V7.5C8.09375 9.15469 9.43906 10.5 11.0938 10.5H17.0938C18.7484 10.5 20.0938 9.15469 20.0938 7.5V2.25C20.0938 1.00781 19.0859 0 17.8438 0H15.9688V3.75C15.9688 4.1625 15.6313 4.5 15.2188 4.5H12.9688C12.5562 4.5 12.2188 4.1625 12.2188 3.75V0ZM3.59375 12C1.93906 12 0.59375 13.3453 0.59375 15V21C0.59375 22.6547 1.93906 24 3.59375 24H11.0938C12.7484 24 14.0938 22.6547 14.0938 21V15C14.0938 13.3453 12.7484 12 11.0938 12H9.21875V15.75C9.21875 16.1625 8.88125 16.5 8.46875 16.5H6.21875C5.80625 16.5 5.46875 16.1625 5.46875 15.75V12H3.59375ZM17.0938 24H24.5938C26.2484 24 27.5938 22.6547 27.5938 21V15C27.5938 13.3453 26.2484 12 24.5938 12H22.7188V15.75C22.7188 16.1625 22.3813 16.5 21.9688 16.5H19.7188C19.3062 16.5 18.9688 16.1625 18.9688 15.75V12H17.0938C16.3906 12 15.7437 12.2391 15.2328 12.6469C15.4625 13.1344 15.5938 13.6781 15.5938 14.25V21.75C15.5938 22.3219 15.4625 22.8656 15.2328 23.3531C15.7437 23.7609 16.3906 24 17.0938 24Z" fill="#16A34A"></path>
    </g>
  </g>
  <defs>
    <clipPath id="clip0_175_21576">
      <rect width="27" height="24" fill="white" transform="translate(0.59375)"></rect>
    </clipPath>
    <clipPath id="clip1_175_21576">
      <path d="M0.59375 0H27.5938V24H0.59375V0Z" fill="white"></path>
    </clipPath>
  </defs>
</svg>
